<mxfile host="65bd71144e">
    <diagram id="NaFznILHvg57-2ARZ83y" name="Page-1">
        <mxGraphModel dx="1838" dy="862" grid="1" gridSize="10" guides="1" tooltips="1" connect="1" arrows="1" fold="1" page="1" pageScale="1" pageWidth="1100" pageHeight="850" math="0" shadow="0">
            <root>
                <mxCell id="0"/>
                <mxCell id="1" parent="0"/>
                <mxCell id="2" value="&lt;h3&gt;Prikazati postupak sortiranja niya 3, 5, 8, 6, 2, 7 korišćenjem merge. qucik i shell sorta sa intervalom 3&lt;/h3&gt;" style="text;html=1;align=center;verticalAlign=middle;resizable=0;points=[];autosize=1;strokeColor=none;fillColor=none;" parent="1" vertex="1">
                    <mxGeometry x="191" y="2" width="700" height="60" as="geometry"/>
                </mxCell>
                <mxCell id="4" value="&lt;font style=&quot;font-size: 14px;&quot;&gt;1. **Merge Sort:**&lt;br&gt;&lt;br&gt;&lt;br&gt;&amp;nbsp; &amp;nbsp;- Podelite niz na pola: [3, 5, 8] i [6, 2, 7].&lt;br&gt;&amp;nbsp; &amp;nbsp;- Dalje podelite svaki od podnizova na pola: [3] [5, 8] i [6] [2, 7].&lt;br&gt;&amp;nbsp; &amp;nbsp;- Sada spajajte podnizove tako da dobijete sortiranu listu: [3, 5, 8] i [2, 6, 7].&lt;br&gt;&amp;nbsp; &amp;nbsp;- Na kraju, spojite ova dva sortirana niza da dobijete konačno sortiran niz: [2, 3, 5, 6, 7, 8].&lt;br&gt;&lt;br&gt;&lt;br&gt;2. **Quick Sort:**&lt;br&gt;&lt;br&gt;&lt;br&gt;&amp;nbsp; &amp;nbsp;- Odaberite pivot element, na primer, 7 (možete odabrati bilo koji element).&lt;br&gt;&amp;nbsp; &amp;nbsp;- Razdvojite niz na dva dela, jedan sa elementima manjim od pivota (3, 5, 6, 2) i drugi sa elementima većim od pivota (8).&lt;br&gt;&amp;nbsp; &amp;nbsp;- Rekurzivno primenite quicksort na svaki od podnizova.&lt;br&gt;&amp;nbsp; &amp;nbsp;- Na kraju spojite ove nizove tako da dobijete sortiran niz: [2, 3, 5, 6, 7, 8].&lt;br&gt;&lt;br&gt;&lt;br&gt;3. **Shell Sort sa intervalom 3:**&lt;br&gt;&lt;br&gt;&lt;br&gt;&amp;nbsp; &amp;nbsp;- Podelite niz na tri intervala koristeći interval 3: [3, 6], [5, 2], [8, 7].&lt;br&gt;&amp;nbsp; &amp;nbsp;- Sortirajte svaki od ovih intervala. Prvi interval postaje [3, 6], drugi interval postaje [2, 5], a treći interval postaje [7, 8].&lt;br&gt;&amp;nbsp; &amp;nbsp;- Sada ponovo spojite ove intervale u niz: [3, 6, 2, 5, 7, 8].&lt;br&gt;&amp;nbsp; &amp;nbsp;- Ponovite prethodne korake sa intervalom 1: [3, 2, 7] i [6, 5, 8].&lt;br&gt;&amp;nbsp; &amp;nbsp;- Konačno, ponovo spojite ove intervale da dobijete konačno sortiran niz: [2, 3, 5, 6, 7, 8].&lt;br&gt;&lt;/font&gt;" style="text;html=1;align=center;verticalAlign=middle;resizable=0;points=[];autosize=1;strokeColor=none;fillColor=none;" vertex="1" parent="1">
                    <mxGeometry x="1" y="66" width="780" height="450" as="geometry"/>
                </mxCell>
                <mxCell id="57" value="" style="group" vertex="1" connectable="0" parent="1">
                    <mxGeometry x="891" y="62" width="333.57" height="399.39" as="geometry"/>
                </mxCell>
                <mxCell id="8" value="" style="shape=stencil(lVjZbtwwDPyafSUokbqe0/Q/AmTTLJpmg016/X1pGNpatD1J3vYY2iRFDoc6yM3r493L8RD59e1y/n78fbp/ezzIl0OMp+fH4+X0Zp8OcnuQm4fz5fjtcv75fD9/f7mbkNOnH+df0xP+zHaVcp6MIv+dfwhCYf7l64x/Oj0v8PZ308Gg0vRtDx+ZQhnw2t+4ja8U0ugQ1bKPl+KfzxR1H6+ZODs88z4+KYXm/NG2j89MVVy8GgA+U/D5VOB/blScP0I5QQMeXzBlCHmk1OpokCmDI7aQeTwCiRQE5DRRGd8gmbQCA1m9oVECp5Cyj0EjDjpSGrOkllZwDoV9nWqiCgqpVBL3hkoJdELNvTC7QbIYQJaaxTCWnqWhgtJohXSMwdIQQVoDs/cpW/uDqFsjGX0qCvunKclY35UpAQKoVkxxNEj45JTiWEy1UUMdFEjGYmpCAopJC7UwGqTOCtskZhznDEpvke2DUErjybVrm2/TKoUxhMVRbr/B94O9oIFj4J7CBR5FwKTZ4xV0A3dG+WDAq0JttadsD188nqE/4uItlEFNsKdtw0c0Z0myxzMoobiKN8OijpTlM8+X3uZL/9Fc3nh+hs9vq/NiUD+Gzx6PaEKojiwx1Q/Iv3SWWtYn8CdSW+EL4LlIyh6P+itQcbLo3QYOqwausKBz8PgEGziuEhpAwOatw9dO3Ht48XgkNK+yb0mhsOHXBSqwIcO6IdGs9Bpnakj4/E/i1QtfGzINdUzwStZmbQEtqXnVY7F30QeFYLvS5PYoti5wo9jkPGDRajQ0nlq9SsNtOWFyfEyr6bAC5oYlkcdGKwLTOo32MUumuAOSRCuqM8UdQJZMnrhhn1pXJHtZSmNaTXELOLiSvRA0qYmmq6k+dfq64S2EvUozkYToyPYuV0tWjihLusqSKXhEAJNKGw9OzUlwcPYGp0Fs+UygWi2JMnKq4GXQ9HoaXRKGgtykKbtdLcHVy0otOSHYIAnktLogsP0QkUD0FwSB4WKUal/lrh3Xm3xvGfSbFxxUU9245REOEql+ckrvju1J3vzoVzjJbfQ7wihda28Tvf3NPqFIKofYbxCuBgnuXGbgZnPAu2yw7cAZZKgezWPXa2YAr5lscJSVAaLh7vASj1jYL4EWckOTx+tHwyM9W/1+Y3ikl6sfbNZmiB+r56KAqaX6Jpgu8qA/br8xPKrSz94jvo+3D/8vLR9OT0/znefyf3/JaT/NF6Ry+w8=);lineShape=1;fontSize=14;" vertex="1" parent="57">
                    <mxGeometry x="77.36238504692531" width="18.217740836472178" height="28.95020383683202" as="geometry"/>
                </mxCell>
                <mxCell id="9" value="" style="shape=stencil(7VjLctswDPwaXTEkQRLkOU3/IzNxak9dO+O4r78vVEeKAUs7za2H3BQFSwK7C5DywHcv24fnzZDCy/l0/Lr5uXs8bwf+NKS0O2w3p91Znwa+H/ju6XjafDkdvx8eL38/P4yR49O3449xhV8XHEeqMqJS+P36plPLf998vgD2u8MVIDaq2QIShbIOEEps4nOYVliML1Rv4nNfj88Umi+AwfqJqovXDAUUTCXZ+Ezc1uO1umLjAzXAT6Bo+UyVGqg3UAg2PpEkFJ9sPqpggfk3a4iY4fqRmtUrRuK6Hs8U7PqNJCB5Hf2YnUoxuPDAIPlOxWaj9USQTurenipvAnTmRN36LTNlwE/P1K0haqMABOjKiKOokwBH90bZkiQ8mWoZoCw5gECNY7hxaUuUI9yiVQsQqhgQugF03QFI3YXE7qDEMWjMPltnBjTqWDln7SselhHJDy8tC+Y0m20GyLTEIqC1aZrPAIY0Ke3dVq1LCNpB/IHQmCrwq67nvCENTngFdMur+rWjjtATw848CcRgB9XB0ao9h7papU42pSrUkF0rpZsmDQggU4lzDRHqoM6JtiGk4JQ6ddejenYhlrofZa1MS6wBXnt+Nl/AAGXd9WihiEZZ9eZ7W2JNOHFNje87ao1bgKAWfS+A23SfuJquESitZ6I4typLoOiPK9jHFey/vYLpCLFjK8O5qMUmG4+PWLWKv7tMGy7HFz931csgfZ579Yr8AsTSdk82IVUXncgKcBlFgQKM3ef8GaHAPJc4AwocEGNKVgRlKQNHjzPOpsT4yqm0suv5Mp0+y4B6M4QaHCpqDD+FOuwyzdgpnefGXga899v6HwD68PYp/7Tb7y+/BFz/33/666vLzwZ8/wc=);lineShape=1;fontSize=14;" vertex="1" parent="57">
                    <mxGeometry x="116.01871247322708" y="4.983164608484861" width="8.16771307528629" height="3.8387630204913528" as="geometry"/>
                </mxCell>
                <mxCell id="10" value="" style="shape=stencil(lVjLctswDPwaXzEkwec5Tf8jM3FqT10747ivvy9Yh7IISuvkZksLklgAC1AbfnjbPb1uN868Xc6n79vf++fLbsNfNs7tj7vteX+RXxt+3PDDy+m8/XY+/Tw+X/+/PlVk/fXj9Kuu8Odq5xLFUq2c+fv+hFL+/+DrFX/YH2d4m8hyh7eGnFk3yJRtj49kAN46qu/mB7JUCjCI5E1vEMjwuoF4GFJvkMkCn9mS6zliQ8mtG3g5ce4NmEJcNwhyYt8bTDwvGsTSTtwMZE8bQBgM2T4OPpIFtOZMpmcpOLLAh+IHg0wR+FCyjnQMxIBWa0xLnWaR7pwp61Cn0nhYNnDEoTPIgTwwyJIbPa9FcgNFLlLuvRbiGBgE2aH3oSRKINQLJXcjbjnByfdOC28Z5IaQZDQ+JRA4YqvxAZzHUCgaj6pBFIg1QxGcX/Be49+frOCj4keCiDSMuGi8B+s7rWAF1+YkJjO8Afz7Fp35+uD8gXLWeAcEMlIa/A0Anxb4KRAfh/h6kA/ytmg8ymfZXfGZW4av4K3TeKR0ou5jfYF8YMoDvgARchTTsD4SUopDPUZYj3modwdk1wz1nppHK3g7xIth/fohnwvg0+reV/MTKajuxjX/gb/cmtAH60sEfzi/Afn/WbwbhrQ7AudTi/9kEFrXWa4AmRKVyzLzoJIMusdk3GOk7+pOjPuk9N3SZ1HKMOtqr+/DLNMEkmnZQemQNHODhoNJBqeRqFAEO8iUplp34DbBLNPKFHsp8tNUtRw41qOpZ8iSL1rcvQwTqBgicZ8a8gRNy5LeWY3XDOXR+lZds3kc9xs1NtaOBVh1TR0mvINXkGEstXgeMk3NJ7xvirx2h+rrP8PbRN29J9TCNLVF66mB7azqe1Z4VJmyvap9A4fw2s+cwqPxtfZL/gw+NDo+eJ5JbWf+ooSOWonu8Cnq26+P41Wvqyp/8Hg5desbHo73w/rTrWj1/J/5hnAfLz9uHyxe9ofD9XvH/L3+wCGPrh9H+PEf);lineShape=1;fontSize=14;" vertex="1" parent="57">
                    <mxGeometry x="112.8908012113691" y="7.944497332372977" width="9.66096395183403" height="31.027538927029347" as="geometry"/>
                </mxCell>
                <mxCell id="17" value="" style="shape=stencil(lVjZUhsxEPwav05Jo/uZJP9BFSa4QjBlyPX36Y2jtTWyG3izd1vaOXta2oSbl4fb5+1G3cvrYf9t+2t39/qwCZ82qrunh+1h94pfm/B5E27u94ft18P+x9Pd8f/z7YJcfn3f/1x2+H1cp05qWVap+3N80iSlfw++HPGPu6czPN5WA4/uOtyLzwO89gcX4U6cG+BBYiC7e4l+wDvJ/joer4MzeEesDxf2L+U6Pqp4a3+L1/EJ9iQTzaoEn2x8fJZC4ply368v0CiNpBcLfBw9iOJIChJej1+IeMJMcjam2CKRIMUiflyQo0S2IEseo1SCOOJ0rD0m6wLkgdRFUmmj0zVJrWRB7XWzJtpJI5Was+iYhxalkjzAxWa+kCW06wuq731+voB8oRaJeTKJRAku/m/edYGXShKH12UkF3yz8S8Yp6tKYU6XXghrptdiubwADT9mOjf6haI2rDlIYZlGbbaxH6oERgJB8hgllCMLK/ohjLWElnLEpIXGxsRF18vx8oJgSSAoJTJwhCE+BfEQZoWLOjFfJXlAmkxP8w8U17O0RlUq4YziJUeDz4T2UBc5WDzvZ0NiiTJ9ibbZsjiSspL66xOejVrgQzZ41poLfmzNQoXCYk82eMaoi79WWSjDB5uvKumNfBkuksLs9zM+M3tQb8naQ/Zf6tnu78n+wEcbz0LqGXgzcIooiQ/wwdYPq8+FNm0/BsJBiE+0/cWkFOIfbP/SfKmVguhHwlioH20f2T92ujmzn/UXZqntL2VzJll7EH/e79GIIkrpy/4WX7j9ebSHK/2P4lPpdLwOACxgStZJGgkREUpsJqEDxoyFN2WjH10IjUqu5HuLrHM18VEPTjBF57iYqJZFF0HP2mzyIXt6xIGCMgcEfJMVUpsaYSlF4nSDGjfMrlTvezcdG2vtsu3yJ8qkTCGfSeagTI0TsJLJiVldn1l5jcDU6PFGz0VLokbR1QqtVwhHc/JqCCzxGsLRzpzcbwuuCccyxrWuJ9zLC6ArRx/Ay42MtTjJNOjnxro6dBmxdgRPdSx2EGILVkzgDTfxBqN6LDDVp4lqI5gUxyYF91FmmoaVVzpNQrYH2kKvCbRZJkt0Oqif1a8SWmpWrEU6/OdLrEgPaar9/HPCVzJ8FIPAFBG949D1zuSEZ4PhZO7Z4YOUnK5j40xMsfAnO0cyFdczfj37v9Oe2g+E7/S30tGs0yVT5eU55avRw8FcD2hRhv/gpenbePw43dDe7x4fjxe85+/tjS4eHW+Dw+e/);lineShape=1;fontSize=14;" vertex="1" parent="57">
                    <mxGeometry x="147.82493195431752" y="12.62250659019805" width="11.721008104468739" height="28.644634598732903" as="geometry"/>
                </mxCell>
                <mxCell id="18" value="" style="shape=stencil(lVjLbhsxDPwaXwmJevKctv8RIE5jNI2DJH39fakaspdc76S5rdeclUjOkJR26eb14fZ5v+Pw+vZy/Lb/dbh7e9ilTzvmw9PD/uXwpk+79HmXbu6PL/uvL8cfT3en38+3w3I8fT/+HF/4fcJJIM4DxeHP6U0iDv9efDnZPx6elvaZUvD2DdgHCsXYFwpx274nEjb2lRrYTysk0dgLZd62r4VyNfYxUSnbgJIpOkAnkW1AZmrdANRlTtuAxFQsQN8kECMNeUwGkAMMatQg2STkThUAhMT6XBo14EKlZO1rJQGsKBTF2GsaC/x+tyTtDL8fAyUb0i5UAS1inRE/0yhPYWzloDlAnUG+nuVIpVlAIwZbSjJptlghAUBulC0tJM24bVLbak3Viog3WODyUCG1S6duidfj1OvWCtECWp9kvw5IlG0elEoRR6lbrjaGFUa1VWzFq0K9A2owVetD1UyDisGRGnsA8oEDic2D6q2jiqF5FQ9IyIdA0a1QsNNhto0FIAGJKsBVvZpJQB40Spw8oCCnmcJqBQYSVU27XqWAiIpAprDaEqMt5VV3y1O01wGF6mqFhvJQKYjPAyxk1Q8ACmgoSrrCqtjDsGptX5EPKU6j1G2pVD0EnDjXr4biKqSGdA+ALZdng11KFGs6Nu+0oEyrHlaaRj1xSHQVVhila5ouiBphjlILwDsr+LBm2HZH5VsBUI/TPPhSeZ7P/rNPDwCqSx8FZP17RQ1EvsK+7bbwXhdttra2NKfY6+MSz1p9BrTZxK4D8mpeYtiydIXqAA0WMvXBCUgYO60ty00zFYY1Rz8Vi1AETutE5rYUg87RqDCF1UgmkBuR5w7OgDJHqI3BONsONCYy4HT0ZNXzE4P2cPZvMS0loOg429mixmSw/zxr3PngUOcEuDWou4hmzFQ9fLkIJX2DGmL3LqcAD3zje9aHcd5CPosfcvU0UcEKNc4cXYgHB/UWvdp0egP2PfghIEFe99X5KsKhW6WbbXPDulno6rIA6jx6+HK8LpBGah9ca5sRuG5/vrS42KMhaThcvT0gnWjC/H5QsVOVd5/ggL4fvC41PuD74/TbnH0BbVbt3S1PgRLo4utchvcFwz46+4QIKv54ridbkF+1b/6WCh0VPnwL9q69Plyu3O4Pj4+nG7vl//6KTl+drvfS578=);lineShape=1;fontSize=14;" vertex="1" parent="57">
                    <mxGeometry x="173.06405608003553" y="12.29186830157039" width="14.121619124215918" height="33.31773427371154" as="geometry"/>
                </mxCell>
                <mxCell id="19" value="" style="shape=stencil(lVjLbhsxDPwaXwlJ1POctv8RIE5jNI0DJ339fWframNR3glyW685K5GcISnt9Obl4fZ5vwvu5fV0/Lb/dbh7fdjpp10Ih6eH/enwiqedft7pzf3xtP96Ov54ujv/fr5dLJen78efyxd+n3FenFtAwf05vwhBov/35svZ/vHwdGHvrL2v4sO2vZeoo30U1W37KDmO9k6a27Zv4kb7IoVsH6snP9hjwbxtj/37cf9BXCL2iEYb7BGwum2vSZKz9sTdGCREs5/IwpltPLM04m+sU/yD1EIBZQwoPAiEENhRMwB8gq2g/XsdoJWuoFMOsMlIgqpBdExCqv3N9Sxny7pcxJE0+CatjDSN0ggvwNOaB0ANnYnXAV7y6EMtkpkwndQxrM3TKHnkoY4A+NBIlLDCqJ2WJBOnQYQULaBGkrhiyQeAEnnGNU0XPiQCSLlXqxWgosTpDGpkG9ZAFFeKXaHWnvvrFS/3vK5capIJNVqR4CxASR4AMOQDIBCnGxKn0wokrK3ZsgpAIkUAgOwtoDGnmy0z1VGnvZtaGxCVhan1yrgCvCh34j/XLgCVdCsAnAGgChBBIBGm3QKgDAAFTXXmHW54bwGM36CrETWcZmUDAB8sILMRAEWiWQCrlQvAJM5xBU2iBsAzfmeJY+JA18Lz4CaNRrZCsY16kRyLElrapCBl5KvSphUi10MsFlDZlpptEJXPDouomwWwcW8BTOQLHJCrBWSu6TApzrFMfxRQUFynRl1ZCyp2nEGTUyLRNGl66TEk02ij2XTFSsfWZSQzXRGljWR6GQWSBbBSiWHDj4m7KOhb84zpEO2dpiVhpDc0mMiWsi1LSENkeZNoph9HXS79YLQSCV9gE5+3DizqYRHKfSBcBa0S2Wlp7R3rXJxoWw9Tv0p8kNZoqQoustEEzDNRUg5YTlijD9hkYDOl9sp+eQJiK6htDqBiJYmL3lax1ie66z43m7dED304hBrtrFG+bu/sWKL0+2FSGh/rfbUDa+052VKyjkoD1ZkDrZf0iwSw7pykmEuMQoWTbRMJnt4yZCljhYeQPHEYI1Wz9plWFtMQkBFPZDnNR7BPZD84dAVrzzpUnOIDwrFbj+mSKvYj/nWCTv7G3n+uE9TOUm8rbtgb/mPFwg7nkrK1Zw3ZW/5jxcZutT54ife+PR7ebgzvD4+P5wvHy//tDSNenW8n9fNf);lineShape=1;fontSize=14;" vertex="1" parent="57">
                    <mxGeometry x="201.9189459088673" y="13.401983039725359" width="18.13022080969935" height="29.673995649547443" as="geometry"/>
                </mxCell>
                <mxCell id="20" value="" style="shape=stencil(7VjLbhsxDPwaXwnqLZ3T9D8CxGmMpnGQpK+/LxeutquRPUFOPbS39XpWoqiZIaVduHq5v3na77y+vD4fP++/H25f73fhw877w+P9/vnwak+7cL0LV3fH5/2n5+PXx9vT76ebBbk8fTl+W0b4cfouFQl++crrz99v+ouPJ/zD4XGDj000Az4rwQeJdcBncZXgnTgH+NgIXsWHd+BDk4DxhEzwVTLG40h+QpGWID+lUHxEfEgU70Z8lMriL6IR8O8bP0iNPP4C+DfGbyPeSws8/x7wie9vVMCzeBb+JMB7Ek+0+Ef+OMkEn4yOHvCexJOz1DEe7Qk4iy+Wnwh4JXqsTZzi+O4yvhXMD99fp+v8/YPaV3R+giw6TuByl8T5FWRpoyJNMo0soUScwUgYiAelJr6NmmnSiAiizTCSOnspZIbFRMYkFcszmcE5ieM2N5XCeNpZueIb993+7wafmK9ISohnPuGlKuIb0bEXdROexG+qylM8JD+KslnWS+I3m5jid4SlkwpalUJ0qchRwzNCaFfhii9SiQhUakF8JPvrpv01ghIf8thGGN4xX8cyv+DJ/loVmsZnGrYq1xBfSH6ilCn/rM7HKZ9VEo2nTHpUZim9K9ngmSuG7jcbfKH61Wn8Rsa3qjiud2P0lwg0CaYSwWuX6wafqcCQcKtrXxIYCL7SxkknA6qdUpcMAuIvtGZol9MWT9ZrdIeyagZEGsvFQUcFlCSJKCCsNW4tYk6UlcmEVS9W2jvldUfXQmyHBzJD9eJGli66IDNYUYSy55JE1t7ErvJ1GySQrLaAurQVEBbVij4UaLtbptbDCi2JJxf0lUhtPRWs86nr9LwNVdyyTFn3Lx7fkA//j29j/j3g/+rxzeN1xGoxF/kPhkLbbjvuQV/gKD9NjxmPk6zKpIp8szrL4mnIB0f5bHjwE98Ffd5/FMf3tMgYftrfxvxN8Xok0DbI8MEBvhG9p4bHea4vw0c4GnI+VDzOW9HkeKhHifL5vdd3b+Pt4c9d4d3h4eF01bj9H+8W7dXpXjJc/wI=);lineShape=1;fontSize=14;" vertex="1" parent="57">
                    <mxGeometry x="238.51430120302783" y="12.760679967281451" width="14.988313653540828" height="31.09780648258101" as="geometry"/>
                </mxCell>
                <mxCell id="21" value="" style="shape=stencil(lVbZbuMwDPwavxISqYvPPf6jQNONsWlSpOkef780DLsRU0+xbz5mJHE4JDXI3fv+6W03cHi/nE8/d7/H58t+kPuBeTzud+fxYk+DPAxy93I6736cTx/H5/n97WlCTk+vp1/TCn9mXqQYJhKHv/OHFknmL48z/jAer/BKtcfnRrFu49l+c0dIgQLYINmJtCNIoFy2CTmT5o4QKwk4Ui2ekGEIWqmWDo8j0EYpOTwrwCuFfv1ICQRs+NzjhQSv39TF29o2PoY1vtUUVJBANxtEiwATcusJQgqONEnkCJb1hHNQvSkiIliS1RNgDNUbOxYoqxbK4mNIAglBvUrQSJZXt0OggpyUfdCVGhLJRO9VtcqJMALpK42XUtrCeyNRQApVL2nA52nE7PABCdqoVYf/xqYpungLxjfXTSmg8yupz1dF+uhNa8S9VG/au1ku4t7Crs4yCdqhLYpclw2u5ODqrOL2+L+Eai5yLsVpy8XbQhIpyJvNNFc3qVEGstqYjX2LtzErDHo2E/fOq2npsV8SZBF9wZtsAtJgI6Zff/J6BhEsxvx0Hp6aTFH8BgqyFv0QNLyAWlg7yVXAEQQQlgSt+EIJCGoz3p0nwe4e/NBXXq5iW3g3k5UKPL+bmK0Sw/XFrY89HZbdVzyTgvW/umiiYfb9xdQePm+1L+PhMF+Kr//7W7B9mm/Q8vAP);lineShape=1;fontSize=14;" vertex="1" parent="57">
                    <mxGeometry x="237.31833433841769" y="25.832032932155965" width="17.492957116748876" height="5.166683444358748" as="geometry"/>
                </mxCell>
                <mxCell id="23" value="" style="shape=stencil(lVjLUtxADPyavao0modmziT5D6pYwlYIUEBefx85W14szW4TbovptqVWSyN7l69e7q6f9jvhl9fnx2/7X4eb17td/rQTOTzc7Z8Pr/Zrlz/v8tXt4/P+6/Pjj4eb499P1wty+fX98edyh99HnnRqvLCE/xyvJKVU/l35ciTcHx42hFyoiSck4nyZUBIl/wQlYYDvNLLDZxogoKpUqw8I3r9Vas3hmRjgVSilgB8I30hTiF+BPjooe0E7sVzGd9Oz+3wziQKCkA5PsEd2QCixYlKpoydUKj6knCkPQFAaPufC1IGoQ4i9qMXKDlwxGjUfUjXjgjIkPtlgZTShAhhjROMpU26AYBH4JNR0QIUwXb1V7UoCBDUneMIwXUEOdVDzOYyKu9lC8pUbCu1tbu6+nU23Bsxk4yR4Y1Oa84zYEKPDUjNpifgKOs6qqhGfE8IniXik6WS8RVKQL6932+AzUJRJUsQz8CmvapzwjTrMNwzspflAb6Z1NmzwFTmCepvuD+olJD3iFeQrsS0XfYD+Mjna9Mf4EfHIn7KqvcEPGH+d/C8V6jP5v4CpkqZ4+qrYpfpO90d+sBE1xY/8wFRGxKPTxvpxwifcj9OIw/7nqV5IT14XrA0+wX4s4f5tVezSfJv6q8H6ytS/FeKVJzzQ/8N4M1yNAg18xsQJrXBClBK3Azv2FBCqOTLUIEMP6ZR0H8RoJcqxa+yKgi6YVyLFY31xgVfJ9hW0KZuI4eCwjWiAHGzBYZ9Dratu55O2RdRbr3R4lNn+wz4He70QtEJNw9FW0wZUWtZr3z3SKIGQbH8P48vWa1Q4tekc9vEMl197o6hepb42yHl8oeoPzApfEMyr2ddZ4BtOOwnyhkfWtuZRH0+GW2zl+DpR4RJbMnEP+qBxkTUOvCRwcc/TiZZsHgCFjBBsagQ0X/K0kxoBzfh8etXYENC7hIx1h9jYlEFvGqFOObzzhNA57+Sw2HjKQVFI88cKXAcjhKPTCAJWkeUk8Wd/emf3OkdAh+2ZkGxbwDl87AvNfxDsx9sHodvD/f3xe9L2//EDkl06fnzKn/8C);lineShape=1;fontSize=14;" vertex="1" parent="57">
                    <mxGeometry x="29.565962577919592" y="98.39827202794724" width="24.73153537766909" height="42.32630414031941" as="geometry"/>
                </mxCell>
                <mxCell id="24" value="" style="shape=stencil(lVbLctswDPwaXTHgmzzn8R+ZiVNr6toZx0nbvy9UDV0DNjfNTZZ3RQCLBTGFu7ft0+tm8vx2Oh6+b37Oz6ftFO4n7+f9dnOcT/I0hYcp3L0cjptvx8P7/nn9/fq0IJenH4eP5Qu/Vp6nXBeS59/rixyppr9vHlf8bt5f4F0gZkUojjIg+EA56hMqZR4TQr4iMEU3JiSmpnOIhVIdE4rkkBTBZyoghybf0wQm1wC+kg8WHyC+FoV3FND3G0Wv8AGKJvhqROsBjvCt6XgcTlgIJoFEwUNC0RVyjRzQTAhehyStGzKsadE18pFShATOmpAoopBKF+mCwKhK0mW6SqIb6mwheENgyqisiZpuVJe7lCNCNTp4aqg1Uv+7EypuPUlBuzmRK7hGRrYu/FAEa7UEpsuiMhs8Y3wuBl+xdbyZLdSQxGIEHU8mxsYxCou3QVc7ZpuwjPCGjNOuWqL0M4fTyBjHUcQ1bUZjCQlb05r/k/FykwBkkCvByJB8F/L2peO6Ec8jVbwMGjUUck4bJ/d7a3RxmktBvMGg9cS5SetwIf7tI8jrkJqMSJCD5Kw7o0mMoKrOptzkRCAb903iXCLpdhA/d03/s6Tcx/MZH+DucmWdKm/w97UAJcNhxHZWSA85iE960Sk4Hkes65NLV3CAT7qns1wPqEVtPWV5RJfHV5fNz/Hy8G+zfZl3u3UxvvzfbsLyat2iw8Mf);lineShape=1;fontSize=14;" vertex="1" parent="57">
                    <mxGeometry x="78.13434925259511" y="101.36397256317298" width="17.670908884494626" height="3.540994363590601" as="geometry"/>
                </mxCell>
                <mxCell id="25" value="" style="shape=stencil(lVjZctswDPwav2JAguDxnLb/kZk4jadpnHHS6+8L1aUjgtG6fbMlrAgsrpV2cvPycPu830V+eT0dv+x/HO5eH3byYRfj4elhfzq82q+dfNzJzf3xtP98On57ujv/f75dLJdfX4/flyf8POMkUQoLKvKv85VInP9c+HS2fzw8re2Z2mhfKPG2vd1uebAPgaQBQKRaR0CmmrYBdru4CCK1CABMIY6ARhGcoFRHe1GKIIREhQf7xKS6bV86IRf7BDkNQrGMgEKKkhCojZymRk1AlhOFEaDc8/h+yNVnTSNF4FKe6k6FcgEkVR+0ZoogzbX5NGujCk5omZIMAHOygqADM/GY6cJUAa/NPHAAy1wFAO0sdkBNnYf3oy7eJeOhAJrMAU4DoAlMdVZfTEYcKiZLrIy8Gg0ZuLSMgOwBDc+MkDygIkAgjZNLoEUNwJNLgmJgPzRahVNpAQQPuNLULB4QMCC5xBUqINPLKpgAeiVx7AFwOwhpmgABAKz6ZXIJ9IMBPK0FtmicOm6hFdWSkhQPyCgGA7gTWk/lFoAnwBWWUvMANAQsD3VqINTTBggjrathuFUbniY7AmxdK1e315cgMCBMUScE4L4P1olADcFUXENYqvEJberRiHg1cTSXK3IpTDHgjWJ5+KtF1i2Ha8OXa8EKTro6+keAhj6GVoAAmtr2sh99iRSwVFIf1heA8QbmfRXPki1WtIIa+61oj4jApWWzOyFtecCA7LRD6FfeB0zTOGd4Qs2UxxhyhBulZD9ctVIB5Z2lt8taxCEpXX1Pa4JvAyI9xLWuBOUdbAqNLJlyRdXa+hpfaWlFw9g3aFI4lSZNaW8PAko1eHVl4h1Rqt6fiBdiiP6ART2h1xMbcWPvBO3KY2skud5ZXtHQWM2+/zOWGc23v2knNPJaX+DdnikDSu2l2Glohv6YvRZnjySGhD4O3+wZlITZO/GJd7NEStPzcZM5YWj+o48GlxZ8sxcw362CndpmuGbNXrw/DT/fyc5LE23au4rur/hb9v/3UeWqvf14+4Jzf3h8PH8AWt/3X3zs0vlrkXz8DQ==);lineShape=1;fontSize=14;" vertex="1" parent="57">
                    <mxGeometry x="73.58985411547097" y="103.66990871854338" width="15.618748858351566" height="33.599355649352816" as="geometry"/>
                </mxCell>
                <mxCell id="26" value="" style="shape=stencil(7VnLUiMxDPyaXFW2ZflxZtn/oIqwpJYlVAj7+PvVbMrJWJ70wG0P3AJRj22p1a1xNnzz+nj3st0E93o87L9vf+3uj48b/rIJYff8uD3sjvppw7cbvnnYH7bfDvu35/vT3y93U+T06cf+5/SE3yccC0WeUMH9Of0neor533++ngBPu+c5IJP0gOkRAQJy6AGeSsUA1wFCoRgBoFCIPSBSKdcB0VE0K3jyAgCRcn9onymBLEkgTj0gwrQmJpEe4KmCtOZEbLbkyKXrgOop9XWolEGSaqVkFggUwALe6QaczZJHW9IH1r4Omgawp1yJewDrI3Bafe7pHSgD8mmla39qiSSgDkGPWDpASu0Ry2mK5HpALpTBGSqFvm6ltI66Em+YVAVviK0E1NLYew3AzgIyaB8lTumPrOTy4AgT05wFIAnQZgnDCtkjspKvFoBUqVpua3wF8SpiRgAu7bFM1aFsugA4gbSEzE8MUqQ0HlMKeo2bOsxrhoyB2MhLoQLOy01xZ/HIRzQbA609qrBYoyqYpeoBtS+ZNibKkNa49OKSBHunSnBfM1HfQc7mGsdmeoecjZmSsRFpXrfMCm/VyEPJ1njpj+CaNS7HB4rexDNIUVQDqCYeKcWk19nEoy6LyVq/xqPnZ+v8Z+FYjlfSBxOPOBRVrZOJLyg/1XLOE4MuiGcZvMRnVN/amupsybDr9bw+mHjB+S/JxCOdjkpfsfEon+qu/JHnh+a979y/b+PDO/Pjrc+s5N/b/a/UV7+2/Qj5E2y/r/BzGKBW+D/YzEp/iZ23Vvo3t3S8Ux/KuB/G/ci2H6G+VdvvK/q5EJ9w/34sPgzvEdIUe9kx1Fd7QkwWg96FnFVENTGUUn2fc31K1SahiXk7X+rc78AZdLYxZyi12cjnyDsbeccVPkfe/3jkVWnuE1oTfMUf3r914g3gvGK9Jme4f69m3wO0kxPYEIud5oTh0K5fhz6lEftfKnYe1ZkZcUKlxBiOOngAKxSxre91hgGWUNRizYimQwnqm7OkzzQbiXziNkPPLloCWEEyiQFUyDytQ/E2Sw4VztvbImUXMkJxw+ClpUQruIW7H+QK0+g73FRmNFsU+y5xmfauAVLfoGq/jKeXOgDgOJio9vS+DGTX5ilTBwXAAS/anlZAQocO7T5sBkD3VzowlDoAQAPpSMLDlgTfSY9ZQnXg1HRuVgd0R6bMsdQI2ErEeo9yCZnnxy/i1wH64XLv/7B7ejr9bDD/3v5OoP86/cbAt38B);lineShape=1;fontSize=14;" vertex="1" parent="57">
                    <mxGeometry x="117.38739449988644" y="105.76223623322235" width="8.257803612549191" height="32.049497552739886" as="geometry"/>
                </mxCell>
                <mxCell id="27" value="" style="shape=stencil(lVjbbmIxDPwaXq0kTuLkudv9j0qlC1oWKkr38vfro6MAcc4Z1DcKntoe2xMnG3762L28bzfBfVzOp5/bP/vXy27D3zYh7I+77Xl/0U8bft7w09vpvP1xPn0eX+e/318my+nTr9Pv6T/8nXE1knMTKrh/8zeJyvzF99n+sD/e24u1DxQZ2DNJNfYS1u1LoZI7ew0wAntPxXf2mTKIXwLlPh7vKIGAsm8/XwGZYlkHxEox9hlrCsADC4XeAzOlvA7QFH3qOYpUQdIasfSAlCmhKhMbUqWVcTln4j5lKZRB1YItspbdgXgSpdLZa9t6DxL2llLt2whq4AuFPqJayIO+1ho46QHaeKjKsTF+BXBjYZnTQKkvQnUUBABKS/HKam5ZLbPqqJoycOusZQ9KYh9SCeTQLOiwD4AICs2pkXgHKKDzfCVXbdIJFE4rnQYAUgwFuDJ4ALR6GXLIjbc1QEgW4EGlFeCMB1VtBMhUowVAltQDW0BALEnrzSvggSYpS8kCMqJVBzJYAFJuBWS2gIh7yQ+AhGitrRHuAAIGSAGlWlodaI3grMwogJEuuWEedKRwDnVoPqTFCsjZAgIQAQWM7Y1OUC2cDB4SKlxZ8JCQB1nwEPHE8Zg0FgGrGokqCikPdUhtQlYBgwfGMuPHEUW0ij2BpvbGqmFziI+k8msAPR+CGVHXjpi1E4irBaDVIRYrAlLh7pOCXX6mkBBAtzsD4KZUa+d0NM0nUJd0HfRm19A1GexjSqtZEGuCHnT9KT1Lui9FXOnSd6t3DupMHdafAg+UYI843REFpODsRUZJLWjerNZLgbtPbhvw3Q6NpN5r0XoH6UEN2J6gUTdKvILWnlIOTTjX9j1zDwjXpXS5U4eiaVYoJHHDTQCKno6WkVWsF2XQbQ8VTHdy13P6oElru/3e7OFe5Ya2Y2JQZL23eHu/rcg+W0IF7m31ui3f7Bl0tdp7c9WDHaE6IsHao/hV4Ku1BwXWITe6InDHq8M1TPMFDTddNG086IqkDWROtNyGbs1+fL8ASj29p4ixh/FzE/6bvUP8f/U96KG9frg9Pr3tD4f57er+d/tYpV/ND138/B8=);lineShape=1;fontSize=14;" vertex="1" parent="57">
                    <mxGeometry x="209.35046893127793" y="102.10743166136228" width="25.218052332260477" height="46.30141136647917" as="geometry"/>
                </mxCell>
                <mxCell id="28" value="" style="shape=stencil(lVjZctswDPwav2J4g3hO0//ITJzaUzfOOO7194XqoSyC0k7ypihYA1wsDmoXH94PT2/7XXDv18v5+/738fl62MUvuxCOr4f95XjVp1183MWHl/Nl/+1y/vn6fPv77WmynJ5+nH9Nv/DnhktMKUyo4P7e3vhAufx/8/UGOB1fF4AcKEoHKJTctn1x5HxnH8h7YJ8plc7eEQN79uTE2DsQDxeq2f5+2LavnkIfTySpwD5Q6uMRqiD+6iyfnmFAnCgbQrmFuMko9yeo5BikONkjpEqStgFJJeM6QBYqIKToKNReRAqQbYAXK1OulCIAKK2pA9RMFQASxdinzTfaVu2DzYIkYqA7zVqfBCkUwInFyk4Y1o0vJNkCCghI67aIBWTgITJJsABUatkNnGYqoHZKJGcOHSGANacmJA+7RdVS6dNQBbIkWio9rbWQByEpwNTCBMAepAwAUG0iFNkCoJSkcbIAZOxBogVUUM/ezU13RijToIutuFD1IV7HQ6geEa9KU99jaiUPDrGSiEoRiGkl1QrInxJTbXpcB3BrowuAQywxxWJZQuNn6ipiAajvTYDBA9Q3N3EuxMSIJW7iXAASBsig7wB6vcxpWpYcUmttJC4BiFZt38MZYEjahgYP8NC6VgxdANKqFTdkGiZOAWwBUBoa0tAEKvYwFhCUtzTWP1pAnwVMTWXYAxg0V90nTTfWmSUg0zrkyjAVBYgvzwvqYu4KyLSud76ndeqFwIOuAhwtoAKWdNkwzXgxAdZ5bWJeeMhoO7EVOvVOYD/MH13HKkhbaCN2tnetN2/EH41SE1y6dYk30+d+8VgPqLZ5Oa/EFfak5CxFGc83vbkZDwkvfNM61ssiFljPehczd6uAux6zlYXyFpAHaVv/XXjt/rcOqHZDzLCHaZZcbz+TsHXk3Aek9z/E6dAu5p133d7b0kxQFTnb+Bm2L20uZlD5CJtLGsaIT22F2AIUtoAImrwCTK35BHU63U79AACkKiCPAHTB1cqKFpAQYGZ9AUBz516KC4DDHqIBRGLsITgLQKWgAF8twCNpsL2z+kAVn+FzH58+ANCH+7eul+PpdPtUtvy//Tamr27f1eLjPw==);lineShape=1;fontSize=14;" vertex="1" parent="57">
                    <mxGeometry x="242.55342519493215" y="105.9964570690892" width="25.40612389724426" height="39.32442723661283" as="geometry"/>
                </mxCell>
                <mxCell id="29" value="" style="shape=stencil(rVfbbtswDP0avxISqetz1/1HgaZLsCwp0nRb/740DKUSPZ+iwN4c55AiRfLweJK7l/3D825i93K9nH/u/hwer/tJvk3Mh9N+dzlc9WmS+0nuns6X3Y/L+fX0uPx+fpiR89Ov8+/Zw9/FjjMlP1uxe1veZKrLi+8L/ng4dXipFHnAByplGx8duTjgmWrYxicmP/r3xMB/juTTgHfEwH8pFIPBO7eNr5l49C+UeBvv3c3fLQFHBZ2QiMeMNSSPUzAniJ4g8I5iHWvGlCsogqMwNkWMsAohkMhgkLSvQA5cKI3XmisFYOAj5dGgVPIRNCrFMaJaW1IbeL/CZ4BnSs7iK2gMXrcF7jxPUlcHpG38rQf6BECRHUmx+AgS1qZcJexhPCbhWijnr/gvJBBv70fnAhRA72ccfB3tDBrIU3AWH8EMcDu9x6MRaDzS4ROYYmnt3uEL8C+W6PR+EK1Iq06HR/0gjdU6PNwcLbuufxj0pzTG6fCIeW+U1uEL6E8m9hZfQTzekuiMB/3gya38o3icXaxzvnge8+o+QTxuFY/WC/DPanHP/QDxtl6lUep/wXuxCRQ8MBxbP952TIYUHbTEY8opwZGJ2RpEgTOZmeJYND0zgKYrgfI4xaysDqpcdQzMnsG0rvIjGMHlW2f92yBYolAJBiJSucIjnklAFVStGGJkKCVUMdYRr0yDFKm3CjOSAP/BNVr4UMgM9oYWyCgJFYCCiEi1ULQGSAupgdG8swEKKbcb6UNCuyw3Ed0ZIFnNqXFbZ+DQcCY7CRWqA8XbdU/hE7yhU6hWZvwYT4GTPMcfDB5ue70gw16QrbUCvhi8Q/F/8Tvuc7w+fHw0Ph2Ox+Wbs//ffmTqq+UDVe7fAQ==);lineShape=1;fontSize=14;" vertex="1" parent="57">
                    <mxGeometry x="287.3407140303337" y="103.38771015089584" width="19.817425202906826" height="37.56610185182991" as="geometry"/>
                </mxCell>
                <mxCell id="30" value="" style="shape=stencil(lVbLbuMwDPwaXwlJlCjp3Md/FGi6MTZNijTtbv++NAw7EbOabG+OMmPzMUNq4Lv37dPbZgju/XQ8/N78GZ9P24HvhxDG/XZzHE/6NPDDwHcvh+Pm1/HwsX+ef789Tcjp6fXwOb3h78zzxH4iBfc1H5RAcT55nPG7cX+JT1RKQ5BAofQJHKnUhhD1JPcJMVNKDWF6hfQJwhTaHDSryH2CpsjcEPIS4z/xtRC7Bu/IOYgvFu8TwFcK0uA9ORRPJYltwpRBzxRf23i0oBH02K35nQsUQMumD7QBVcqgAXX9e03YU8Uf4FZ1nikDTWgLqvlCXIrQI8Q2BVU60nXNNmePZaqE5GwOgtqcyYutEnJOFarJtEGQLsTqImOdZnLB6Ai2OS8VPOtUAsTLlQ/Q+wv5tsluOejhxeId9o33Bp+RhiolNvl6jC9s6nnD99XM3kW0/4lXV6D6azxtf1VwN3yf2gKppAM2vmuXgZpGsC3FfEFtiTT6U4Iug2xEqjmAKsk6edb9JLCssZDLDSFhHXGyk0LUCGAWebFCyoUyCCnYrT+tFDC7vF36FyuiQzDT9KytDt5Mlsl7QEjOToppHIMEHLGZjGodEL8OEhN/pATid1fxB2jNqwVbHdw2zvqmlGU5dPBm8hZZLkkdfGrrWTRfGH8110aGLvvxNfMmXh/Od9qXcbebr8SX/9s7sB7N92d++AY=);lineShape=1;fontSize=14;" vertex="1" parent="57">
                    <mxGeometry x="288.2300271069987" y="121.63384148847517" width="23.815276935966" height="5.898000582314598" as="geometry"/>
                </mxCell>
                <mxCell id="32" value="" style="shape=stencil(lVjbchshDP2afdUAAgHPafofmYlTe+rGGcfp5e+rrYetEd4T+83ZHAlxdCQEEz+8b5/eNlNw76fj4fvm1+75tJ34yxTC7nW7Oe5O+mvix4kfXg7Hzbfj4eP1+fz329OMnH/9OPycPfw+2zlydTYK7s/5g35J/t+Xr2f8fvd6gfdUQof3QiWv44Ui9/hAXIF/XSB1BoUq8O9rC7fhE/mwjg+VXO4DIk7reK7EscMrY24dHzNF6z8C/4kpRhO/iwAvjY7Fv4MbSJVCn2HNGIMVRAXgekkEqiBl4hsjzYCVI4YGRhSciZEBE/dJjhoSUKmURuJiINAgR6q9rpPuAeioaEh9HpKGVNYN6lA5msoMElcz1b4SlDe0gnfOJkJ5iCBzVZo2m0FOjenru86UpK9OD8tZ/RkxFSHBYpJerkpcQAUXSfpU664CoCkwpT5ztcIKyrZCL4he6XkmcbpAFYQ3HCm+IHWTjxafgP9EdfAfUI+xSq2FCmB09F8ogdoZ4y8wxSM/S2ncyH+mAvwPCVZ8Bnzq6jz4B3wWYrH7Rf2xkBSLZxC/ZmfwLzCeYkqsQj2XxsaNBaNNp1i8QLwb8GimyCTe4tEBlcnfhZeho+B4pFXTjftNrRvcyKfWI1s8yle6Uw9iD8tP9CZ36lnPOaM3XC+59e+b6/E+/DzPZGvgQQIiD4qOuGM521JKJY+2wHb+KJEy0FxJ7WRfju5KGZBamaTftM48EexBOXF9SDpNwBVS6/qLAcNpojryZoZSoaLGGJrOFoMEK0FpNdJIHg+OibKZNEsb9NYyzf0KKpaEDtfSav1i+I3IILeIL8Zrjw1in4fAcCLSQXS8IqADNkV7guu1DWVaWTe3KGk8Xy84PfINSVAYekvLvZIC3LEyaGZAbleS6x3D2yzndmZdH8Ujub5F6i2tgJGotnay4BnqNFHoU+xza7LXN0yx19C8IyBrtv4Vj460YEeu+aEADeEkwx3ToZZNwVu8RwmwR87sAfDv7ZE2+wd8OnuEz/FDvAz8o/xqVxn5h/79gI9gv3qBGeJBzybDzVK/oCvKvc9Kn+P1x/83rJfdfn9+Arv8v33z0k/n9zJ+/As=);lineShape=1;fontSize=14;" vertex="1" parent="57">
                    <mxGeometry y="193.39350598205993" width="23.306086477211398" height="39.170140074464165" as="geometry"/>
                </mxCell>
                <mxCell id="33" value="" style="shape=stencil(lVbZctswDPwavWJIgudzmv5HZuLUmrp2xnGvvy9UlY4AWev0jaYXwrULcOCHt/3T624I7u1yPn3d/RyfL/uBPw0hjMf97jxe5DTw48APL6fz7sv59P34PP9+fZqQ0+nb6cf0hV+zHVMok1Fwv+eLkqi1vzefZ/xhPC7wPlIM2iBTKtsGIRKzNvAUwrYBF/LaQ3ZUgIfEVKMyiI0y8CARZ6cMQiPntg1aJp+UgUTkAb6QiwYPv1+oWTxngK+9IB3vqSB8o6h7EMkliK8630ytAlK4a37XgBwFHJHx4JlSxCloVvhMEbBiqlHWBnKDkl41QbrgUUjSZbYG6Q6NtAffqIC6ttRpsMjBoaTjihiJEkODaEIKFFGVRM5NGTTy2EHWRZL5gvDJSo3J4xJVKwWIz1R0PK6Pm60mZytNiK+UvI0HzFPhdWCTb0AcEsZEW08s5X/KXfTrDl7HMxECUa7ZYTpRDntwpkJCatSy2vfFUjaoptXW9I5BKX3nLTaIRysnUtM5FNeFdHupVYpaydVTA32Wtgatg8bEaAZHO+PfR+btkOzmX0zx2yFRrNZBBo32lqnSF7SWfWfBFY+3jgxbXVKZNRVsZdeFeMWHXuMNvNlptcEer/EZCmEVT+VesY/lKxRCJF3Vs1yV97F+iSzQK2TFB3lXMdLAfz417+Pl8P6ufRkPh/lZvPzfvoPlan5D8+Mf);lineShape=1;fontSize=14;" vertex="1" parent="57">
                    <mxGeometry x="94.627216481637" y="195.06457333447892" width="13.202684842648074" height="4.429495169986613" as="geometry"/>
                </mxCell>
                <mxCell id="34" value="" style="shape=stencil(lVjbUhsxDP2avGpsS5btZ0r/gxlCyZQSJoRe/r7aZgxrOXs6vC3LkWJJR9Lx7vjm9fHuZb9L4fV8On7f/zrcnx93/GWX0uH5cX86nO1px7c7vnk4nvbfTse35/vL3y93C3J5+nH8uXj4fbGTRJEXqxT+XN4kquHfi68X/NPheYVnIU0DXqgywEcKYcBrd3AVnyqFOOAr1QLwmdqIj5G4AQMlqaOBUFBg0CiMEcdCCfwC5ymlkbJsGwhTdgZKXLcNMpOOQVuaS942UKHWRgOlBgyKUnVlTqSgDrVSGo8kjRQE3YwHeTDIhRgcKYYwUUkpgjO13JnQDYrgIMRzoyYKIIgSSHU0KFSBQRYqY6mbdAJvsU9Gg1UerltQHAvRaqfX9bwSq8cL6NBAJXl8AhEESs5/gREH326Gz6A/Dc8eH0F7ht6873iFJbN4i8dnxNOevRWegX+rV/X4BPwnajrhAaltVkz+UX1lqpd2km/gXR8bvoHhZfvC8bPA/MjEt0IF8Ef66FzxM4B8ct9fKzwD/0xRpn4B8Sbi4vFoG0TSMPkH9Q3U5n6E/HdDcckP7PdQfP4VxDtN6aW+sN9n/qPVFChP/atwvsUJL2B+ximfuL8SlTDhYf9+Em8bpfmEVtCQ2dSGi4ApgYi1kLgtZosVGNTgBYu9QZxowQdtmxiRrk0aShV2WZvGaMZrzHa944XlLQIeFWt8J4kE/oLaZh2D5gq1tSkmcSqN4ajg1ifbu3CscPfx1Jw2ziC5U++td/lhaUXbz2Jwelwgvc3AzetoGxqkdR6oBWq0RfCPWZWueLZuLNnlqNfxOr5SG88TYLdZ0dTj0f1DghcUWP9J7KJ4hQe8NrybL6FvuOv41Dn5gYf7m3t4H3hF52cS7x/pRcM7DR67gtnEN4dHN1JhH2/sBd/Cu5sQ5o/ls/gbeEb66ZM39v/j7eHj88DD4enp8nVh/X//OcFeXT5F8O1f);lineShape=1;fontSize=14;" vertex="1" parent="57">
                    <mxGeometry x="91.14729528195319" y="198.3860718963444" width="14.95177607976419" height="38.435204297864864" as="geometry"/>
                </mxCell>
                <mxCell id="35" value="" style="shape=stencil(lVjLUhwxDPyavapsyfLjTMh/UMUStkJYaiGvv48mWx7GmplOuC2DZFtSq1v2QW5eH+9ejgcOr2+X89fjz9P92+NBPh2YT8+Px8vpzX4d5PYgNw/ny/HL5fz9+f7698vdZDn9+nb+Ma3w6+rHkSpPXhx+X79EJQ5/v3y+OjydnhcOMVCqo0OiGPcdhKKO9kyR9+0DhTDYN8p135yJ42CeKWVwfLOXwV4ogdNzoVjG4xOnffuUqIzHn+PZtM9CXJw9Wr/av7M7T5Z9+yZUxnIpXD+GVf6t4gLq1TJV55CpFRCCko4hcKIKapYbtRGjkigATKj0GLuDlQVVWQrpiApVCiAGQ01uI+wUxmBdFUacFu1R7QG1jMCwvIUGHDKVcYc2L7Edg5I4hwIrnYLnimZoV+CQKY+9X2tng22HSmVMayn9y94OLfk6RNAPiSmPMag1NNjBoOb4SwQXzpK47gcUNMnYoalTwo75isAQ8JKPVyA/KqXmzBG5G+ZcK1MFoVafGu6Y3aYWX1zuXbed+UjK/jRgeWuxml2wAZw+WqZ96gXQkAmj+NwXbM9j8g17KF5bTpy9ovUt2+zsG5L6SDLmH/dW62SwkBpgXjuyFuZIKUmbMw9AyIzcsou1wDZRpxhQMKxSPpNI5W0xDxwFhdUV5fTtdjKz6qoG8l68sBgsQCIbJb86mscMNE7oGCbeQJnUnx7ZW+pWyUH2yQ+IJt1oAPqgvaXTQcHoHqqosYKjWNsBgEdnVlpIFhx/SqeBhSgGgAidR+yF7CII2Q5OVUzYEbVp6Ew2jw653yO2ZTd3anofQ/EkHasPolWou7nXdbY3rUOV9hefmro+7TS9m4tt4hMg7BOy12UDARj0xE2t6V/DT3UsJ/BIBgzPRAxzWqTjZu5mwROB+KnV2kfR7SH3EGcHfCOrkZoDN2zoYmQ98qN2RtiGEXfZWsxvCBbNEyTWDlGPU9zMcUb9e7wV9Y2xxerChypg6znGngYvcCKTEKf05oDuDRL8IGcqga5jEn3rTLICVMFgzKtXiYZuiPN6swMe/mT10BBxJ0wxuCMlfDMJHqjmAJ9KmhcSc2hgh4lgXFpxLxg03RhlDkgMJ3HVDzl89L3qPxzsx/vz2MPp6en6urb8v39Os0/Xpzi5/QM=);lineShape=1;fontSize=14;" vertex="1" parent="57">
                    <mxGeometry x="122.68530094856952" y="206.56338516310936" width="7.193796092846576" height="35.04198887245821" as="geometry"/>
                </mxCell>
                <mxCell id="36" value="" style="shape=stencil(lVjLctswDPwaXzEkQBLkOU3/IzNxak/dOOOkr78vVI8cE5TW45ssY0U8FgtIG3l43z29bTcc3j9Ox+/b3/vnj91GvmyY96+77Wn/YVcbedzIw8vxtP12Ov58fT7/fnuaLKerH8df0xP+nHGtUZAJxeHv+U6knP7f+Hq2P+xfr+0jcejshVJbt9dMuXb2jWpZt8+VWur9qRTiOiApae4AnKgBjyRTcBEIlboOYKbUn5ASRV4HRKbSx5AzCXCpkJTOvhSKwCMhjZ292hMEJJWYO/uaKYKcNlJXM0uBgoCtBq0HFCqgyqzE2gMqFXCC6EyCKwCDFKVMtY+5Xe4s50iIow86IIC51FetKiSeAWJ/Qk2UMwAYzXriVaYYQNCVtHdJGxVQaLGsswcgahuVtJeLGqmhShvTio8hAIGx7s33Alw/33JJKLMHVJAlA8TmAQVlSbyoGgAJwAQoHhABNQzAzqVADUiAAYp6gKIT0hB0wEEn0uGEDHraqCEDoAB6G6DFIQYEMFlMHoCmjwHKQI2AZkMhHQCCuLR0AhKBhRji3OWrWRr7Afe0jB13o9Ij4AaX6uAS7gfPVmtRxCWZp8F1i97bcWjGLfY0444bVSMgtpouuROMrQiQ/FCcGghR416AzQcn96owrTn6E7TOUa0NxTRkKYGOK8EvJ9MUBR1nAJ/WClfWXPzYtU2g4RW09Sc0ncmyts04l2wNV8Ql213clh4CJFNMc89f+ZRRXv2OaEEjqYzDEL1smYv2wU9pxTsue2EtlgOgMW3ejC47d5p1cNn/NkvWZasXKAASvUfCUFftLcGlaNJB9O6Tfc1ssUarj/IgxHA01Oa70/ZJQDvb4l2vBWxva31y9sh/s3fygkk97fzD89F7TPUlC7PqL9s3v6wGWDCzz95/Qf63Wc8/7RHlzL55f5BcX4nCJwA18XSAY9ytBKm3Z9SUjZK3T6hg936NuGlvF5+fPl72h8P5y8n1//5Tid06f2aRx38=);lineShape=1;fontSize=14;" vertex="1" parent="57">
                    <mxGeometry x="221.64303917310266" y="194.95706760062126" width="19.381326828497272" height="59.48023053945928" as="geometry"/>
                </mxCell>
                <mxCell id="38" value="" style="shape=stencil(lVjbUhsxDP2avGpsyTc9U/ofzBBKppQwAXr5+2qbcbqWN4fhLSw6uzrSkSx5Jzevj3cv+x2H17fT8fv+1+H+7XEnX3bMh+fH/enwZr92cruTm4fjaf/tdHx/vj///XK3WC6/fhx/Lm/4fcaJkJYFxeHP+UlkCunfk69nwNPheQ3IxHUAKBVk3yjHwb5QDdftE1MeHUpUwftTpTK+n0nbdfsslNpIuD/YtldqebAPJPm6fSmUxNkHwLcycXT+NOBPzSTFxZMV2tfRH0twBgE1h+JI2BigDJdELQ0ACRQLCKlldExBspgCzkm6JDsgRwoMRBeIR0CJVEAWoql0JF1Df7IJMFWMWau1k9qmQGl0qAmUHXsCrRILYExFR3slQbKgymMVRxIQ0ShdlReAkERAgKmNutPchbXNQHyj0AKFmhLFMAJqf8U13XlAg72uzKRb737XakcnAKr+RQXVk1aQN0tTyj6sAQjDHBCXaXMScDBADRMAhFWVgk4A5JJOHATmwQA1eQCqBgOoeEACpGO4dOkVoqIGYJ9wPiXYkxYS1QOQmJYwqQcgEgaIk0sZial1iitAQRxMTBOHjMUUZOKAMle3ooRcqt3jVeIUnD5Lk1APKChK1ffWRUzYJZ20FEGzX7pK9ICASs6OK9dnrORw4rROAFzUMpUc6mQGKFNRoynAABsnCsqD9s64TtwHJTp94YPG1KYCitglryWTNw4rFw/IOEqfBHDvjKsTpQCAHUFulDGxoHqoMvV77dPE1WN0rIdVu702pCtPnwB9xibEOvnEaC0xEtWzZhAmm2d8cy1dLdtHCvvFwTKnaNogdvbcSW1/wC8aGmCXmU64VmDP4GlktcUBVE/11VYLLM9Y/BpQFK4B3HptXQABDtEp+pwlhWdDZi8jwWN0MYDbPhXO0UbRjcWWl4j2Q+nr3Xp/AxwMEP3CjRZiW3RcHxa4UC4L7lg5EZbmkqPR3ioJRMimdDdj4FkvNd+/Emxfy9rg45PQhUTw87AJHe0xzddZDHBsk8uas8pwAx4ZQNwVBh4XDOBWegOgc00yteIBSNYG8BwERnW5RooTAH0hUauTS0DXkvxFUsTCNoCvNMEba/JniCUOtRcRv5YYAF1uGcDngeGKuwAml9CS8fn7v48B9uP/dePD4enpfFu5/r+/nrRH56tNuf0L);lineShape=1;fontSize=14;" vertex="1" parent="57">
                    <mxGeometry x="277.45451083233013" y="197.87632924959465" width="29.755695625106625" height="51.133149580007185" as="geometry"/>
                </mxCell>
                <mxCell id="39" value="" style="shape=stencil(7ZjLbttADEW/xluCw3mv0/Q/AsSpjbp24Dh9/H2pCiNLHOumAbroIjvZPpJnyEvyjjb+7mX38LzdCL9czqev2x/7x8tu4z9tRPbH3fa8v+jVxt9v/N3T6bz9cj69Hh/Hz88PAzlcfTt9H57wc7wvVZIy3CX8a/wmkqQ/X3we+cP+OOcdFV7wgUJd52OiGha8p1Ig7y0fM+AjpWL44CHv2PDDp1U+UFquR6hGyHsxfMLPd9nwgvarfF3wjqrD6ymGjyC/ymcxvKD9qlzcgmeqSA+RiuUz1k8ohk8oPtnGh1sC1/jKlgfrSYmSXT/zOp+7eDKsrxIo2vUUsJ7qyXujZwfiU4vlMwWQX8fT/iZBCGVQYTXbf3CVHCj56sgvUyapNZnbMZImgWnPEYoiq8ZM04pUkYoSZdMVE0WQhhBaFNsNKhQBuvOh/TzlIcBGoX22LoWnYfAgDy7ZSqhMDqTaU16uqFaKkDeTQ3lUytIKa8ajVirERkeMa83ZVjf8AcgB21H2xgbYjqYhQPD5nC2PNNFVmhZrBfud0jnjIyg0bpN6xgvYr7uxHgbPd03AE6/NFfQ66QSUYb508kq3HlAB6gRyt19QYupMkuWRtwldfksbbn/Ja2NEPYJKtHwA8fS2Bw16Ri2lTZZ5vYD1S3MCcx7qJ/bPB11XnUNXvwU0CLbWQPkE9MAt2jPev6seKzGIJ7fqmOkhwXr0nd78P+R1UBuvUrDgNGNhuePi8BTjZgWmKaZ2HaQgcFPANCfVkCP/qv5muSR1kAEkIWVbZTqbURfNxZaZD7BsSrZ5UL+C5pJ6NF7mwZVmSG7fECmaGzzsdLU7RRTo8muXtwjzXLQVWZeJJp96mWhPccgCqlnKJgckIECpG/XKo1Pfx6ny41T5H58qY9eDHNRzkra9K18ArwegTj8B1KPy1bQ46Cyzs/WuCwR6yNIG6bVe4ClabMv10LkqHy2P6kX5ZOsXOVfljbUMbUyt8UY/oY3mtXhm+3z01iw7e5qMxCg+bK16xHqrVg8Rxv/dbxXf5PXi+grzaX84jG9A57/bV5761fi61N//Bg==);lineShape=1;fontSize=14;" vertex="1" parent="57">
                    <mxGeometry x="312.9611120411193" y="205.20976400432235" width="17.577952739949644" height="42.63734721069217" as="geometry"/>
                </mxCell>
                <mxCell id="40" value="" style="shape=stencil(lVbLctswDPwaXTHgmzyn6X9kJk6tqWtnHLdN/r5gNVIMWFq3N5lekFxgseAQHt72T6+7wfPb5Xz6vvs9Pl/2Q/gyeD8e97vzeJGvITwO4eHldN59O59+Hp+n369PHdm/fpx+9R3epzim6nuQ549poTrK4e/K1wl/GI9X+EIpK3xqlOs23gfySQWEZYvVgMiUdICPlON2QPLk9ZVcJQYnZLlA0Bwo+m18jRSrPoASoNwqZafwTMwA34ijwYcG8TGa+6CSCb6YEuD7N2p6/zxfcBXveOG3iGg+cfMAnSDnKGIGuemAQBWnNBhNpLkoWzVrOkcuUy4wIDkbUHEAVxvgUJkLFXNCpIJIlxtd+LmXtgK8TqsUBlEQvKYgC0AY/UKaQcRCLXPKl9aHjdlTqhtZ3AzxrRSzwTMuWWODd8BYuuq0mTpyd2SdDd+K96+6XokcaOSVxixUUcGk/qZtGJp1txYj6oBT2m68NBFjs2PT+nlW1ab7ZhvQUNv8b4DMg2Q4iBkADjJwjN91YQOhykgzEyokOBJkaBqlRpmKQHoyAkxASvMYXSc9O8OipAx739tWkDRXcCFn9//0/A18MrJgPGUdeWcPKIDAYiVXBBogII2izbe7GdApWy9tCTa/WI8uWAtUQIJuWr+5eWL9G742ckCjbPuy5jv3N680aaMC8Wa+Vk8NmN3qQxYMj/sPX/n4fDW/jIfD9Oi+/t++smVpeqGHxz8=);lineShape=1;fontSize=14;" vertex="1" parent="57">
                    <mxGeometry x="306.88438302653617" y="227.538425480028" width="26.685616973463837" height="5.2874169349990545" as="geometry"/>
                </mxCell>
                <mxCell id="41" value="" style="shape=stencil(nVjLctswDPwaXzEkAb7OafsfmYnTeJrGGSd9/X2hulREUFo1vbkpVgIXiwWoA9+8PNw+Hw/Bvbxezl+OP053rw8H/nAI4fT0cLycXvXXgT8e+Ob+fDl+vpy/Pd1d//18O0VOv76ev09P+HnFeUeRJ1Rwv/7+pVCJf/7y6Qp4PD31gOR7gFB0ABApSgeolMN2fPAUcxefqAiI13xLFy/k0nY8F4qpPwClvB0v+vzaxTvygKBYyImJd4CfFG3+jirIJ3uqfT6BqgfxiWLs4iNlkH8uNr4So+crP67nk8kzAGTKpgCZPKiYAoyCtGQeUaQZG4oiOZBSmSmcAZUEkFSyJYmFpG4DaiDpDy0OnqGmpoIZkCiBvvFu1tlcaKYKeK3aiP2pUyAPpKo5GWlnfSfQRikU+jdMtQRvULHmvhkK7ubExD2vpcI3SCUfenkzFXAG1sr1tNbSHrFeCKHcs7QozTrC1kErI0AbvvXXIp7Ldrxa9hDvYXyI9sQV5O+sLOrsIVvxfmAU5uN7UdRMBVRAZ1qw8RFVzDaOxjOsl5lQGo/yD83elvHALAJlHvJBEm1PW54XjExe4QfNfG4DclGvAPOxelM9AH54pcMqsGse9FNhPqFZ87JfAP/eToPdfuQwxEN9GpOb8gcm56zHaTzyE+2vavlEK84wODQe6V/70fCTqQK9OTuONT6Bejkqo/4BP8r/0I9ID96O1qkfYX3fGS8rDZ+RoNWBjIIiVdAxog1uSuDb1Fmfk8pR7+nTCoOWLqFgJnEgBm8o0Q5WHeYBbRPDSpRqa6R1QGyusNhXHAJoAr3worTrzjpAnaindSIaOIUuOGYZl5nodYDYWcmxucHWLuvNpqnjHNQhax3MthxbP60DxuXXt0esA9iewSfoL3k49HRFwOIzh9Zrp0Nv4KbNWXxwf8/DyhLh8/WSZiyVoWPrJdBYZGgetbWVmjtRgNcJGSyb8cR01sIS3lik3Zfm7ocboC9WQ95jC5bh1iiNgk1A70d7HyqkrfUzoO65tllbFCCAJAXwAEBXa1V9FQtANzQFSF+2t9m7Dgi2zhMArTqqM3kXwFsT3kvJ2zPsHVqHYXkXrcM+tVc410z9X6XxH1/J9gD64+2j3P3p8fH6TW/5//Yjnv7p+gGQP/4G);lineShape=1;fontSize=14;" vertex="1" parent="57">
                    <mxGeometry x="42.383368562217086" y="275.99108386595714" width="19.537012485520993" height="38.28917993327642" as="geometry"/>
                </mxCell>
                <mxCell id="42" value="" style="shape=stencil(lVbZbtswEPwavS6WXF77nOM/AsSphTp24Dhp+/clIUg1N+YUeaPEGZIze5CT3L3vn952k+f3y/n0c/drfr7sJ7mfvJ+P+915vtTRJA+T3L2czrsf59PH8Xn5fntqyDZ6PX22FX4vPE+RG8nzn+VH8RSWP48L/jAfr/FKbe6KECP5MiYkR851hLpnjmOCBkqhIzAFAfhIKgbPQIFm8haPFGsh0Q7vKCrAV4d6vFBAepVK7B2lnMd4x5u+LWYkyCCl3At2TCVAAqeeIMRIQvlCCJQ9ICSr2UVKyNRIMVgC1BDIZ0twwFYVcsWKzmgHT2IIjjJKJEfau6TrGYf43qSE168H6tevHiSsuF/fk3fYUls4sJAjBTV4mEU1KdjgHegsLev6VrS1mmFai9GLCq3VjTN+KvDzRmFmCniDYsqGV0kjghjFW8xHFgVDqEFESZ1vlA3sXt8lpEjcV7LktcHeJIjY/psZ9opE2p+ouqAgL+r90UetBR5EobY2GzV84wgl/2UDEARve10TACzd7qMNnymBwqndv6+DWnno/GwvtNoJGBjK6+yGd+uOI7y5z5QiqBu2KVfy2opHes36EeKrn32Ai8CE+/Yb6r/4Ovj3YHuZD4flvXc9bx949dfyOJSHvw==);lineShape=1;fontSize=14;" vertex="1" parent="57">
                    <mxGeometry x="81.68140418000019" y="269.6880439172892" width="9.931597921254504" height="6.2006736750615365" as="geometry"/>
                </mxCell>
                <mxCell id="43" value="" style="shape=stencil(lVdbbhsxDDyNfwlK1PM7Te8RIE5t1LUDx+nj9uXWkCNR3inyt4+hRA3JIbWRh7fd0+t24/ntcj593/7aP192G/my8X5/3G3P+4s+beRxIw8vp/P22/n0fny+vr8+Lcjl6cfp57LC76tdCJTKYuX5z/WLp5j/ffh6xR/2xw4vkUoa8ImkAryQqwO+UkD4SCkMeBewQ5X8eABXyMd1g6AOjzt4IR/WDWKi5V9vUKiAHVKmEAcDCVTBDrkS82AQPAnYoSiJ4xkiU3HrBjUTjyzFShns4JitT6lQErBFoSCDQc4kyCe2NBVNRmCg6+UxEMsSgNekyTcma43EHuRGaCzeDPTQgCatljru0BF334KCcamSA2dwjZIOzwCveZDtCQoIG5OIxUdAEbfdOzzyX/Fm/QwTT/1hi5cCz+stnhPiM45JVxMV4L9v8tbhM+BTrBwteLB+IMeTP+C8gXKx53XAn9i0rcMHoKfRKovikdjFJlRdPkD5pVotPoF6CRTY4gtqIJRMPtQmfSvxzdHiHRLGFp1+feCPm+JbqAKR49Yee35g/bpJsTyI7yTrS3xhfbkp3yKIF0/85ybCK/z4qb4q1M+5XpCeqEDP9Qj07dN43+juCUIF7Cklu0MAGZFmCRVi1CfFamIplIFBiRRHl4pAkajK0tTrUVeqwcqKThMVsFQdZTNnMuzEOjvIGIfoYSPIofWt29AlrXfej4O3LommBkjV6JoS3gy4Tbf3U0N/j8Wg8gfFzlsDV+G0rJOriYOLsL3qeB/MeO1gavhss7U0Bb9/hImk0ObItXm/joKHZ0Dl1DR8Jg9qIUyCpOUHzqvlzBMe9TPf5K3Do5FU7AWNYb/XEVYsXvDIWy0/UL6irTOGKap40xCUYOS/4rPBw/kgtnH1A1/R/BFtQ/Mt4Gv8fOqC/H+8Pnzcxl/2h8P1Mt//t7d3/XS9+cvjXw==);lineShape=1;fontSize=14;" vertex="1" parent="57">
                    <mxGeometry x="80.14980531497058" y="271.25415234550854" width="13.209785324677494" height="36.1853893545179" as="geometry"/>
                </mxCell>
                <mxCell id="44" value="" style="shape=stencil(lVjZchpBDPwaXlWjuTR6dpz/cJVxoEKMC5Pr76MNNbAjlsZ+W2NpVke31LOr9PC+eXpbr2J4Px7239e/t8/HzSp9WcW4fd2sD9ujPa3S4yo9vOwP62+H/c/X59Pfb0+T5fT0Y/9rOuHPyU8bpTp5xfD39AtTK/9/+Hqy321fZ/ZNSWSwT1Tktr0wVXd+oJJvO5RGIYwOQgk45ExcBodYqcbbDokpxzEFoRJuO8TgHbJVgW87sL1hzKFGiiCHRm18gWQKwJ4TtbGqLVFtIIVEyoODMhWQgpXEtUFr7/xyG8SHdIHWcqPtvDFpFehQE4mODpY0wGptHWnnKgkxyMEcWhr7oBSQQ6E0VkkCBVDWIlRH+tRAETTOyhrGkEronVluXKXk0K09q2VoaIfm2SEQK3BgEkc4JgWN49LbdKZ0poj4YyGNOVTKICKzL83Zo/ON0G7oFZiA5ZfF2QtiW/RILZiduRf8g/alc3cWD4DpNBCTzxcQJwrl5OuJBqRxn519RvELSXb2sJ5C0fGSAorfOODtEcmsHJydfUaUST3ciz1cIJGS+vNRv5iYnX1C+dpI8OczWh963d8G6jPx0e0zKpiP2eMh4QUbqrNH68/qEzwf4YiLHg/GFxRP8qup9LF9Cz/B81dQPEYnb4/qP8HX15/RfJP++ln98flX/IXz57P2Nt9GvpiAUSTRbCmOgLCWVyxX3Oa2tabAwVSjc7A1mUFIpXTIz0RgBSCqVnMHUgsJVMk0HzttoFCLiyXtxpbJFfQG6RHPBBEaRBL73DlLrkwZaTT2k91UoCLZWPt5l/sBFjjWWHejMN0I1fjVttQI33C1DUxcNzDugpfKkrCc8Eiqd/STSfWxCwY9uA9il0uzG04AAykVD71pAgM2WABhrBHXHuQyMKJfmQrvH82KNI5ghnzWK1FqIwTgziDggGqiFySsVzeuACuqpSuUmT3AnN2uoo8Hni9ewt6Jv3kmn0fssr36W7VdgkF/9XwjvtijlTBj+cVBQcILDty3ygcjYijqpoz9lxB0u/zsl5P79vZw+Uzzst3tTl955v/3n3Xsp9MnofT4Dw==);lineShape=1;fontSize=14;" vertex="1" parent="57">
                    <mxGeometry x="106.5023364198475" y="271.29154735634177" width="8.328150893737737" height="48.040191435246385" as="geometry"/>
                </mxCell>
                <mxCell id="45" value="" style="shape=stencil(lVjLctswDPwaXzF8Ezin6X9kJk7tqWtnHKePvy9Ul44ISuvJzZawFAgsgCU38eFt9/S63QT3djmfvm9/7Z8vu038sglhf9xtz/uL/trEx018eDmdt9/Op/fj8/X/69NkOf36cfo5rfD7inPEMoGC+3N94B1J+ffk69X+sD/O7Jlq6uxrW2DRPHiKtbNPxGndPjoqobOP5MH6SdfPvf9UgPs5UHadvaMM1i+RcjL2zq3b10DF2ifgTxXKvf+BAlifvbXPFCpYn0n6eApFhv6L4UMiF0GAEgXfAwTuOEfLIN3C/5yvpbj2X4iBkgecExIDECogyepx6DedKkXgkh9Yl1OL83KUKPVZKKGFbXnPVGJvL+RQUG3WqtICpHkqcu4A7KgigNi6ZM1ahoWc+iSw4DRr5fQuiT4B1M6ZfB8kyeTAHoomtXdJSqvW5WLT5tinWZgc2LRUkjQAwB70dR6/AKgqQt5bAGKSAnK1gATyoABmC4DV424tcYYQvAkxmdOuBLqevi7VAlDb1tchWQCjMOlccxYgKNVMvgfM4rBGjvy5TxSSYdeMvlAolyFMiH5lqAiBfUMBYeCr3PmCWACqagXUgeAJh9UPBEcjVAF1LFJEJrbdfgKgKPHAb2ULaN8a9TQAIuhMCqhDWO8UhAxVjYTbBBjIB8OqLo01igFpqIeKNs1Wq05OolbGlt53a/TTCJ0RtiFLGwLLU2ipIjLYhQomHsYWSp0KJmfYlLBg0oIxItHDXPvSRPxtuBfYyrT1GbmhMh15ZNuM6hkUI2dnVmHY7gOx0VceNspq9ZUmBU04DZBpSun2ZNmhYpVDxGNaX3Ofs+ixRFSBZ04aqcneZaL61hVvtcBNcS0DpOXoBtA4o8NPsmnjpnuX7avlaW68WrYv7Sj7cZjMiKWBfO8PPmjo4dAkzbcuu1bJIZr1kf8qic1YiFCvRm+bfMaki5alBeoLPfaYY4w0zb7sD9XefX+ruxV7U/Vqj+IZqBq+RVgCoQ3huT069LQeNbcH/ns7Cib/AX+cVbVqX8H6juIQzwzXtxI1NFm8Ym90vCYc3QWpfbL2iA+uDZWZPZJ2eoQUa49k1Gfvsu7b64+Pi7OX/eFwvXebv7cXbfroekkXH/8C);lineShape=1;fontSize=14;" vertex="1" parent="57">
                    <mxGeometry x="183.53140492362087" y="281.30958228679356" width="19.095797593278174" height="45.46339231599867" as="geometry"/>
                </mxCell>
                <mxCell id="46" value="" style="shape=stencil(lVjZctswDPwav2JIghee0/Q/MhOn9tS1M47T4+8LVUNbBOVN+ibLuyKAxSVt+OFt9/S63QT3djmfvm9/7Z8vuw1/2YSwP+625/1Frzb8uOGHl9N5++18ej8+z79fnybkdPXj9HN6wu+ZVzM5P7GC+zPfCZTjvxtfZ/xhf1zgC1Pp8Yk8wCchlg4vJPk+Plaq3OF9pOTuE7iQq70DDlqkBsfcEwolQPCJUk/QMzMwSV3oQxSFHIoRSerw2VEt6Pk+dPjiqSTgQKTah6gqIYAQDUlRhSKwiIVKr5poWnjgcrQiSGmJtUrIlXIfJMmUUJA8RZN4DE0SR+J6pwtJBYRI3PtQQ8uUdZOEcq9D0cRAPkTy/QlaflVAdQaKvQ9FUwmVm+pgTArNyHUCU/IDAfgQQ6uVBSExIHiq0RICMskTD/UgoN6UYFqGEhIoICVYHfQOJqRodSjIh0BeLCFiHRxbAowSkwwnBNDFNDVMW5oIKJcS1TD4gHTIQy452JeUINHq4JDTpdXXggDDmlt9LQgVE6JxWrMVpXeiLJaABpzqUIcCykgHtiN0IoCuoclnnVaTMMGGNRDjEjXtXgkO+aD1xVYH6IMSnCV81DVME7gOgHuEsR7QBNIolaEJMEoNbp10WXGoHrglwicJJdoJNM1VNIGkWfzJ+aBzP5h6wFPUO0fOzF0NHJBajzBhmrYT4LWO0WJ2h9Qa+vqyIc2AK6GSgDAlDYrZWm9urW9MyUonGY523WqlD6wuLAV0VyFfbFgjsChY/DRFQZAG2XRrzSC7Q0uD61ZcKYIZKi3i1607w7anBnGvsq6xHi2twbZuX/Fw0IWvL2gf4LxKaVjHmojr5XldEm4vY0jiynZPd3AtUXwpBu+AZFo4acCjF59EPOCRPdm+yTiomOJNfFw7cB1fiJ3BZ9Qoiu0sDuqleLOq6sxB/pbh5RbO2ckek6Ek4BVG8aF/foArnsYz23xDJfm/Hws+xuvF7cvEy/5wmD9sLP+3XzL01vwVhB//Ag==);lineShape=1;fontSize=14;" vertex="1" parent="57">
                    <mxGeometry x="221.78668174540863" y="284.46561674738604" width="12.102551032939378" height="35.691513035011596" as="geometry"/>
                </mxCell>
                <mxCell id="47" value="" style="shape=stencil(lVfLctswDPwaXTEkwOc5Tf8jM3FqT10747ivvy9Ula4IWpvJTZaXFLm7WIKTPLztn153E7u36+X8dffz8HzdT/JpYj6c9rvL4apPkzxO8vByvuy+XM7fT8/L79enGTk/fTv/mGf4tYzjTJLnUex+L28iCf998XnBHw+nFT4kqrXDC3nZxqdAuXR4RyVv43OkzAbv3Da+JHIWH/02vgaqrsMzhbKN9+72/TYgUQngA8XivZCgFXlyPUPsKUSwZUeSegk83HPK5H03IAgx2HRUTnpSY6QEXCHFqjx/E7DEgXzsBuQKWfLe+q46qsB4gbj3ddUPALw0VVf4BFRQBqPFF8ApUxzw/3Z0f8NUeMAjo7YyXK8HrF/LZOAngUJz5IvFc0J4UwZaGIgfxSeLD4AfLYJo8SiI3KBvpgLwWoPZ4hNyNPlq8RHww1T9MD8qsUGvTBnwE2yqzMEEgjdQGPQKsL7iqC86OGxozf4BBR8G/9RWQRv8hGH+Aubnxt66vgA/bP25Ohk2DGQNWtvRs2HQPAYQLAAeClJwgQ0B4QBBrv27EhgZVNcjFs+gYD6KL1aAUlurcF+wISFyhgqLtgb9gBShhUKh2EsQAzxXk9gQDR6Gek4kvSnEwdTVdqj0qs00gC9Uae3ezdcMc6VqJ9DrpjmE2htusXnbc5vg/g4ixX5B0oy7RVGwDR3KCdXUBK/gnCu2wYyt17lvO43Nfr84d5U+o5ieYyAmFM/Ozg/2q+1q6tefGwFbeNMsYn15aNgz7F4Vb/jJrRXcwku/noRzPdqSSbDBV3y087+znmL9UNA5n2yjqAWE+c/2Qob8+dEL3Pt4ffh/W3w5HI/LZXP9v71d6qvlZiqPfwA=);lineShape=1;fontSize=14;" vertex="1" parent="57">
                    <mxGeometry x="251.93395229437087" y="285.1761412229277" width="15.983648347321195" height="36.13989649980913" as="geometry"/>
                </mxCell>
                <mxCell id="48" value="" style="shape=stencil(lVbLctswDPwaXTEkwQd4TpP/yEycWhPXzjhOH39fqKoSgRpu7BstY0kQuwti4Lu3/ePrbgju7XI+vex+jU+X/cDfhhDG4353Hi+6Gvh+4Lvn03n3/Xx6Pz7Nv18fp8hp9eP0c9rh94zzJDyBgvszf3Dk3L8PD3P4YTyuwoWymHBPMfTDQyD2Nj6QS30A8wZQSXIfEDOFagBBt5A+IPsNoFIAKYmjYksUHYXYB1QhtidwpgyKqoDqLEBglWolzjalQBEDSrAA3QIDajSApCkBpr37EM6CyIUSPkJsmUqmCqhWQLZESILMKSDYS1SPUxIqxQL0BA8B/xNYAQRpo1BpACrXAgFsmRMlAgMaHlTACakvty2gqKn5FoB6SoA2FFAt0ylQrvAOjUdjpIov3eibK0V0giy8rjwqmOmmC7AmiapU2xO0bWTQmCZ5N4AvUlID2Wac4lLoqz0aiZFctQ1YuRaminMq1nKiVCPmatss5aNXdZulJaLG5c3oAaLVhnoUiulWgBos20uvKt19hEJ76wSom545S4RESqBM+pAG1xKB3hR9qr1VU0mL5K8bBbTfo165mTSyLP28E98IQ/dH8W7haKXtAjhwrd0y5sy1k0liaE9HfmPnCPy/8aYOAehN38a7hcHr8pkYh/u3k1iEXX5TT0zvhi5efH2dGjwk68ax9stwXXxO0M/j4TAP4Ov/24lbP83TOt//BQ==);lineShape=1;fontSize=14;" vertex="1" parent="57">
                    <mxGeometry x="248.08717984850992" y="304.6292391070644" width="22.883740210237274" height="1.5056411603551236" as="geometry"/>
                </mxCell>
                <mxCell id="49" value="" style="shape=stencil(lVjbchshDP0av2oAAYLnNP2PzMSpPXXtjOP08vfV1oO7iN3j5G29PmKFdCQd2PDD2+7pdbsJ7u1yPn3f/to/X3Yb/rIJYX/cbc/7iz5t+HHDDy+n8/bb+fR+fL7+fn2akNPTj9PPaYXfVzummCaj4P5cXwRPLv978/WKP+yPM3wk5g7vE9Wwjq8Uao935Pw63kdKoTPIFOs6PjjKpcMzsQB8odxv2JOP63gW8v366r8D8dFweIPPYL+JqYj1H/iTKtU+oEIC/MlMySTglvJlg0Te9QaVIsiwGtR+ByG1pC8bZMpmy44EfaEQ95zgRMLrBqI57Q2iowiyIIm4j1KMFEAZFEc19gaFAghrkUaDZpACOVQ46kBPvJRJwBdqJde7lEML9HKpuRuVbxaVErCoyo1+E5JbapZ3rUzo20UJFABdJZA3BgIzl8SSqXoSVNDVNpiaIZm8UOkToZFmYKB5NS3S4Z7h2w5nH6gg045KtHjEDGfJXXFFO9sBJmoB/wca1UIJBGhcv8CZM/qvSQcpHuMjkKVj/KX1j7UEB4tH/msZ8rA+KDNu/87wqAa4Fe0ML3D9MsQ/gP0qni0+gwbPQ0lW8oCfbNu74hPIb6Ay4AssSNOEpvoqiA95rEeIt3zA/rhWHR/cr7MS5E48bwrrg/lydnDc4YOj8Cm+DRLtDp89hbEe0SAb+IDr8dN4sSJWRwZqoFwGxjHs6DraTUhLaTpveU5qT+xlbIkkwEDnbjG6sbY2uTzrva16iXCwakzCqCZAmlVNmDrLEfZddSn1RE2lac9V+dG7lG7Hi+WwFis/koOKaNIr/Rdihvo9D1yKHg5vjYmhBuMT0aT6enqzh+NbDZw5A6Y2sZYNhgLVIwLKQx4Ugh7zUEdSVWcSh8maBtmYm1JdO6WZYy+ToAk7aECd0aBj6IHGm+MBBTTR2OIzPH5oR4qmZUN/fLCnUu/bjpYrx0oEn6Gkk3YJMLtGgIVGUiweXSOIFe3TUAf+SwvHDJ9Q0bT0z/AF+DP0OsWjCtCCMv4wvAZJ9gA7rQ+vZfLoP7qmsBJzig8iNJVhfXTcHSRpwHxjy+dJlEMJ+7lrq/t4ffh/R/ayPxyuV2zz/+2dmr663sfx418=);lineShape=1;fontSize=14;" vertex="1" parent="57">
                    <mxGeometry x="109.770791278584" y="356.69551515550233" width="18.699256522738285" height="29.91786933595106" as="geometry"/>
                </mxCell>
                <mxCell id="50" value="" style="shape=stencil(rZjLbhsxDEW/xltCIvVcp+l/BIjTGHXtwElff1+qrqYjanyDAt05zhxLJC+pq9nJ3evzw8t+x+717XL+vP9+eHx73smHHfPh9Ly/HN70007ud3L3dL7sP13OX0+P179fHtqT7dOX87f2Cz+unHdUU6PY/bx+ExyV/Pubj1fgeDitAabgB0CEnANAJOEB4EycbgPsKBlANwm21H4vD4APlOU2IJmcDEChCBYIheq4I6FQbz+fPNU4PO+IwX5yJJfN8yilJZGUMUMUwu3na6QwPp+oelAyt6y/ZFSogghqpTACmiKHAKY0bklllCOI2VMYcxoCFSCjlCmGAYiqRLBCZFuFFCiCMksiN8oia9BY2WZLxVEGK0xZLZk8KLTqaExq9b1btwvtu24WIFACZfPVKk+19adbt3PkrPTqIt7tXktWGAogYWjzVG+BClbIqQ+4Bci98ttApswWENCfuZBUCyQgDAWyAQp5vEKZAKRVBZIJukKtKuCTBQJKa7YHgwJI3FqH6CyA5rxWOsoEoBWW/l0BaGZo/9o6VIooaCGegvZoS0zVBF26um4C3gLwMJH+75X4MkqrUJkAwWlNwQIexRB7Etct+o40ol3BoRVUfMkCDCZfk/fUohGlVRtoAiqaS1stGlAMKoRiAXRMtzEztSg64TRLdrZqi6Ixo6OSLYB8gFa6jIVbeYn/ROgJYZxA62rkD+tUuopPuTzJr3SbvB0EFdOj+gugcq6rf3XsIsM62bHqoAGN3WAvvgFbH5/s6dDUCwBRrzRmKHvyyEJriowF5T52tu0b90N8sW8CgTYzxhiCQGtSppmhUVUA1MUDLyaXe49vA0tVVxeTBLLU7Jq9mKDDoQQrjAAj0Mldx8nNlIGfVANspiRDL6YW2hzp2B0Gbz2D3kcF3dx4uuol6N10A+bqpiE4UDP2NqXa3ciV+GItsd5k0P1Wp4sfi6xpQK7eJ9sKCkR05U7dba6AglfwZgXum7x1qY8TACdMsKdhYBxDsP6zAWgFsVpqABCfVy1PQEBbYnu9UoARoGWa6oCOTwVMvymQ0ArTSaIAo0r/8/ue9wH98Pf10tPheLy+nVr/376O0q+ur7Lk/hc=);lineShape=1;fontSize=14;" vertex="1" parent="57">
                    <mxGeometry x="93.21825563518553" y="355.19441659538376" width="13.101001981122149" height="32.03390865336778" as="geometry"/>
                </mxCell>
                <mxCell id="51" value="" style="shape=stencil(lVjZchQxDPyafVX5lO3nAP9BFQnZIiSpJFx/Tw+Ll5Fmp0Pe9mjZOlqXD/nq+fbj4/UhheeXp4cv1z+On15uD/ndIaXj/e310/EFnw75/SFf3Tw8XX9+evh2/+n0/fHjglw+fX34vpzw8ySXVHpZpFL4dfolS0x/fvhwwt8d79f4ICkYvErr+/ioot3ghwxyPvA9G3wsUjJRKEu2BsQuue4L5CDDCQzpRKUSJVsTUpxOuChQ4cJqBZIEcoPWCwLshqYSs1epln2BrhKcQJBIBEaSEbxbmUq9SWhWQGUosWF45i0CgwjAxGQFmpRG3JqkRW8D8xICp817KZEbSpVmvYTAdcLW3DcCVQbJnwwuOfINSYTe+LuoTegkyjK6bSqAUrbihmjdmsf022UbktRhBEqhNsBL2d5QYDShBuJQLL1rkUrIh0hXm3EaaNVQkM+qpCh8RCXtEqxbW6bkA72HValDJZZAQYp1K7K8kRTVIsGSb0Ra+eBEx6VRqdEFCWRVGp0GDsU4WIEYwtTycoMQdTagahDyhdluVvhGvAqnbs4vJGzQtnt84PjgXarEXpTp5vGR2lsdvtCQRYnq8X+ZvoPvm/NZ4qD4lA2eVUjfbIEv5HxwOm7sJf4ss2Ws/Bno+a6HAM+aziX8IP7cpphKJjmZZ49c4WnxndFZ5wur7qJO/zZHhz0+1A2e8sdNLuM8ge7xeaN/JfEKGz7r7KD/nY+N5+/w+EzsRT3Z8JPxYTOdLvlI81eTx2eCTxfyi/MtbvOXVfQ34pdpwgk0WiAwjnsPIWKEETVKcy7KlEIYBZLjaJis3Zvf3dLSlQs0P+B05AVr3VmavaFxGtU2u9Z5Xumz0lx26/CNVfkOsqxF1oaqdFPDKNss9RAZOmg2z1XMeSwXFvJZGwpCyW5IXiBXuhal4ud3TDBs4Ae9nZdgVSBxgALFshVWKWsgyXeExNm65IMtkdijIhtl46wQZ4Hzwro3mTq2xkxTFLugVynTroNts7ltM9Ftc5z3gdUNhRg9sHHEjdGEGqvBdbVuMiNQt5LN0aX6c6uTC3Wi22NTX/pAYLaEoJIF6ybsp6wa1zTPWwkkolLZNGiopCyDun+JQEKwiTAOH4elSRJugDqeG51zQ7qtS/GVHh38LhgjHUrwd3G7IB1SQU23Oxa6Oi5TgE1QjFksBsn3XNRVdn72U/95Tdorq27r4ksgOOZIFGimLY8s/vzI9Fc/dQY+xDTfRwJdQoCvrlRw/zSfx3EesIt35XEGcA+v7nlQMlkqls7s6sq8cM+fb3tlfhWPD/+etG+Od3enF/H1//4JHD+dns/z+98=);lineShape=1;fontSize=14;" vertex="1" parent="57">
                    <mxGeometry x="149.40523004616395" y="354.57483084004286" width="15.186577592128529" height="32.36712346408703" as="geometry"/>
                </mxCell>
                <mxCell id="52" value="" style="shape=stencil(lVfLctswDPwaXzEkwBfOafofmYnTeJrGGcd9/X2heqiIkLVub46EDYjlLgDt5O79+eFtv+Pwfj4dv+5/Hh7Pzzv5tGM+vD7vT4ez/drJ/U7uno6n/ZfT8fvr4+Xvt4cpcvr17fhj+g+/LjhtFOKE4vD78kQohL8PPl/iXw6vi/jaSPMQX6nwdnwJJGN8LJRBgtSIdQBwpli2AWKveawgUwUA5v66A1KlDGqIkVobAFZVbIAkUhk5YmKcgOsAaAJr5uBPpJEEsCpMeaxZCwnIkIRa9QDVbUBOxGPRmkkSUEaiPCpPjSUkPePEsVSpCQAkr+1mT0DRRVcZYhfXlrrZuaF03rbuQcMIMEMhQOzSnAEKjySBQlsBAK3cqKbVkUCGyfHiARnYgY2T4gERSMMAvmjcZQxQsgcEoFarwanVLq5EyFJUD0CeZqXkjpRJUR8LK5Zyf7KlJW6rDIBWEd8ErAbUx8QsWj0g417MYXUPwKIGEPWAGxni6GnTUkAGSqsMplZ0JCFZZWiIpdgb48JxSHx20/4ezKLgSLzqS1MG5OnapbaooSJ5107iAoAGymTR1cW1G4DiAQwujsuK1oLn+jwNFgA0gYxWNx8MgNTKM+v/CCjW+Vwjmy11fWStL04p521AYw+wGYf6Ugte3k2hH2rwjtNEFQByJXGbQKOEVj5byNyOGMItfTtTTykATVGojEPOlo2ETO0T2EaWgYHCShkRNo35knp81r73Xi8ge0AqlJC4bWKO00ESrCCFPvXnxVug37L4DDFRQQucbV/jPeduwKvxKn1b6/EBdgzTZWAXj/qwLaiu6WHV2QYcs49H569+Z5itdD2+9SnwEY96sMWrj0ezU9WvVbZyIH60v54vGPK/cO0HoOADtZFQ7grZik/FxSfQ64wgNxHmTrMV/18fw7fj7cfHl/fT4eXl8uG+fO+/1O3R5Stf7v8A);lineShape=1;fontSize=14;" vertex="1" parent="57">
                    <mxGeometry x="175.99839460817677" y="359.0600545964006" width="9.096670062880518" height="30.2129320083313" as="geometry"/>
                </mxCell>
                <mxCell id="53" value="" style="shape=stencil(lVjLctswDPwaXzEkQYLkOU3/IzNxGk/TOOMkffx9V/VINSFrM7kpDlYCsHgsudOb18e7l/0uhde30/H7/tfh/u1xp192KR2eH/enwxuednq705uH42n/7XR8f74///1yN1lOTz+OP6c3/D7jUpaeJ1QKf86/dMn13w9fz/ZPh+dL+yo5DfZFct+2V5M0vj9JsW37XKXWwT5KTNv2FkXbYB8kEH+qSTBvH7btexA1538k/vcmNQz2VVrZto9h+f4ScBEjiJ5WHhVRkqIWJI4UTKQQji2L6gDITQoBZJMyxgBaqpIq6hJGlyrqkACQEx2/0EyMAJrkMUk9U/sofSyjXkUZb9FH0LpEUkixSncRgEjWadl3GnKkmQCab2Uz6pLqXAZLLzfenEHSmKWicxquAkrwQecujbSnNYmjSyg9i6QbkCX1LmXiUjffbwA0wgMKIcURkKWQUgKglxFQaC1hZkQXAxqUATAkR6ZLnV+xFXRLHtDZ2MNUdzGgoxoBIInBAxojLklIKwALGpM4egArjYb3ZQ9g/dCQ1uazpCRoAJKLAZOQjWIAHNMY9hzQVsVXSYtOQXcPCB+k1Q0BlcIaCMSthoAyplEatgKwHVqkRA+orFpt9YUsiYyZqYHM8xD4Wnc7FIDOW7SverqxtKKDV8VnPEt+zDTOQ14x3eiWBtO2blE2KsOKB3yBlPenAVb8ngbTTC1N/RU8gDUQBGh3WTKq+HKaBecC6FTLaPUxWKUCDnu6jC5V7hI0pxuVLdO0QgTnMYapy5lc0llNXeglNsjWKjdw4R187cGjTvpnNSgRcibvh+KzEVDTLCWus7Cspwue2TqZ6sZpmUILoy5HnUWo63wauj7skxehSefj1uY6GWmDsK5shxZJ/jjDRCsK09nbPDiv97N6+WaUNQjKqs4fYxLXPMvQDGSjwz6PGY2BUqDFjwucDDIZSADEsdViogtas8TiAWxBa/KiGwAmujXOenYB6LzjrwNwoowewFohNU9b5N08XTOYB7D5grpxyw2ASNKKQ3NxTEd6yAUguKAD1dA4wDU/82butwCfu4v50B4P/y9+Hg5PT+d7o8v/+4si/HS+ZNLbvw==);lineShape=1;fontSize=14;" vertex="1" parent="57">
                    <mxGeometry x="200.61071832386082" y="365.2881869918702" width="8.86824017122978" height="21.380679543107863" as="geometry"/>
                </mxCell>
                <mxCell id="54" value="" style="shape=stencil(lVhJchsxDHyNriguAJez4/zDVZZjVRzLJSvb74OJQnoIjtrxbTRqDrE2mtzFm9fHu5f9LrjX8+n4df/zcH9+3MVPuxAOz4/70+GsT7t4u4s3D8fT/svp+P35/vL75W5BLk/fjj+WL/y6rPMkaVkU3O/Li0qS/774fIE/HZ5X8EqcB3giJ9fhQciFAR8olev4mCnygHdU0nW8BGIxeOeu41OiMNrvKQL7s1AsA56pAnsWvBu/rw4wMKhSMgYV8iABUij5MaIZ7sBMeTQpVsoe5ExNGhdIJA+C6lMzoBdFogh88IH8GNWsPoA0eGkWtwVF96zAh0Qy1kUNVMEC9lRHp2tqgd5OnKM4mlQzCciDloaMma69WDYXFHV6jFLVPUHx1cmkElv5bu+QyI8LMpOAKM3tkKQRwnaUfKOHXku6J6pWIT8SBmsqI8i0Jm4Ma9TiAz5EyiNeOQpRUieU3qAJdoOzMdXiTcAeZ0tb8REUnqcsFo8oL9qAeqYC8DwREkO6UEblCY8ocuP7FVREadau/A0BdEErlxUe1XRt1q7wiCl0Ao4toPXAqI0pB4vH8TED2WdyoAHSlN9MAeZXeMKD+Mep/jN5xNWUxPpbgf2OElt8AvnVfpziH+D33dRfBX6fp3pg8H3fOHndj2g0Tf4ynH3c+HLdX8Aeaf/+Jz63blrbAyi9WAXoO2Vf6Rej6JZ4oilGecIjCfhRvIoPOwC6QtpuAK2IsYKiwAkgbEeATjU0w7LOjLGGRDkOcG5h60PCSa49JqtJH0CVejfNPRUTGfEiNxrsckXPFkh9ODvJVEEx8FrqVNoOy31NlIlTLXAYKLdZ3ajJhN2WRpMKZt9JZqryRQYlq8WTwET7aqW1HpEiaM8YqY79H3XigrSxOjiWklIISoJkK0uXKIMdVDQmQ/EOShZdUI0shdpdzzOGw/QFOhxs4Cug7NjPSz0JcMQuGtB0JxWU5NAmag+Qx908iWR9g4asBty2modToU7n3gAvBvLE2gH2WbIMueBBinmasuEdlWzvBTxku27tCi+w7//lZ4VHKspNqtdB1egmVY3Piq5p7rdrH1TRH7wleheuD28XUg+Hp6fLfdb6f3uBpa8ul1/x9g8=);lineShape=1;fontSize=14;" vertex="1" parent="57">
                    <mxGeometry x="225.7465249616928" y="364.7119540151957" width="7.334149404767293" height="34.67804598480431" as="geometry"/>
                </mxCell>
                <mxCell id="110" value="" style="group" vertex="1" connectable="0" parent="1">
                    <mxGeometry x="1319.9972143997534" y="50" width="302.8979673776721" height="338.8173929429579" as="geometry"/>
                </mxCell>
                <mxCell id="58" value="" style="shape=stencil(lVjJbhsxDP0aXwlKpLZzmv5HgDiN0TQOknT7+3JqaDKiPK/obTx+HHF53HSQm7fHu5fjIfLb++v56/Hn6f798SCfDjGenh+Pr6d3ezrI7UFuHs6vxy+v5+/P95ffL3cLcnn6dv6xfOHXRS5QiItQ5N+XF4Wk/X3x+QJ/Oj1v4InqCFfivA8PSoEHfKAEPh+ZShrwTKkCfKWgDs+8j5dM1eOj7OPV7K1O/5iAe9TrH6kBe7P9nQd8IgX65EYlDPgKw1XM/2XUP1IEDi2JYhsFMjUFAkLNWRwogxCU4E0wmxMQMJvTGDMzuhQoIKNTZXXDng1hNFoqVRCGUqiNNmggifsC1dJkPEGVBMShGS9HG9SoDjKtJcoyMilSBiq16qmdSj/zei7zmltdwugbAziidRtXAasuIH3aVF4sNIiui5tGlUrrBe16ICLxeIKFBlUko6tTqTaK4ITMnq5NiFGNWbm2CmRiYPRSxEZuWCxRHKL4hNjE8nqsKY90bYUKsIF7ldvgE9CISZPHowxl30bMRVgfnvCobtv3nT4JlhiLsXg8IrZ12eDxDEg0ka4pLEixc3iDL4DVRgj1+AbipZM/E4yXklaPT8A/U9tcUgDqU4rHox6iU07m3nj37J34LAAvpNnjM+iakUr0+AJSPvQevMUD/4deD7b6AP8w5QkvEO8apvmzAr5xj+YGr7A+sItvogbzXSa+KfCn1auZzzAfk9NHe/fcia+Ix+N89PXNvg/y5X/xptBM0IAOSJPFCQ4sWqYSIXAkStazHKcZ1tBc/dBVc29T11u3nTDaYN0f2VBTXzbWaQJvQ6axc2ux+QLkvfkkjoXOJiJU6EzADQc2c2WQ+W2aZc3RqFWaDcWtIApro3nJ7VBpbW/XBaZubGSB47X0CWszLSMBc6KLtAZIjWzcHLlkEz8j8kUKIzVsp1C0tUTf8oX74rOnko5G2yrOyIbU47oKKLZh2lqWdRud0HoGr3NjgevyIjCeELRX8usC1gbcuhng7GvTteucFYYhie+EGU7vqn4hX0eTvVncrV0CF/44bV2W4MBBVrhd57S9ETX+dQ76wDeEZ3//k2F5SdNg13eRnTnKXQ4Ehm1HJ8LhniDe+2GtyDt9uU3fV9Q3fY9a9AH1Pfg5arEXJEyY5sxeW/fGNA9XuKX4LQvWB+7M+kitjHe47OB4hXPXPqX3nb2NKTo46sT/hNvDxxXow+np6XKDuv3fX5naq8t1q9z+AQ==);lineShape=1;fontSize=14;" vertex="1" parent="110">
                    <mxGeometry x="25.87231004179148" y="55.95941841347633" width="22.144566857868085" height="35.24800288664562" as="geometry"/>
                </mxCell>
                <mxCell id="59" value="" style="shape=stencil(lVbLctswDPwaXTEgwRfOafofmYlTe+raGcdtk78vVA1dgak2k5ss74p47AKc5O5l//C8myK/XC/n77vfh8frfpIvU4yH0353OVztaZL7Se6ezpfdt8v55+lx+f38MCPnpx/nX/MXXhdepKozKfLb8iIJcfn75uuCPx5OK3wQiuwI0qjUbUJUYn+CMDXeJoiSekLMVOM2IUfKzROYIsih3CLuhEpFt/FaSTyeiUEG2sYaBQoC8Zp8E6hmgFfK4r/PlEAPjNB8SQPOOPAtw1UTCqjpfITPQYRygoQUfdJMOcAqNR9Syv3MLQL7MiUrNCpTHfuWtEvr/4RCMrinUkZKyr3sK7tFoG0jBC89KaSIkMZWmwEFNc4I/gRTqyC1Wki+cTYToDQs6TDYLSB8oTikgIVRxwnDvY9beJUBD93TqPr4pQe4pWzJDt9wB3QUdsi4QO8nZMTC1q6Z1QxWJGztMl5NecFuHr2WcJHse4PX2kddS37KmznR4vk0oSgFH1KukGCLp/mka4CLwSZc9CHVCstq3k1eeg17zayYPUFNrGCXyDszM15ukZIv0qwVcEDou/uGr9BtYQzIEmhASDwOl6Ywfu7lWFU0QDz7vVZL375beF+fglXH/Wpww5uXwbSzWeXxuUBF8Djec6AI6z9831YauhDGcfjOxkf3wU9eOD/G28O/2+3T4XhcLsfr/8fbsL1abtJy/wc=);lineShape=1;fontSize=14;" vertex="1" parent="110">
                    <mxGeometry x="72.0152762844441" y="60.5229258478538" width="19.90061093350141" height="2.064935106330495" as="geometry"/>
                </mxCell>
                <mxCell id="60" value="" style="shape=stencil(lVjLctswDPwaXzEkQILkOU3/IzNxGk/TOOOkr78vVJeyCVnr+ibLWBHAAuCSG7l7f3542244vH8c9l+3P3ePH88b+bRh3r0+bw+7D3vayP1G7p72h+2Xw/776+Px99vDZDk9fdv/mL7w64hT0jqBOPw+vmCS9PfF56P5y+71zLyQ6mDeKLV180YhDeYxUwKfj0KRR3eYMgOAUh5XsIjQChwpxxHQKFcAKFRHlySSAJdEqYw5EiGO64BUSGQEZOK8DsiV0kiaFGJAgzZSF4O9CYDmRnV0KTGprAOqMe0ASlVBZWSqZQBkhjy0RiWPAIsBZCmGQCEMCLVMoyWUePSpZAqAuSnqEVAZEjHldSzXWns9rjGXxhiaUAJEZOvQsb6bvSmgvq38xxXOEncZUam4JRrk2gBhAcggCOu5f1PlDBBQVxeKDlDxGDBA8mmqKGgrHfWAeGVuuKAV1qtlKWUPYJTWRsweEMAKEnyTXgfUcItLNhpTuiVoA7RwS1qF/Q5xhTgDuB69UhrmUnEAXHwG4OwBqLwtrVk9ADZQ8y79R4+2xRINtVwlFg9Q5JONleQBDPZFA7B6ImBDWCWIB4TbVsAD/0IM2rt2NUuLlhM0XZc8KEVEXPPqYepRRNytgJy9ZGoJplVN0IzD1fa9hkSien1SMwlguiY/BQre25u1nAMIFGUWYho7SAucZAbQMWiNFAHT5lIb532+EvRcOTMgUAIxlEJtTKtpLEXEVa9nklAF/ZAXDZRi5/6ydNVeOTMgwFo6KdtZiVZ44ODceZ0BVo6gvO1E0JyaThQB0zF0QXV2IiggS9r11GyfYWVIn+2zfYCHJvYKzkJChRQ9yxZRBBwsZLFAkbsw566EVsydEouQLtsKnfOYrD48u3no59cVc7dvBhI03vu2fTIPSIv4cxvek5OXnPjri5lovoOvZ68pApT9tgtFn3dQY4uJbplFk+e2W4Wr5vZwusB42r28HO8/zv/3Fx726nhZIvd/AA==);lineShape=1;fontSize=14;" vertex="1" parent="110">
                    <mxGeometry x="71.91765768108553" y="64.31013451306467" width="20.499835924372746" height="25.802206984613576" as="geometry"/>
                </mxCell>
                <mxCell id="61" value="" style="shape=stencil(lVjZctswDPwav2JI8H5O0//ITJzGUzfOOEmPv++qHikmaK3rN8UBKBy7wFKbcPf2/PC63ah7ez8evm9/7R7fnzfhy0Z19/K8Pe7e8bQJ95tw93Q4br8dDx8vj6e/Xx8my+npx+HndMLvk5960Th5qftz+iVL1n8/fD3Z73cv5/ZNXO3sg+S4bh+axNTZe0nEPqnk3t6Jz+v2uUrzxt65dfsaJXkTT/Hr9i1JLZ19EiXne7e8f3mBoxVtUUrfAV9EScpIQUPnoFEyr1HucwhBAgkpOdu0GCRW0mUvtQ8pRfHkDUix5h52S1aXHYDTPocC4JHGwSH1fagIMtGQkvYOVQoJSau4vkotSCuUC6XnTsu0cShi7kMCWBpjDyJuvYOKJznAIQ9JO1KllCUUW9ZMCAEsaV8lNM6TKkVnGZfRaQ6+NIAvkJBA+daDL8a595ehMTAuqNRGGCexp7QqRQaKOthHam/oBns29cA2cz5qRuJvotXaK7HHiGvNOjDcedTP3eQwzO1rIaWZKf+Zs8/S0i1FxcCIQxfYlIRDGBwac1jGw+IQZmStJR2rdahsSoahSlEcQR4a54t1YHQGNEIdHAjZql2HSKGRFMrAtSCJcic7a8+QB24a4ClVPOP5KBmZqMXu2iuKBPUp1j7wBsSRarzFOjpcAVG2DsrmabK7GQ6UOdkqGDhUsjkvUo1JnpsdoANDnzR2QiA4guZy/YyMfK9FDAez18I8cVa1c0+1rDNYLkNV5+Gw7Gal8yU3q7ax/Zk8x643VYK+YOBDAKZKEFVMtk0pGlEFBUNyiNWC70yzr3VOjQxr863pMpiqlZK4RkSm0O3Mq43uf2cvbZO2JbttuJOgL47OvNrPJEgwzxSVsw7AYmElbfP7FzJ4qpCgO5Ohm5+LdhlIzpIBc56pwtJslzF1IrtKgis9VHHnCGxT4byePZlrbQC5t490M6CEhgp53r1ruC59TRu922LAmVXVJLHznb3kNUrl6dtCP+WxuxybwUV8GxwIz6ahHUxETIBNUsJMIzpQJ8VohhHl/cQbez6N39nzK9e0bWbhp727Ym9u2VRLIZ5gBgtVjzd/bbpqj4fPT1tPu/3+9GXs/P/2Uxh+On1GC/d/AQ==);lineShape=1;fontSize=14;" vertex="1" parent="110">
                    <mxGeometry x="117.04020389130983" y="65.31384918701474" width="9.319211523680224" height="33.946229152368346" as="geometry"/>
                </mxCell>
                <mxCell id="62" value="" style="shape=stencil(lVjLctswDPwaXzEk+MQ5Tf8jM3FqT90447ivvy9UD2URlDfOTZGxIQgsFoA24eF99/S23bB7P5+O37e/98/n3SZ82TDvX3fb0/6sT5vwuAkPL8fT9tvp+PP1+fL329NkOT39OP6a/sOfC048xTSh2P29vPGOcvz/5usFcNi/LgC1UnAdIFEtwN5TKZ19JCe37QtTDZ19pgDs82CvF2DgUHJUuQfgG4RKPncADuTcbYB6zNIBAlOotwG+kOtdioEiOEGvWEwSUnNyParkYh/UTBVkWX+tnX0p5IG9OuR6GtVEBV052yyIxgicoDRzfVBFicEgbYFqtoAKmBR5OCG1sK0DhFJPPa2mDFxKeYhSJkHkduT74tFygnlzJH1YS25huOVS9T0gUAYuafmUnkpasQxOUCqHPkrFt1utU0OjbgBKbg8AgUqyACQBninyAAgAoB6LBSAJ0HqwgEgZ3EGpxNbegwOE2GQhNDLesI+9YGjWBBBJSIq1/0CRxBzgSZAAaLVVCyg4y0EsAFWbj1YkpxMQYO4Di0vDLOemccsoIZksTbKWacCdwbTnKc+I2qrTBhCxcufhBGVqglGKQ3k6nIexeBi5xFa5JwCQGC3PVC0AVY+yNQ7lWcAJMlApEoO8iZ0ANG2IemKHKrX3sJxHEYa0cJSyBcAIaW2ZWvC4oSsgfwYQh2aYleyoVSUrAFlgI8mhFeOd9Zzr0HnmQWgdkJuIzv2ZMYBtonWeRqqXotVVibDaYrIjg1SYaZ2TjBB75/B8qyOA2CPSB+OqGZQClG6V+mFOYjCUzP7eOa66FpHFOByhP6bcNC0RzQt6QK/zOlzCiUQo9x6Fec5a92hYq3jea9Z5oR73AG2oSMLS2BiIAVO1erm/MzeRXV9JShvqmj1mnS4URrMdXCR1nzA7j2+b4rq93revg9gUbd1ehg0GTmCLqroC0PCvB8iw2SKBlIFE16nsFsBIsKp4QIBq+9ok+yioxWq2AtCyPS11Ro2wZuuOZtaLCYBciit3gKNwaIvpAoBqU5lnhnk/f2VZB3i7bivAoSh99qvNHQB9uH4ketkfDpdvTMvf7UclfXX5IBUe/wE=);lineShape=1;fontSize=14;" vertex="1" parent="110">
                    <mxGeometry x="147.0951527072143" y="68.56263597110262" width="15.169322966936761" height="34.08014574167498" as="geometry"/>
                </mxCell>
                <mxCell id="63" value="" style="shape=stencil(lVjbUhsxDP2avGpsy7KtZ0r/gxlCyZQSBujt7ys342WtTQ6Tt7DoWJZ0dPOOb94e7172uxTe3l+P3/e/D/fvjzv+skvp8Py4fz28268d3+745uH4uv/2evz5fH/6++WuS/ZfP46/+gl/TrhAOXRQCn9PH7iQlv9fvp7knw7PK/lMWmf5RDlelo+BYpsAqRI3AGCqaQYwtQwAjcKsIeo44izAzksyA4SSXgZwoJpnQKACNHCjMgMKCVCQK2WdbSYF8lIozVGzG4bL8iVTi04+APmaqJbZYGIk34hnVphDK5BXau78SBEBCrVZgUU9AdpV4/UcYwsBA0AJpC4RhArgaVbP0yyQ2FypzQDJkEX9xrPRhSmgTDCWzQBzQwLJbDRuc+qYoysANNKZR82yHymIJLNXWxleOA+oPpnVqMrASTJcsgASFRBoziNVFoB9ERBo2QAKZLdYQZoDrZUiMLroKD8rDQXnj2wAAWiwf7N6LzHQ0G9cPCCBOBhArwM0nz/9SqDoqRJvNKAMNUBzgbP8gemwlMUVQgCZTIVmD1B8p8KefRmUVgPEq+hqfs0bAGomFrkyJ7XKSMJLZHKFrAMw+4L6K6EqYOdJ3HgJ2SAUxQOgDTKqyipwqBh3Dc0DIiBTt2FDV1RbzUvblMug3BvAtayeckhD3VSyBLto51LzAEZe0jM2CKozOlJ4BVBUNnRTZ3jUhYsA9QBIPvXDj3EJ1ftemDYZV3CKlg1bFV3pWkALm3xoY4K61IKKy2nrMcAGqYObHzMxHipzJmGvArVF2yzclGgEFjQwLcPIqjAlNG3waFEr9kWQcktbXsYZSyk02PtJwOalALxaxgS5zGMyMvC8AckXmdIgwFzEs8UlQhcx+1VGElzHsvhhJtsReJmJM8BGtIi2mY2GvpUCo6stF3M7sTETjRqV/XzVB1lQlWxh0jnfKvRqn8tnYmRY6ot4eYYLmY2gLsxmEfCQBL85yBjczwd5aQMLsccgdGnoVrejG4vQWN9GJ1uFDLWq7pD5Rrazos5jC2RzLMILXxS/miSl8MnThwtCHkQ8HwWfav0dAWWOfwVghbtS3pyv+N3Dd06TR8WFR5tcyQtozWl0mLU8qI6R2kY+A3vjYMzaXpCVYXh75X80iwTf900eZVkY28dKPmJ5d36FE2TwZc7kGfjz2re/z+Xtx8dD48Ph6en0Trn+v3+YtE+nR02+/Qc=);lineShape=1;fontSize=14;" vertex="1" parent="110">
                    <mxGeometry x="179.9902121009659" y="69.67095995918521" width="20.303884653699697" height="35.23642092759974" as="geometry"/>
                </mxCell>
                <mxCell id="64" value="" style="shape=stencil(lZfbctpADIafxreaXWmP12n6HpkJKUwpZAhpm7ePXHcxK+OfyZ0xn+WV9OvgQR7etk+vm4Hd2/l0/Ln5s3s+bwf5NjDvDtvNaXfWq0EeB3l4OZ42P07H98Pz9Pv1aSTHq1/H36OFv9NzvlDm8Sl2H9MdR87/u/F94ve7wxUvmdh3vKfC63x0lHr7TJLX+RSsfSEH+Jyp5I5XA3Gdr66Za3yiCOzX3P6++OsoggB5p29w/ROJRMAronVZffhv4uYDJVKNfYyYKgoSU+mPFIRCAVkrFPojxUABHGm0Z8IaSZCOHPn+SFkfAEJSoYZeSBqGhI5EqXehVuKEeFctn0DaxIZI+VLXeW7WZiE5mGYtLLEvqEDa3kZU+Qx41TFbPoCUacZCzxeqQESLOlA+An/VPlsetSJHwSQsw1L2tvKVZ5Bgb4tGeQcUyhTNeRKsSiEpC/uADzfOjyomLM6TKQGBhibfq/h7oJ9AdaGHFBCfF3r2IL/ayBcFGYG/QilaHo0mXvhboZ75RoNAvG9d//o8QG+uZefaXxBPRxwW8YT23aK+EmiIykfLe6BPR2L4TBnW79d4H0h6h4tQAQ7oaOc+A/lSc7cVVO3MSAJH9zgVex8iUwA5S7pumUnsKQIfim898zLr/b0Fh83CxZTBkar2ib4P6b6C+kQVK1TPcBKX0naHS6bh9qE7ne+jmvHOKLZTa+IBrzsp9x5HWAiSbKeO5FHh607aC1UookGTW13NfECrUGqSmXlGhZNsJeu6iHgNRzZ8RItHbJqfeTQ4lDfx9O0jZNW+EVwbDWt87v11VNGilWz8HfY3tT4184z1YCaBa6NkbdU1nfrOovjFb7j7vF7MH4wvu/1++t68/t9+YOqt6eNUHj8B);lineShape=1;fontSize=14;" vertex="1" parent="110">
                    <mxGeometry x="222.8719594723525" y="67.41012231482568" width="20.408448915749887" height="33.28653105084015" as="geometry"/>
                </mxCell>
                <mxCell id="65" value="" style="shape=stencil(rZbZTuNQDIafJrfWOfZZr4F5DyTKNKLTolJmeftxJkqoDfnRSNylqb94Xwa5ednfP+8GDi+X8+lp92t8uOwHuR2Yx+N+dx4v+jTI3SA3j6fz7vv59Hp8mH8/30+S09OP08/pC79njqnUCeLwZ34RKIR/L77N4ofxeCUehSQa+UopbctzohiMfMzU6jYglaQbgDPUkJmS1SCNYtwGqlC3QC6UyzbQ1++tPjMx0KBAtUFVnYI0dBKxgEYpQ6BmC3RKyKRO3ZrUZMn8JtAsoGHo2CSroWtmGnbaAQUmTsPa2AIaaFCsU+KcBvUK5UGLuXugoigVasWbFJGGQpIskIlRlDJ1Z1KE/aBAs7XUKgUMuH5oTBkBxYe1NkoMgfKuvCNKXCW2mdaO6wKB1j0QUQO1peWvgIZ86EteVyAtOrcA77SWBtbQ2eeB0SwO66xeCY00bjlfrhG3XKfsWi5TwECws1JT01EHNT/vp5bDtVGtSVdx+CJiGtduWia4InJcltoClAJ7SAp1OwdyWkL98SLVcW0DmzJV0BKRvUm6FxPwYd1pqzweA5GK9UAiVVAa0W9R7rAyAhVbq5+cGsFfJnp7MPBXS8AdGqoRZOBds8Wy1NWWvF3RU0ZA0QViK6+tBMOTbXoz3FTRWy8UwKSIlG0wIxynvHzs7YpEY+U/j85PxfXh7b59HA+H+Ty+/t/fw/pqvqXl7i8=);lineShape=1;fontSize=14;" vertex="1" parent="110">
                    <mxGeometry x="220.00009160485752" y="85.39971342669571" width="24.687147385746357" height="3.6890728527657757" as="geometry"/>
                </mxCell>
                <mxCell id="66" value="" style="shape=stencil(lZbbTsMwDIafprdWYufgXHN4DyQ2VjE2NMbp7XGp0tVBddld1uZrbP+/vXR087Z7eN106N7Op+Pz5rN/PO86uu0Q+8Nuc+rPsurorqOb7fG0eTod3w+P4+/Xh2HnsHo5fgxf+Bq5UqCUgUL3PT7JCZB/n9yPwL4/zAEG7xTABJwNACGRAoqDlJYBDuCDBiKUsAxkgogaKOCNkJKHonPwzoFzy0R0EFgfwUBxGQgCJA0EIKOuhMBaCGaItAygvM4a8EDFADIULYQULnsjJA9O55ASkAXkVuoo9rKqlKqwExCBLB0YnJY6St0Mb6RSU5wDRkjsIJdrQhI3Nw2xknRJ1f7/LKu4OWvzDcKhCfh4jTXEm6zLumI+zoD6hMHexglZgGYK2A2UIrAWbrVHZW40PWqPgUBtB60MGorgmhNklBlJYIGkkxiGpTH7pEezFmJlHF8N+FRrMrmvQLSUq7pO+719QDtbowc2rDSJWvcHXztw4fuNVWVMZevfAVCPGERAwxU+1u6djEd1cC5JEDQgRxo+DX/GKkIwAoqprZCUzIgn+1Yxu2841UacxWPsn/XhJWGnHCGLy4Vj2+/3431l/r69oMij8XJDdz8=);lineShape=1;fontSize=14;" vertex="1" parent="110">
                    <mxGeometry x="239.20796917333246" y="25.614924196273364" width="2.1842514278500857" height="3.3232487880851522" as="geometry"/>
                </mxCell>
                <mxCell id="67" value="" style="shape=stencil(lZfbchoxDIafZm81tmVb1nWavkdmQgpTChlCenj7itIFLLN/JnfLom9tHX5Znvjhbf30uppSeDse9t9XvzbPx/XEX6aUNrv16rA52tPEjxM/vOwPq2+H/fvu+fz79elkeXr6sf95+sLvMxczFT5RKfz5/4Zq+Pfi69l+u9nd2gvV3r5SLcv2ialo//1EDQFK0QFCBeyIC0nqAFszAiAnktoBHIh5GSiBtPRAo9IA0Kj1QcqVWl0GqlDugVKI0zIgeY76JQ1MSZaBFinlDpBAAqLUqg+rCAlInAZq/QotU0alFAKF0BHaKGSwhFJLHqggc/a39nG1T0SQCJV5yzcA0oMWytEDTQHA8wYu9X2Nw2Jg1S+hoDjaUH4nJ1BxCKXB6wTCZMURxSdCQOZamUV/A6BE2Aqp9YDMnWTJB585oQBE2nTuEhfAWhkANA5RqpSRIphyGwBcTBI9UJAgxLcBA1B3tbwG9VHiiCU3AB+soENpZKRRJR66gCIFybCCUgblbTGJyQMNOc132obi0qgjgBSnQ2koCZZoHYAMfDAB5TyEFXUNk2jzAINMfxqQ5rdkJ4QCPdgpx31Y7RMM8lCHzieRMnC6Jl8aNVMAYS2ZWl+tpcJGlgtpr+kssBmzHbO9D2yZBivYxBTceHI57O8DkUq/pZTn1nb/pB6mjWgDEDpGB3uG1Z2oulkD7ifMU8Jl/3MWl8z7lEXY520YdAMojGb0R+FlDlpwlaMzz6DZ8TxzXc0TGlVneVzNA8iTUGRvjmZCL/gAx7UYqPjNR+Cr3QxC8rFB37eR19ujKrMyDn2qIpTup+9GH9rbw/Ui9rLZbs/3uNv//cXNXp0vffz4Fw==);lineShape=1;fontSize=14;" vertex="1" parent="110">
                    <mxGeometry x="240.0140359989732" y="25.408438499837644" width="8.08507588455177" height="31.7976751819715" as="geometry"/>
                </mxCell>
                <mxCell id="70" value="" style="shape=stencil(lVfLbhsxDPyavRKSqOc5Tf8jQJzaqBsHjtPH35fbhWST650iN3nNkcQhh6QmfnjfP73tpuDeL+fT992vw/NlP/GXKYTD6353PlxkNfHjxA8vp/Pu2/n08fq8/H57mi3n1Y/Tz3mH3wsuUoszKLg/y4dQyId/X74u9sfD6429d1Q1IEbiBACRalCAlCiiE6o9ISdqeRsQmDwrQMnEDgAquawAlTsNdwEsJyQNKMTAB66UDCBTqdsAIbFplmqg2LYBKRB77XSkxNuA7Mg3TSv3M+8DKgXtQ/IUgQ/CutMnCA3BbwNqpKDjIKGsIJdaJu8UwMNAi33RLjhiQGornfOrvUP7rygSkgFDYt+sfUP7N0o6yKFTvGVfi44AZSjm4d+IMTEQwnxA1VlHrmAHtDQrvNBMkN5fDgRJPQdAB0zqU0IRKPZCAkDCbEO3NwBUvuYcDcYFpMuWOiNXigLKiRGhoWNKKCeSpSj2+rplbzQgxQ9UX7FvOkc9FSB64Sdpfx1ldJ9CIRp7mHLVprTYo5pSqbC9D9ak4d9TRvs3KlaTDiVcsxKIVBD/zdaU3IvGln3W96m9fW7ZeyvJiCX/KXtpjE03AfZQkUXmAx3gmCmCDCqjyA6GXM+p+50v2JQoTBFwlGJPmcFpIg+CEFciaLIFULF00mzLEO5NwmLUcW64ls6joLd3QrXUt9UYlWBqyyiYtXRkZkE0SanNOhAysyAx5z4+3IwsyOfV/pxgA5e8MVqWgQWEbZSeYR9gIq3aMeMBwXX6xnzQ4IAj44++v/TvBv01tSuMiep+wGyvkXkCadlbZYo9en0ESmZglGYGEogp8MoeFCO281MY3fO+jikmy48Dxfqzr63/28vi+rR7ORyPy8vw9n/7FJRPyzOSH/8C);lineShape=1;fontSize=14;" vertex="1" parent="110">
                    <mxGeometry x="237.92435214602256" y="50.676517719937806" width="24.38382356448983" height="10.668657762995167" as="geometry"/>
                </mxCell>
                <mxCell id="71" value="pivot" style="text;html=1;align=center;verticalAlign=middle;resizable=0;points=[];autosize=1;strokeColor=none;fillColor=none;fontSize=14;" vertex="1" parent="110">
                    <mxGeometry x="220.60278560024653" width="50" height="30" as="geometry"/>
                </mxCell>
                <mxCell id="72" value="" style="shape=stencil(lVjbUhsxDP2avGpsyddnSv+DGULJNE2YAL38fbUNXtby7qG8LeHIlqWjI9k7uXl+vHva79g9v1zO3/e/Dvcvjzv5smM+nB73l8OLfu3kdic3D+fL/tvl/Hq6v/79dDchp68f55/TCr+vdo6STEbs/lx/8JVK/PfL1yv+eDgt8JFS7vGROG3jfSbnOoNKibfxuoGEDp/I1W28RIr9AYQc8CdEqv36jipYP0bK2eDfDrSKT4GCM/hctvFZt8/G/yAAz1Rqh8/NwS382/ZzwphcgAap38CnFuL/NNAjF2QgFPsjc6CMXBpyzAUbVArcB5XJg6yVQDX2Bpk8oEX15H1nEKQRd90gtbQ2g+iIkYHWSU+kmCkAJnnnbKkpGQuohZpJUs8lJgFhmk7dx1UjHT2Iq6fY71ASMS4H13ND9wwgTBqU0tdzjc3JdQHQmBhBynAHFaxiXKqtZtcNKKcBjxK3gs+Ae6oYYvFIMhxJz+1aGts38K5YfACscOSjDSiqf2c5MfEQrO9bg5nxqWVkI/6+WHwE8RditviAWghxHtZHFF1ZH7WE2NiyiI8H+NnbBT4B/qTWgBf5RS18UC7Fo/yq/2b9SgLxPlh8BqISyI/1CPgsVqoXSrlBIFsAFRLOD4SrrcNtFYC3eCRZWmBDAiIUCFct3oGAqkAYvCoiPK8d6TKMp28T5aIAEiAct661LEhYwJZwikcz4yfxOm24sYIB4wIPJw5NBNZLIDTFnw24JX29JlPL6NxYC54zhyrWmccD1SpDWeYM21jVQbenRfaQpnrE2udZ5xW4Aw8zVIGdr9Q2Ys0GHkpFETvt630BUVXDWvvEiWoFHnBMpiVAcUlxMHC4HUgj8zwtxzYBrBuwvQNOAzzQCzXIfT3oFQEJhhoUc8v0+NDBDpoJtqiYbEmHdgNYL9BCqZfs2DR/XTFqGxHf/UFZ1hQZvE7zIKI8RpThBl6aIs4GGQ6NZcixjvro3mgvRMzwXSDbnjmNVUjA7JzPAjU+2KFI8Qn0HLE9hAX2ZLZVNvmDe5pYPLphas8c4p/AeZ2VummshTOFjb+H8Rnuih+8gzg740wewvU/9670MV4/3h+xHg7H4/UNbPl/++ilP10fzOT2Lw==);lineShape=1;fontSize=14;" vertex="1" parent="110">
                    <mxGeometry x="22.850009050155677" y="145.64235037938988" width="16.268958246289912" height="30.12173812315359" as="geometry"/>
                </mxCell>
                <mxCell id="73" value="" style="shape=stencil(lVbJctswDP0aXTEgQXA5p+l/ZCZOrYljZxw3y98XqoaqAVtwc9OCRwLvYRvo7m378LoZIr6djofnzcf4eNoO9GOIcdxvN8fxJE8D3Q9093Q4bn4dD7/3j/P768NkOT29HN6nEz5nHEMoEyji1/whIFT6++XnbL8b92f2ESEGBUBAXLenCrUq++yez/IbtUMMJawDGgNHBUjV9agVGzIjlOgAKnDWAIaaHUADTjrm2Fm4Cgi4kNgRJQCye0UzgNZ5WANEVoBagByfJOqgeW0ENTmADNkA5IjmABI0DTjj4TqCIOhkkrCwOIAAWdM0pYt3AwJp6WqD7Ghdm02/GiH4gKhvKNRTfvUG0tnEkDwhJAYtNRdoXr4GqxxLDN4NBFHTKjXHN6TWQacC2QNIMhnAQsNqumoAEzSvb4gOuqoz+gXR+nkLoPYj/ruqs99pLqSuCapHk9CupRYtXYA0PwMogDfaq6mgBsWv0cIWkD1eBZC/A5DuW5qmFXuHXptBqF3KkhvekAt2aHGF4riUL4Zc7T5eDwESWXvPodQ1WuyleTvnxz4yF/vUu871VLVtkn0J0Go8FZszri6WBin/5GTdReEkhOQUDtriJ4LkJClC1vyLgsXxP1i95ARvA4i2aEIGdPiUEjBbWITszLXvbm237eXh34r4NO5284Z5/t+ulPJpXkfp/g8=);lineShape=1;fontSize=14;" vertex="1" parent="110">
                    <mxGeometry x="56.95689523312876" y="152.12131775745888" width="10.718264728500799" height="2.2071910775753167" as="geometry"/>
                </mxCell>
                <mxCell id="74" value="" style="shape=stencil(lVjbchoxDP0aXjWS5etzmv5HZkIKUwoZQnr5+2rLOMFa9lDeYFfHtuxzjuRd6cPb5ul1vQr8djoevq9/bZ9Pm5V+WYWw3W/Wx+3Jfq30caUPL4fj+tvx8L5/Pv9/fZoip18/Dj+nEX6fcVUpxwkV+M/5SSKt/x58PcfvtvuL+NSIwxDf+gBX4yOTpCFeIokuA2w8zSOgUMwAwH28DggCAbaAICMgURQASFTGGVQoBLAkoTrmoJEqAGjoK+4A27cEdilmn3QsFMC5ZSEZzy1FmHSxFZcBYEPEsgyomerIpFxh0i1R4gFQMmWQgzATj4ga+xjXpzAyjWtqQgkkYa91zLpl0gS2yfQwnlyrlEHWOVNy/P5M6zqbjJ1OcvYEaC4olewBjPgaKI2KaJG0YYKPB9HMR5CqhYoDBEgOW1IIHsBoBiV1OUh3kusAI/joTI075a8DPth5AchAQqH21/8JUKZ415LMh1q9J2lV4jLbVsAlA6TqARWcgwGim0FhhTDvKy5pcyagB0va+cYtejfvTLcEVKglD4AnnTs3LwDIv418oXqAAO8zPdTqdwn5jCmuzc6hIZsRytkDGJuAJ5+JFgEsh3aPG0+7NAPwjXOYCSgjEyizXeJO+EUuZQ8ooEDcDcjm3vOTBjmU1BV8qTgAqG22rdznvF4V2fdk9aMmLfUCcVxSqbAnm167XsCMDLDVyqgrKDnixjV4E0gFCkgLybhLybiE2Bq8e8dIjLbVy0ErCbIlkjHlyTrBgmbdkrE9ofJDaSy5U0ZAzyK+bbBWvSJ5Bj+DKC5X0dOiUQMrsp5WXB9NDZyx0c71h0wB2LZ1e86FGTYl1VrmWTxgtd3GnH8xvCxN7a+4eKjL5Gstd1Us6djdfASKrBbfPgecb/G3zwAlZvGOQNoPcCmefTzij+Ur4/pj79aX9tPV/YT5cOdt+3a8/fi82r9sd7vzl4HL9/5TgD06f0bQx78=);lineShape=1;fontSize=14;" vertex="1" parent="110">
                    <mxGeometry x="57.82386000018914" y="151.28094831957787" width="10.83932793373333" height="25.67893245337268" as="geometry"/>
                </mxCell>
                <mxCell id="75" value="" style="shape=stencil(lVjbbtswDP2avBK6UZfnrvuPAk2XYFlTpNnt70fBkGvS9sH65jg6pkgeHlI6xIf309Pb8RDc+/12/X78fX6+nw7xyyGE8+vpeDvf5ekQHw/x4eV6O367XX++Pk+/3576yv704/qrf+HPhCuNSuio4P5Ob3wiP735OgEu59cFoDpqGtDGi+31lZxX6yNxhetTVusrZQf3U/T3vSef9gG5UGwawNSABfaUtcfdhbwPiJGacTlSBD77SrUqQErjzTZAklAUgDMF3gc0ijqoOVMtwEAkr3dUMnngc5AdsU5bGja3gxSIo+aRo9D2AYmp6qi2SBkAuJE3FhJl4HSWWkjWAtpSYUrG6UoNcK848jpvNcBqEO45nbiSBt+3o9SIvQU4wO4k9aajVCI54EMqw8UZ4KlFaMEZLknNAqcFULWFPKvUdpTcqPgZIJ8A5JOwVrYAlGmOY8cLgEMW2HKpW0AqU2ziBFAQoFohznPu9+rBFJDkgUHisoTV2UyjAhILRYe1BKrYh6K1WMgHASLehnwJFxBbmZGiRfSWTHOxAA+ktbcHtltC4i0l2qoFBBBWqYeyKlHUT3rFRZuHiFRDatrIjIdyLxZYk0+4hOpBnM6mAzU4Z0hYw6pEE06cDxbgUE3z+HsB8KiAsu1xAmDE1s8C6qykc1gbJeBD5aERc0NhKGQ1U1y13QYSJ1tKuh4aQ0DXCNNFKwRITTftg3cO96xAvlkTCWQuZCvfMgp4IH0y/wTthAQONjkb1lIoAXrPDi4GsoQmPtsSOcF2IhOiKdDkxxb3QmS6dJjFedtjEUq9JRljkYxJdzBCKdwGLojIBb0jPI3VOJrTWI9Z1NrgzOwATPGClXOSqYINyfRo2qEcTQqIUAsjp4ujCSOAX53eMqRdL3bjcxmT/nZQV0ODAFCH7uc3nbVOC9A/a7EHRAGgOUYUzihSB4DOIMRoK0AEYf0YyhdON0Q9vzpTljFW751azSlXEofmeukDZmIVaiDyCSCvuOSwhc/dBPwHQB4+Lh5ezpfLdG+x/N9eVMir6ZIjPv4D);lineShape=1;fontSize=14;" vertex="1" parent="110">
                    <mxGeometry x="95.32048983153527" y="156.95293722831025" width="11.961610466744332" height="20.525086319050388" as="geometry"/>
                </mxCell>
                <mxCell id="76" value="" style="shape=stencil(rVjZbttADPwavxJ7cK/nNP2PAHEao64dOEmPv++ohhQt15qiQN9siaMlhxyS0i7evT4/vOx3wb2+Xc5f9z8Oj2/Pu/hpF8Lh9Ly/HN7waxfvd/Hu6XzZf7mc30+P1/8vD5Pl9Ovb+fv0hJ9XnJPmJ1Bwv64XfBJf/lz5fLU/Hk4r+yKhdvZVWt429yqpdPYquW7bhygu9f6IEvsI+9bZO3Fu216DNPv8Frftk5OaO/ssJRH7LME8XyUSPlOxB4AhVXqCyVhUHkIQ7V3SxcnbHCUpsQPAyURcikVyf0JGVCTo0GzQJYsjZQROYh90DZJIDAC4/oRaRAlLcKn1QVdUdiNBIwbtAM2LZ4nzc+UsgDiL6bbUnJRea00l+G1AQ22qBTC1NaTJWUAlLLU6nJBoLbUmmi2gMpeQB+NSlkxqaQL0HQBRJRZDG/JQqUQB8CYPuEKazPS8ZAGZlAY8jmoBjdEKBZcBwGhFmoYTCmMJissWEFgM0XYN0MC6BgBqMl2kBA4ItjQq6RqTS9UCHKNVbasEb7Q00pA4net3K3Fx0HQmbQacWJeUTiCwroNEHVdcGILOXNOlWVojicG7ZSivUk2Lqc3zY1VMjtHUhmKqdAThdh40yjYNeJybBdBOhr7VC2LFw39CYESot04VIgnsMzFYgCN9ALO9Du2VpS7cqnDWmjxUb2JwdKHBhmr6QE10GfB1WDfarKqt7cHMxRL4MhDE9zFkrNGkl2F7yD0gJUorlrLc06rLan0b0GZNrvbEREpDl8pZNlG4xAB1FsxSroXmQZdGtAACVbU6O+b4SEGE3iyitFfiduqzsNTi7UJqMyEfAqUUeYysPgBcYatDsQHjyEg8ynNKV/ZsJGK17ws78AB0qAnH38ekFGufiA6CFRrsIyPUvvxM73vk+ctKvuKH+ePmAl7s69z/Nux9tvae+D8MQkgmEj7doBhknPpjRI9mWYli/vX1/+/2+PHxreHpcDxeP1Ws79tvE7h0/a4R738D);lineShape=1;fontSize=14;" vertex="1" parent="110">
                    <mxGeometry x="133.90830646590575" y="158.35216873056766" width="16.982571754234414" height="21.155723839476195" as="geometry"/>
                </mxCell>
                <mxCell id="84" value="" style="shape=stencil(lVjLctswDPwaXzEgQRLkOU3/IzNxGk9dO+Mkffx94bpURUjaTm6yvKDwWAAr7eTu9fnhZb+L/Pp2OX/d/zg8vj3v5NMuxsPpeX85vNnVTu53cvd0vuy/XM7vp8fb75eHK/J69e38/XrCz5tdSBT4ahX51+1OopT+3Ph8wx8Ppxk+MjUZ8EJBtvHCxGXAR5IK8EotDPhAytv4ZHgd8EwV+JMbheLwDM5XJhGHD8D/yhS9/wz8qY04uPyUvI1vuf/d8Zli2cYHnuLrBo0qCLi1ft4UQOkpWzcQanGMQCiCEGqhPIZsJEkN1KBSTKOBUgBPKBZDG0ktlAGrjRU6Bp0tbcjAaDHSLltUgBcpdo+7QYlUQQySiccYSqUMDGL1naNCqsBA+nmTQSUFMYRKaQy62hMiMEjdgcnASglcyqRjzM2CAtzLFEbqGXszmhYUxeMrOF888WbttJ7TlQf8rcp6hkiWAYBWYCrs8QxKZsMq+YSi8b4cFgorbOc3j2cQr/lfR3yB6yBQcvnM1GD+pXh8Af5If/oMj5osrZyP8mPDOfp4A/A/dzrO8AUQtCzOVxJQ39In84wPDBusLfAK8pP9WDR+In+SH0FtmsQb9crV4xvgT6RcFni0Ljtb5v5A/tcFHg049svV8onqy14dWH2R/+yXhuEj7Pe06Ee0xj6Kn7I3LYAC+WYbwwVcbUQCwoXmJ6gWLGCTF4xqQwa0pATfM6VA9SHVD4nC/c56E1iPj1XL0lX2epeVLk4mfaM9Dettn/2cSxNz1yWXOeAkV+qqbV3UBa9LTY8wUoHVF86aD6W1RT8rgkWFlGz0w7HCZV+VkqsbFI3avEMJVs1eJaLHo1cJE6V1gUe7qfrlkfu7yBZP3TK2zgEkMpXu/FH4arMcvorlpa1qpxbhrrdZUZvHg9l7fdX1fIDazMSBP18RPpImh0eDJSz4abMdaL8QfH0Vil3Du3wWvPtW8ND/4PmQYX9d4w0OL6hels9R/KWuRjbrpQ5fQP9+9NPH//F28e87y9PheLx9ppn/77/L2K3bNx25/w0=);lineShape=1;fontSize=14;" vertex="1" parent="110">
                    <mxGeometry x="217.6092406172197" y="160.11175565901885" width="20.11633046683255" height="28.301441991519596" as="geometry"/>
                </mxCell>
                <mxCell id="85" value="" style="shape=stencil(lVbZjhpBDPyaebXafbqfN5v/WGnZgEJgxZLr72M06QGbTKG8DYNrfFT5mNLTx/blfTPF8HE+Hb9ufu5ez9spfZpi3B22m9PurE9Tep7S09vxtPlyOn4/vM6/318ulpenb8cfly/8mnGFer2AYvg9v0hCaX7zebbf7w439hyoRQvolMs6QD0kC8iZOgCkQiF5QOJ1QK5UgwVEKsBDEWK2OTQqYR1Quw8pCky6J0rNAAIJSKFrztXZhwjsq2eBqaF4NGMbTyFB3+8UrT0zCaiQAqRbQB8prQGc8GIlQSn0QdFCmsoiw5yL05FqF4XUfJFyoZwga39ltgAaSYOykHsA0kWkmH1IEXkIngdNGklblIfsy4qkJ3c8KHG5Q4BrTxZqKOlA0VZJxYc8dB4j66ruguzjEP+1eyrqhjzc33QnaoZKLM6+I/vmuzlTRLqTMUCHvZYY2XdqlmOucEByWBJcSM6DlFUXbqQy9Qc5uHZWVSDSGlVLsq4FRjKqfsprsyUU0v8CGlOwA6PpnAVElz4m1gCIDikwwzQAtsrTmZOBVHV5RislZQZVSXll1wvhgbop26S1XxHTmZptBmkjxn+nQMUGJLqrwNiOftVKIkYXDCVb0qbLTtbtA1XLWctwKwS/RapKHTBw12o1UQCa0O/beIqKBLRmGLNwsWc4HXkcW0sX6H0FVk4c1bu5vhrQTxoCvjkgBcSTh/ebQYFaQC/aO3t00T6+gPXhej6/7fb7+fq+/d+f2/pqPtXT8x8=);lineShape=1;fontSize=14;" vertex="1" parent="110">
                    <mxGeometry x="224.86749101527994" y="178.121913503506" width="13.688998892893778" height="2.9910883416944216" as="geometry"/>
                </mxCell>
                <mxCell id="86" value="" style="shape=stencil(lVbbUttADP0av2q00l60z0D/gxlC42lImBAK/D1y3XWtrSOGt7WtY610ji4D37zs7593A+HL5Xz6tXsbHy77gW8HovG4353Hi54Gvhv45vF03v08n16PD/Pz8/1kOZ2eTr+nP7zPuCCQy4Qi/Pj7BlL68+LHbH8Yjyt7EWAx9lwhynVAJUhsAJGAgwPIgNkCBNADaAjBAFKCWhxAhYoGkBOwDxDroSSYHp0rcTIAiRCrA0iQbdCaN0I3rUgWUCBlh7gCYnkIiICOC2FINmrNAzkuSu2p1rAiO4AMVG2aBMRJU4kQrAfBlultAPceCkJ25KoAscxlhOqoT5VQLCBRE/A2QKDYK8UE6JUc9dqIGoOjPslQY1+j5PBQQ9Pa4iEAeoAIVfoYxCuI0nhdssQQPEBtIS48EIR4HbBS80J1gOoQoUXaBSGhCfhaZ+p6pWhj8DwwcFek2twc9clSYKuSS07U2lY6qqt/pW8DlIfa8+DZa44sC0kjcIhmqF35xPaHbZ57Iel08Ho3tnG2kjY59fyfipjd+yOQ1QRpQ3DyE4Atw8G/v5aJFWkIUBwJ6SDp+lcb2Nt66GcnuXNKnXejE5vEt+1TXwH+zNlcR7xsfrm+6OHf7vM4Hg7z6rT+3u9K+mres/juEw==);lineShape=1;fontSize=14;" vertex="1" parent="110">
                    <mxGeometry x="219.89670850552147" y="179.29560802342644" width="4.978222823287524" height="2.1871176892950643" as="geometry"/>
                </mxCell>
                <mxCell id="89" value="" style="shape=stencil(lVjZctswDPwav2JIgudz2v5HZuI0nqZxxkmvv++qHsomJK3TN1temASwi0M7vXt7un/d74J7ez8dv+1/HR7en3b6aRfC4eVpfzq849NOP+/07vF42n89HX+8PJy/v95PyOnT9+PP6R9+n+2ykxInq+D+nJ84ce7fgy9n/PPh5QpfigRv8J7gm5OqAz5IDQRfxJcBn/uDVbx38327gfcSMzmhSm2jQZFCjmhRinEhSvXbBrVITIOBBimJBLVKGoMavQQS1VwkjT4kJ0G3DVKRVkeDJqERA6R1dDpX8XXbICZJ4wkFT0hYo/YgdoMaRAk1cEIYw4pA0xOapUbzkkgeUpU4kg+5r+SEjJ8XJ7RITmiSwuhDFCVsTYjJqE+QhUYpWAEVXIlkOjSr0JwkEgPIxY2JQ9xolMSPeUtcoQtFgypKyO1s1jRJJvoEa8b/D7UXtXWHc6fZbOBFicOaJY8eexQA4nH2lkeoOSQFWcWbgtF92uJpygYficc52xTHztuteqT2/qzKo5YYPLRNigvwzeIrEXKG8scE5M6Rrf8vo7/gOIt/6Sq/4DPzNy9qnTiGhwKjwQfmr0orFs/8DZYPlXZx8FOT8beQMpcXksTYwPFuLItQ0A18NHjH+Oxs2UWAWfx9//nC50YqEOJpBB97N9zSoysGT++DVhotntWTbPWCesLyWxclvReYTb2Ykt4D8GE9Un6ioVSDr0yPtdPrwrfI7gM6BoNvzN81PIknGpZpeX7O4HoTjpJHh4N2yW31JDMXoI+zluEx0I0G6JKVcLT1CXSmUOhOrR8Q7UyK+Yu11UlThkSJTiqKLI9VC7pjacacUYxBo9sN6qgxKDdGCe194mqIZZ2sLHyolZ9Q7FzdZq6sG/h+gdmg8uaKIJoNyvElMKldDlqjd4oYcscwTXseKahItfVaaYfSZCciLAeNcENRQUcfqqczBYY60zPLzPh1p71dlVGW2aI57SujRLG2ZZaH5d54I9W1t4G5CLSe/HUyZft6QH1vXeu7LzrhGCUUMsbvmvqkeLWOB9LbkFe3GK7ZelAXSxr+geDhc14Ms3y4KLY5s2aCHVDtMF7ZzojmbPGZ7fpo/nZ4UcaibPctpUJAlTbDIF/PgDfDHX8bsob3bEVe3MdTXS799T3AH4yno8P+Ml+OinLJB0cl9r+v7G7j8eHyfvDx8Px8fr14/bt9n4hH53eR+vkv);lineShape=1;fontSize=14;" vertex="1" parent="110">
                    <mxGeometry x="290.6895940852173" y="159.34437050880024" width="11.382014644138053" height="26.6788470046356" as="geometry"/>
                </mxCell>
                <mxCell id="90" value="" style="shape=stencil(lZbdUttADIWfxrdnpNX+XlN4D2YIjYc0YUKg5e3R1mOIlkSd3vnv88pHR8c7yc3L9v55MwV6OR0PT5vf88NpO8mPKYR5v90c55MeTXI7yc3j4bj5eTy87h+W8+f7/mQ/+nV462/4s3CNUEKnAr0vV2JCan+v3C3Abt6fAxmlGCAJWnWAhsoGyIKaXSCJAUoEeyUltGyAqis4QG2IFmiMFh1AVbIltYLE14FCyFYlJgLRdSITJNolGtiRKRGq7ZzqQE4jooBtI2oFO4BUkAVK84EMsrrmBhIHKGMjUkV1VIphXCGqW5zO6W1pFggITklaQK4G0CKzs0KuaMkCGSE53lARrZlU6OB8dG+TXUFbGfyBoGFG6V8zykPjCLFcB87c/OkNWoPh8hI6MBbQofJa3UdysGtbX3FZJh36YUg1GJySeqzYkr6i53KrBeXbjFYnBjQa6wBofHozmhCHoVZZHTN1QP4HkDima09Dx0whrm7+BBKyE0yc1rQ+i43ofHRBtW4tDHHaEMYwzrym7cXn1ar2AxKvKXLteWuLSODg1ZNsYgRfUc0TWz831xQcR4GYkZweBxmBBHEmRz0x/Bm0AY6garpBofHfpgdfO47HebdbNizn98cdil5adjdy+wE=);lineShape=1;fontSize=14;" vertex="1" parent="110">
                    <mxGeometry x="1.4659405606098517" y="227.8554605684617" width="2.5146227402378827" height="2.52233676160472" as="geometry"/>
                </mxCell>
                <mxCell id="91" value="" style="shape=stencil(lVjZbhsxDPwavxK6KT2n6X8EiNMYTeMgSa+/72wNbVeUd4q8uRtOxWM4InWIN2+Pdy/HQ3Bv76/nr8efp/v3x0P8dAjh9Px4fD2949ch3h7izcP59fjl9fz9+f7y75e7xXL59e38Y/kffl1wTopfQMH9vnyIKj7+/fL5Yv90et7YV6l5tHfS0r598FLjAAhBiu4DohcfBoCHR+SE5KWNJ3gvoewDchQdY86ibd++ZEnmgJ6Eq/aaJYz2rod0PaVRshp754h9E1/GlEog/rQgaYy3iCcVaFFSsgl1JKE4IBtA6bTaiyCNNUYIldS4JqltBDQJJEfaJI8nxCyFFEGDxDGpCS5VwookaXQpu86T67Qr4sYs5SqRuJRUythrpUgkJyTwbARoEk9iiKkTvwOql0jSGkP3eAVoj+o6IIobAc1TfYkIcWwG0DGzoL2oAaD/mF6AOWM7tCKJ9EPWrnArAEETl1CmkuwJjfSDrh5vYmAASEaoIwClJFxaHDB1cL1DrgPU9jQAkYlA7Q25BZA6AFCnE1gdWpNYLUBJHQBQA4CQEaUHoE0ARr4FoBbQ+Ak6tuiizqwOrSdxA1DS00ir6Wk0EGMrAEY1APDsPlGrfAuAsBXkq2pjYENDm0Ug9JbaA7gpS/ROXPtrU7hKlG8BNAug9C4STAyuDyp7AI0WwG5R1MGI8dJALAad6O3ohQJqlMmlxFyCtk4uFd5AZc4Sk5k2ibHvsnAV4N06TW1LzX2qU48G1nIYNpwFsBkXebVkCjzqjwIwMNmmViquuIJsXisVV1xyVsmQN8INXKN5nLA2pbl+U0OZmj2CBRHBpmaDYMqEecbsDujzTPKK/WcWfKZMABhuVD7EYf8xs0BFloiUYWKqo5Rhli0khpTsPYpZVlnlgh2xMMuyE4q37EuVr1hI65gljHWB07WOQoNZli011Vl+B+07xXVA7sxZAVw2MAmbaQNbEBtE60QN7FmJA9zIVrQU0SUwzSx+qW8Uu1Pl6BAKz5asMtszBShq7RMdKZeNyfQO3R1AbLP0+dhTvLedmKnYN3qpw2HTa8sXEoIPdtmIfBpL/a1jtW90SZzeMmDPODGVGPbKBM+uMrHRx48gTj9i76c9fZ2Qd+zdHC/x3/VsbPNJKOH609Fqvyr+jr2b7NnQNg0jsA/c3uRTu/Lt+V+tfaL5+dj73//t8ePfY+PD6enp8la5/bt9nMSny8NmvP0D);lineShape=1;fontSize=14;" vertex="1" parent="110">
                    <mxGeometry y="217.90839773924972" width="25.37808442704909" height="36.86345305415762" as="geometry"/>
                </mxCell>
                <mxCell id="92" value="" style="shape=stencil(lVjLctswDPwaXzEkQYLEOU3/IzNxGk/TOOM4ffx9obqUQ0jaNjdHwVJ4LJaAdnzz+nj3st+l8Ho+Hb/ufxzuz487/rRL6fD8uD8dzvZrx7c7vnk4nvZfTse35/vL3y93k+X069vx+3TCzwsuU2wTKIVflweRiv558Pli/nR4fmeemLQO9oE4bduzkLCzD2HbPlcqxdnnsm1fKuWF/8AfKcSjfaJWt+1rpCyD/XzAun0m1cG+UUXnF4pjvDH1jK0DmCSPAKEgAJAoxRGglECKzCUeARZzQzGrB3CkBAAtUwkjoMKgNVAag852BAIUyuMbSiQFWdLmeS1GVNAIMcxEnhFWavQKa4WRerVSjCBN2mOcuWTdikqtVB357AnoNqmko0vKVIFLJROPb9Dao1rXi9jlYWZfwAowCcrIJlVSADA65wXgb4+sA6xO7AEJNKkBeKSf0aUhl1o/7x2AQV4NULLPawNNakHH6AEZvcGSyB4QcR3UvUFIQVqt1FoWANCkJr1Ll1DP2eVTqwcwAhhdZZFWFHT26mqFQ1I2AYIHIME3QBobYiIfSitTEQ8QQA1Lq9MZAzSUpUgypvU/elQWHaTgmjb2iXpAxT3quaFd0rcAmX0hFDd1Eg/IGOB1ZpbPLUBbiGVBQeuCfdajqHKBimsIgUFPpQ4LACLTRwF2zwYXdKGAJrK80MpIEWTJRqw2ZqlVqPeN+0g7AxJV4JKNG2HkUpU+Bq4DmMIofTYLIK20EB29bdxoQCvbLEPzQMNwFrAQ20jvbHMiSqv4yZsVSl8NvV1mAONKz0SYB8tKCdBbEkUHSJQRwIZ/tw20fsQ6gL0IxAzvXYuhjv0QLQ0IEH0dhBpaaIpfaEqvy/rCJFTHsmWoYjZpu1Ga+8ayLgDFX6G5a866/362EmK07/kRV/A66Z2RvtysO9/pdc0lWgKiP73AXdguweLMI2jh0KX8mkgBmVmsF7mL0tbpbqWCihV6H13XYEXTY4/sap6BM9EvwQn6zl5uI5wNPvjJ4p/m9uP6deTh8PR0+bjy/v/+a4o9unyJ4dvf);lineShape=1;fontSize=14;" vertex="1" parent="110">
                    <mxGeometry x="49.818429148421274" y="224.70307688351136" width="15.832918259237431" height="32.874979968243224" as="geometry"/>
                </mxCell>
                <mxCell id="93" value="" style="shape=stencil(lVbLctswDPwaXTEkSILkOY//yEycWlPXzjhOH39fuBo6BlxtJjdZ3pWAxS7EKd29bZ9eNxOHt9Px8H3za34+bad0PzHP++3mOJ/0akoPU7p7ORw3346H9/3z8vv16Yw8X/04/Dw/4ffCY8r5TOLwZ7khTEX+3Xlc8Lt5f42PJJaQIpW8TsiROBpCrBTqOkECSbcEqgDfK0Ux+EAhAHyjGNzzUT2K78l2TBUo1PsQcOArrr9TZ1sPDwVWCU6gRiFCQrUz0xYiboFtSdqDoDc0ytVqFKijIVQvUtKmkUoyCrgiVOC7XqjaMatRI+oh+zlr071AQmpe1tIgIbooqG5oDkoolqCDQ01nytYaDQ+6+CxkCqjlQt11QIzqEWrWeZpNhrZoweFLgr4T6zseU18zdrJ4oYST06wnovoajDiGy/K5MIQYtaCvsElQTQvuIbtwCh5Cu4m/bhDkCp2CSzMTI4L4FaaEjnSVm52KCRJv9oVaFzgpMwVLKPoIQNDsuuiIygo2kkbNRuFja/4Xn0icMQL+UPH4bFy9AK3IOJx5wTdiEGaNrsMXaqCB4BdqZxjO4J/fGhVQj6phbdoyXHY3Sav9k3rcOaEWqL+uHjvgGqgBj8ax2i4GquPos4IXq4+opaAfvnhU+xSvFx/nwpd5t1uOldf/+3Ok3lrOoOnhLw==);lineShape=1;fontSize=14;" vertex="1" parent="110">
                    <mxGeometry x="86.98502406348871" y="224.3822482808621" width="18.02750386771504" height="3.236310389213486" as="geometry"/>
                </mxCell>
                <mxCell id="94" value="" style="shape=stencil(lVfZbhsxDPwavxKkDkp6TtP/CBCnNurGgeNef1+6C9krrneCvK3lGYnXUNQmPrzvnt62m8Dv59Px+/b3/vm828QvmxD2r7vtaX+2r0183MSHl+Np++10/Pn6PP1+e7ogL18/jr8uO/yZeJoppQsr8N9pJVLQ/wtfJ/xh/zrDRyHRAV9J4zpeCmUZ8BKpIEIjqSOhUKvrhBBIw0AwF0oBhEaaR5cZmhSN4GJUqfA6IScKow9JexjuEooQt4FgWwhIQy1UxhNU+spdQjOLxxO0UQYnCDMxD4yiFDM4wipnjGu11CAnuEfxSihUAUG156kTWoDVeqm+MXOt9TjcJyTKxRNQ9Yl4/XxAqJTqwiKAV58Fw6ewjk89IFd8pQbwkVL2+JgQ3mmhWSkCfKIqHi/Q3+rsUSjOtsiwwviI1SR7QgRilkxFFgRUdPWOSQpMCkyVfYwY+GwtzynNCBm1vNBzNMsy6i+XE8QTChB/4IU0W2+Ca1FaCkeRNDPl5gkNVJ5l2klt1tNWaiktfKggrFaZ6vEZBCn1EM7wDFw2rS2SkKE2k7OnwAglisHjUWWrv6WssFG/rouM2TUI4v9ZfOZF82IKwGFNlMaIVtMyupjV3wdVqAFp1tgNmN2aqB/ZHZlGpwtTBEVRAsnog0Zi4HTOFEYfbCWBMo12C7vxpfSRaa1bxPEEG5kyasLilWBzJYpSpOpmPJuPQJAWs4u1G6R8oehaRejaWOtebSRkasCeHEnG1sK916zljKvDI39z8TlmXBOWH78/io9Nl3WxP+qMiVgcHgoz+5JjqHy9NqobvqL9q69QwfbU3thueEVTy2K8NpWC+jG8FIdHN4deB4IbHnX2zz7rPsbbx+0N+bI/HKYn6Px//+a0pem9Gh//AQ==);lineShape=1;fontSize=14;" vertex="1" parent="110">
                    <mxGeometry x="90.01586884288145" y="225.4186075347502" width="6.050165677189852" height="31.536736377000125" as="geometry"/>
                </mxCell>
                <mxCell id="95" value="" style="shape=stencil(lVjLbhsxDPyavRKSqAd1TtP/CBCnNurGgeO+/r7cLmSvKO8EuW02Q0skZ4bETvzwvn96203BvV/Op++734fny37iL1MIh9f97ny46NPEjxM/vJzOu2/n08/X5+Xvt6cZOT/9OP2af+HPEleFYp2jgvu7vGGK6f+Lrwv+eHhd4SVavFD22/iSKHKH90wctgNyIkl9gFAFASlRyV1A0Dd1OyBGqv0JzFTLdgBH4j6HqDmAAL2Ad11AYkogB00x9ydkphBBQCRfuoASSEAftOrmBHFUHQjIVPoqSSEWkHSg0Cdd9U0GAbUx5xqgdQMnsJDrr1QzPCFmitGekEBACq1N1wCG9E7RXkmrlAE1YqXSX0kSORSgVzKC0zeIrd7SuwgJSJptG1SzSA7BKlrxgrjaaLPCJ1BTR2nAO4j35v7qUYDZrv3aFc+tJxt4HvAO+IvqqvcjlWZiVJ/qLd4Ds9DTewYVT4L8jkIa8EBmqVVvdR/E0Dz0VxkC+FbIyVBPNEIGviljQb/UpnrBKB8Y/H5ubF/hK+iXes6gFzQy1dSqxQvgp1pKsPiKfJRkxCNnpzLcH9XTtcGywnvI/xBsPZGHqh4N3xjm64bRp9MY6t3mG9qbjfqkQb9oFgfKg74qwHNzy7UeoT9/Eq/tHw0Ujclix6RODDRiku4GZpnAlpWD9QhR1QEOaUDoAyo2Ub2S6VotcJmIg03USgnImLPdAr27UndrDcwmCSGPJkFuxnwNiHDUeNVmrwURyNXSUlxtgWhtlDuzo4Kq+mAz0E46FKBLoFmVA5wGujWa8RF9Wxju963a+XrbkO5TaSjqvCIhdnu7+Woj0bpfhhVBG1kAMbRLZmtMMGelTe7xDo5AXYu5GLxH+Ny0dcMjJagWzc71IV4sHvmL6ioN+YJ6qtR9Mng0AhWf+5nmIUnrwDnfLHZDx8MQxDudHiC9e6nDAk7P3mbxBTj8XKA+YW4V22rApz4jfIzXh9s3i5fD8bh88lj/337j0FfL9xF+/Ac=);lineShape=1;fontSize=14;" vertex="1" parent="110">
                    <mxGeometry x="121.6833114772212" y="229.43756653031687" width="16.48549056731781" height="29.920239110371085" as="geometry"/>
                </mxCell>
                <mxCell id="96" value="" style="shape=stencil(lZfZctswDEW/Rq8Y7gSe0/Q/MhOn9tS1M467/X2hauiIUHRjvcnyoQgCFwuH+PC2f3rdDcG9XS/n77vfh+frfohfhhAOp/3ucrjq0xAfh/jwcr7svl3OP0/P0+/Xp5Ecn36cf41f+DOti8QyLgru7/TCOyrl/5uvE388nGa898S1W1DIp3U+MJV+g0AF8MmT971BlPI6nxPlnneU4jpf1B7LO7fOc6DExp4A/CORau74ROIBL5ZXD2cGAXA3g28e1TcCtkgU+y2CwBhwJIn9GRz5ur6guhajtiB7EuDVnCn0USgRuilWkj4MtVAAZ/BCUroFzJSBlzRMva41MhHy4189X4GPIsVkeQFxVt25LbyqZpM9jipvOa+j0IdYmBgkwkKlygeQyMqb79eWqSu89U8lF5B/rD2FMhIQ8YIPwJ5A1VveQT2UZHlUSBMlsXwC9uSWsTOewfczlYU/8fdrn18aXwcKb7Z1V3nUaJb2S8u4O/0j8PtL/0uremvx7fNrVojvFJDAhFkKVKBAlwkgLYXuTDCmtCmBKzEIwLJAVJgwrpWnmUALKHBbeZ+Je4M4t5B8rIhod6ixDRcfS3RRQ4unCHYomjS9SJPAJKts2542QgZVWpucGSd0AHNARTqvcN/rx84JZKTThElMr60NFDpxdgJk2LnZ20qR4cSlEx33PlILP5k9zHQDB64UWl95t6ciGTnKfQgKDJkvLUA3YcPGzdZ8n2BhrK2KzPgM+GKzQHl03tzkMufRxE5+wRdw3tTGkhmPbgSaxQv/eHDeaEdR1TM6b7BlRXkP4htalbrx+gbYH9ruMx6N94HENCYdBWHji9HyeFDZdkP8nNeH9+voy+F4nG6z8//t9VVfTVff+PgP);lineShape=1;fontSize=14;" vertex="1" parent="110">
                    <mxGeometry x="215.5440131989908" y="237.81042233566063" width="17.478771864249666" height="25.638756009014514" as="geometry"/>
                </mxCell>
                <mxCell id="97" value="" style="shape=stencil(lVbLctswDPwaXTEAHyB5TtP/yEycWlPXzjhO2/x9wKpSDaSEJzdJ3BUJ7ALgFO9e9g/Puyngy+V8+r77NT9e9lP8MoUwH/e783yRpyneT/Hu6XTefTufXo+Py/vzQ0f2px+nn/0PvxceQW2dFPBt+cAVUvzz5euCP8zHazxBTpqQgNKYEDIwKUIO6y/+S0gBalSE2IBoTGCElhUhJMA8JhQJUcdACFzHhFaB9A4IiC6+kMEnD9+gr11HAOSdpwHrFGUgRzTBN1T4Co0dkXGLb8tQhOAw+g46AiqQmx8C65AJkh9zMITk+qiLYAi86j4iBLKE5h2pfIiBXacKgYomRGgegaFqHcRJ7CnNa9Y3HdjXQZa1tSlA8HdgvUP1a6FYKyWIngrlQ3EC+/imc4p+7VTIweI9CRogm/O4LmqQycSLfm2adlfWhjmsNKOw9PAbBJ0gscRfG44IxbgUbxV/MoUTfc2k/WiNpYE1p2MLIeqge2l6R/osQWZC0YRYoDpZYoJoerAYNYwJSTqoLgQublrlxKjTWn3rdSPoHVpya1mmjLE2+oNNItTO6F5xugvZkEUXb9AilKrxDMUJAG2vaP7k31rDhsc1ZQM8ao1rWVM2wps5GyH6eG26ImPRPU/Q5y/+wEHIBh+B3P83bYiCbv7JFj439zL46dvmTbw8/LvaPs2Hw3Izvl63V2H5tFyj4/07);lineShape=1;fontSize=14;" vertex="1" parent="110">
                    <mxGeometry x="207.00075598063313" y="252.7903827650823" width="29.789395184532623" height="3.811200645398003" as="geometry"/>
                </mxCell>
                <mxCell id="98" value="" style="shape=stencil(lVjZUhsxEPwav07pHumZkP+gChNcIUABuf4+veXSshp5m/Bmm2lWc3RPaw/x6vX+5vl4CO717eXp+/H36fbt/hC/HEI4Pd4fX05v+HSI14d4dff0cvz28vTz8fb8/flmiVw+/Xj6tfyHP2dcEM0LKLi/5x+a+PMPX8/hD6fHTbivNj6La/vx0UuKQzweWPfjUxJNQ7wX5/fjc5OmQ7wT5/bjNUtwJj7qfnytvRzv568kvqmEMsQrzde79bxrwkkyQeAJ0Y8nCr3GlwGo4JgCmpJJzypSbAMgeZqERoljDjnI8nUPUKLUEVCQQyJtRhvGpNVLJU/IRVoYANVJIEljkOo4SFWlEiaUbDvdIu3DUiVDtSylEECzVaqNVqlOT0ArIzkSAKbTit6TI1Xfi7hpnCNV0iI6Ni578SSHpa8jIDkprA/aU1z50CSwWSoXGKdEMzLaFC3AEREAwIoYRoOpWLGc9qGX4TJALeMAiIwPtVN+BXhphA/FWdUAgI1GgaiE6QmkD2UdtU0OgUwrVMNwGoDCckhT0lECETIADOMAaOxIeILpNH4ho7Eon+l0pnxAlTRYAFNv9MGIAABMyGblA6Cx4auSpiMpe4KKLxbwAR9CsGVtnKI6cZp1euG0qVLsLN9VDbUA5jSWDWRUAzuOEGjZcRPAsRya5JmibLzhBNIEYLO0buXNkTxpHMa7TEKWmRNI0yxFqq2fBmADGSEL0EK241zfyqtfAkPYFl35te44biqb6/xat6inqtGSHT7s6UbKugCM/YHyEYriSNm4Gd9buWcdjC7BmLKyarI3h433/U9xbZVuFOiMG+uKOrAlBy8SxwUBv5/JkVK1woRpYdOXms1BHR0mCFMy1hjTwvxPsu4E06ekc/ChOjmsyO4Dvq/llRCu75jLgCJpLCtuccooVyc7k6kVgDfPRisdZVCd1iguaqxIyTY69x22635GhmLc2VyoNT+ZNi1me49Wut/weHs7ofd0XOtNPeFY2ZVP0rQNldkY8ZOxYqYkTa4nUkMcLWs+WOehd38Tz/yznwxJoJvTdRnZ+nMyD653Z7OZ2ZV7fmuAaxX9/8GKL+WLm2yqo+9hvN2ZrRN0p/yfeuv0YTg+vL/gujs9PJzfj23/bl+I4afzy7R4/Q8=);lineShape=1;fontSize=14;" vertex="1" parent="110">
                    <mxGeometry x="290.9150437297808" y="235.92256758450344" width="11.982923647891312" height="27.1873413863143" as="geometry"/>
                </mxCell>
                <mxCell id="99" value="" style="shape=stencil(lVjbUhsxDP2avGp8la1nSv+DGULJlBImQC9/X7mpl7WcPRnekl0dW5KPpOPdxZvXx7uX/S6417fT8fv+1+H+7XEXv+xCODw/7k+HN/21i7e7ePNwPO2/nY7vz/fn/y93zbL9+nH82Vb4fcY5yq6BgvtzfhAK1fDvydez/dPhebB3xj5R4m37RKGO9ssKF+29JykDwGdivw0IChh38K4vcREQI5U0AJg4ggj0tQz2kSKwz9KXWxyCERdPIQ/2OENVwxNjXwXYsz2CRBX4XzOV8Yj1TFKFDmU/AoQK2KEEimPEQciDM+ZAYXQpVsqAdVldGs8gVQrAJV3PJDWXHtVl2gm5MQZmiqBwlAVhpF3RysmgEti6VPUcwA6+kB+z1I4eMENdKmYHoQhOWoM2Lkkgn0DtTMUpiRwozqzFNmZJMuYSdyIsAH0CgpZCsUwAUG9SLfmu7aBcyhZQQZZEKJugC2SrAsRZAMqSd1PfbmGBg9At/o+BFaCiNCl1DDcE71CpZAtAjVhjNKOhOYnyqgURJgBySUvYWwDKq5KTnQUkDHDVplUQmbRZewtA3bgBJm7IFZfYAhJofQrIUwWhiauvwwRg0L7VAZslht34I8Q1AFFDyRcsoOAatW1DnUQHJ9PB6URB/f5ijV7ZQiZuwAqSqVnq4EWAaSy2JTDATLlWQbgdp6nkKuL3ZwE6IYKRJw4rrLyMnHWa0JhzxKaVFThTVGRHQ/DcNdHWbLcAD3V609GTGCggTX6Z5AvAdeG4pU+MelBdx0hupO7AIpkSlEwx2RmkJxPRZYP72FxkH8MKUpHHIzei9g3gEpfu8eq+FEFnUpEnY1p9haKs6AAx8lsFPwhaAc4E3XXg1n3D9MpICXRv9pYYqltRMdR+vfi4XxXgf1xeL9SG8YZsdYNP/Qa1RdSc7REg3cA9H6s7Lrphse30ygmk7NnWgdoL9Ccb+wovAmwFq9pX4I+KGLO+9Ja5Ye+StUcMSlPNSFf5lxlhp1SzR9cSq3iaPbq79Z6w9h/10i641tdVYD9d0MMidTfsma19BBX8+W821+z1x8cHoofD09P5+9L6vf2gpI/OH6Pi7V8=);lineShape=1;fontSize=14;" vertex="1" parent="110">
                    <mxGeometry x="61.884316211977875" y="294.56885231711385" width="19.67815607585635" height="30.506887718203416" as="geometry"/>
                </mxCell>
                <mxCell id="100" value="" style="shape=stencil(rVjLctswDPwaXzEkCL7OafofmYnTeJrGGcfp4+8L1aUqgtI6melNlhckASyApXbh5vXx7mW/Y/d6Ph2/7n8c7s+Pu/Bpx3x4ftyfDmd92oXbXbh5OJ72X07Ht+f7y++Xuwk5PX07fp9W+HmxC+RkMmL36/KCHbH/8+bzBf90eF7gvaNaOwMv5GXbQNcr/Q6VSt3GB6bkO3wil7bxEimV3gPKYP1YyYUO7yjlbXz2JGzwzm3jC1Pwdv0C8JVSNOcP4PxVw93jNQAgPor/696cMEcROFxDi/dsEKmgHTzFPqLs8Q6euA8pZ2K0A1sOKUsQiWok7p0OlUIABpmK6wwkUQJprpq23ocoJMBp72bezMRWqoPK0TO5fousxQdqsxSKfSlkfcOA28nuUCI5ENfkyfU7VAe9FqFiDDQ1qF2IPVKdvVo3oNrjF4HeMHA9NTSVFSXOUknxGeCdJYbiBVDPkS/W4QocHmikeAHF41pGZ3ymCjKgCY0Wj9b3doJMvIXxNJVWExUQn7lIFvgMzh9I6kfWl8bH5flB/KWt9s74RPIfir/Wx8AHVGJxyC/mj9h5c4WfMvBN+Q/WD8QDHtWXjrv+PNcKeBg3ugGaTypAhoKMEB8GB5DCcVZQaAJQX1/De9DWnRUUSqAE8dbf3Cj4zngmOFw1Ycnic/yPeBVwxuFIAhyWQTKqYEB6ImpF9SkuOKSZm6CZDbhFbX0Uq0rrndZZe0UT5WHYozaquk6MTua2xJauq0Y4StPyW6rLEFVyi9uWlOW+FYleJkCmS2qdZ5ZpoU3PrbCKEfu5jc8tg2S0qWuCYd0gtma1uN+gdqrMiUYuu3Zj2HK69omLrSOv47294Ahsj3phMZIrtAJc13TOEilAWigJTH9JjSfr8yBSsBdARvNe7AD03Ji73r80ZX01+wQlY2lXgZkTDBVdptxnWCPkQYazvUBNGQDnSbZsFI+aSxyKIMCBpjUwrI8UxdAoppkO8WZATaIcnEfvbgMe9UYe/GU4MHnIr4ddhVt2FniUX7YKf9L8UJF+7BvLdbw+/Pug83B4erp8D1r+bz8A6avLx6Nw+xs=);lineShape=1;fontSize=14;" vertex="1" parent="110">
                    <mxGeometry x="101.5197357129714" y="293.3794471052397" width="19.05650281117505" height="30.806989920834667" as="geometry"/>
                </mxCell>
                <mxCell id="101" value="" style="shape=stencil(7VjLbttADPwaX4ldcp/nNP2PAHFqo6kdOO7r70vV2Viko3FzKgr0JstDLR/DIaWV3Dxv7p7WKw7Px8P+8/r79v64WcmHFfN2t1kftke9WsntSm4e9of1p8P+6+7+9PvpbkJOV1/236Yn/DjZdeI+GXH4+XKjU8u/73w84R+3uxleSILFF+KwjGcS9/xELS7jI+Vm8Uxcl/GBuvWnNaoJ4Z0/LVEC/gQK1p/aKQvEW3+qPh/kJ1BMBl86CfQn2+eXRLmgfIZi8QHGG6naeHOlyKi+RSxe69sQf7KNNws1kB/NXvP4DvgQM0k2BikRA0JwpWwNpFAFGU2ROBoDbhSBQanEbAxipQRc0pbK1Rgoq0DNer3Ev3T12/jmScSQcyoJbEmUoUYo3pEohpHkt4sWLtpG69ixS832sTJXAC/UwBGJCwmomiap2hMkYIM6PH41YOooTYW65YVoL6ATNCfp4gRU6Ewh+xgSUC8VZyk+SwnFIN4lrUNCddAQrWDEgsmdKNgTlEwFuZR8Q2vaUMx5kH/WDagKZejJudtg99RLfACKp8Rj1wu4BJ2CzagmACi24ov1p41eWsJ3y4moJbliYOUo9jHVFz2yFdMQKj7B8Vr3mIhY17wEC14rpqLZoLU3K6rCew10KlQ3CRluFon9KqKjv4K0al2zJXbNVAEztBPdMtgKdOn/MtjHOvPnyyB8/l9YBhEh/vVlMIzdexawAGGJ0Wt1iVSQAY/hNStBQCVgr74qBGhxiTJS/kqiiDd48UFr23fkkvi0tgClSw3cjt3ykJolA5el1uFqpFlKTimUGYipcfw9k6IOqKQGbmpOQwUZhDFhznvIlUH+zlfr63i9OL/HP2wfH0+fAeb/+/d+vXX6ZiC3vwA=);lineShape=1;fontSize=14;" vertex="1" parent="110">
                    <mxGeometry x="147.8381493786369" y="298.38569340903337" width="17.919351258434745" height="3.2630360555194784" as="geometry"/>
                </mxCell>
                <mxCell id="102" value="" style="shape=stencil(lVjLctswDPwaXzEkQILkOU3/IzNxGk9dO+Okr78vVFeKCMrbyU1Rdim8sfRO7l6fH172Ow6vb5fz1/3Pw+Pb804+7ZgPp+f95fBmTzu538nd0/my/3I5fz89Xv9+eZiQ09O384/phF9XXk2kaWJx+H19k0jq3xefr/jj4bTCa6PKHb5SSrfxOVHpz49Mpd0mpEpBeoJSKIDAlENPaJSBCylSjR2BhQT4kIS49ARzOkAfknYESRQVRKlQ6AlmZBSQBotS6wmVKiDUQNxHKSsktEClN0nTHLdtQqVWO0IRSvk2IYZAobepMkx1E29TbTCu03l99TWcCC3epGZvgBM5zNW8EBoJIPCQ6lUcthmkffVZpCOKKxX2LjTQD4Fa9HgF7RBIhvNRTM07h1dS4G8YcqYwPmEeWAs+47obUpxgfOLcJyu8An95qIhEGTSObOGB/TZRB/sLsH+Jxio+EeJb8ngFE1spDvli0MWWzejxFQ3HeZqv6k3QBqE64P/trBvxby7+NlxBfGSw3/oR+Mt+oU3nA3/j3E0r+ws4P1BqQ3zAZA9+dVj80UYepvSUX9iP7Py1+gHxHxbNVJ8AHykP/VjQxPXLeOovMN9kCw/r52N4a4A6BBQlLLWNCYc81jyLh4UgcASVOk+chRBhjVZTOE4GFtgEZoDXjZEa+IIRpPehZPiFalXW+2DLnEEe7Dwn63KDiVP2kyUvtbg9uSJJn2mTkgV8wVSf6wVRKE0le1nHjRgtG5l3xUJgqGXNAB30uCI9Lr4/TfFnMF8sSu4LbZ5Q22lQvwBxv1mhOcESYF2YaOTo8EgCVvHdhvWcXblC9njgr+Gbt0fQ+UMjBKjnqo1zd0WDKtzw6vEZ452AYoqgRKt6QcRQbxk+9/YI3E91uU++4xXse4tn6u1PUB989Er9f7w9vN/fnw7H4/X6v/6/v+/bq+tvBXL/Bw==);lineShape=1;fontSize=14;" vertex="1" parent="110">
                    <mxGeometry x="143.99277328849985" y="298.3676135218873" width="16.40088771047749" height="27.51254063297938" as="geometry"/>
                </mxCell>
                <mxCell id="103" value="" style="shape=stencil(nVfLctswDPwaXTEkQRLkOU3/IzNxak/dOOO4r78vVFWyCUrrSW+yvBBeuwA58MP7/ultNwT3fjmfvu5+Hp4v+4E/DSEcXve78+GiTwM/DvzwcjrvvpxP31+fp99vTyNyfPp2+jF+4ddkVwv5MFoF93t6E8nlvy8+T/jj4fUGXwKl3OAzubKNz4W4/b53s8dVg1QoudYgka/bBlHIpcYgBHLAAydysTFgR0m2DQJTbj1ERxl40Ii5NUge5lDJ1baongoqEnGLl0Deg5SptBkXTxHVtMMLVcAKodD2rAaKqEDKgbZAVV2CgIoNqCYSRFPLCcUzoKlQjDYeAZSQWSQ3eMS5PJdvwTMkhHT1CcQwnuxbvKcM6xOKxSMC1fnfBe+oONhg56yBJGhQsjWoIGOvCTqbwr8mrhuoRKKtqUc5KIfZGiCSrhgwCeOQOhkkpBs/z50bXnvA67GsxRpk3AfXeSjAgzKDOzxog+4DZ/EJ1Ei6jCNVrJxOmQEtqBVlxg8pP1AG+UrHCQ/rWexyUnwA8ehkNN93d/olvTCRbHQ3ls4BEuZ/GMR2m3m3jI+NnhWTQ4F47jgXofJ18rSyLAVyoht25c7ssj2QxePGus/S4LN6RN8Pdh/HCtfTmLE5Esn8Zr2iSvqWdlehrp8olv2+NLnME38950ypDUmHHzLIMvf0ejJFZxA9Apkuh3l0rAtH7MFUm4BWpnKSLR6QTvEpGTxcydVOakcMBqnio8WjTaB4aeP386FqC18tPoH4b0R+NUCTfXRgG4YOsWMCYvBIZWOB2sGlcwMRoju186zrrQYbzTDU2EevZvfx+nC9B74cjsfpGnn7v7036qvpzsmPfwA=);lineShape=1;fontSize=14;" vertex="1" parent="110">
                    <mxGeometry x="178.2924729705619" y="301.4367802647869" width="25.876222331811277" height="27.64459570163558" as="geometry"/>
                </mxCell>
                <mxCell id="104" value="" style="shape=stencil(lZfdbtswDIWfxreEROr3uuveo0DTxViWFGm6rW9feobdiIpPsLvU/WhTJA9JDfLwtn963Q3s3i7n08/dn/H5sh/k28A8Hve783jRX4M8DvLwcjrvfpxP78fn+e/Xp4mcfv06/Z7e8He2k0LeTVbsPuYnkWL+9+D7zB/G4xUfPXFueKZatvmUKLbvd5TDNp8jVW9457b5EigVw8e0zVcmCcZ/FsAXiq0/iQLw37vV38XACyUGX0gkJqJMBbhUMoXYGIhQBDnQmHpuDML65HbSPLk2qDGTA6cOmXx7hlRIQNrEUWnTULQugIEPVFNjUD0l4JKQl5avlEBhMMVg+Qqy4KmaNDtcqZ1w9AMFOKTx8JaPwCFHXC2PcqbetlWkpY4qW3njT6YCzuvIF8t7UKWuS0CCCdYaTZbniPiULe8Ar42COx74o32w8x/5I1bFd84rVLiLJ+jUQrVaPlfIm3hqPYB6E8rGH603yIuzPKpnphwtj/TCtsndF2ToBIkUry2rWB51FEehEzCDrquC8TYBCRRQN2iUd/j9hs8kUJDW/0TFw/h0AhMYnxs8KGjPS7jXmaFDBim42MmadXQCCYSw7D7rGIvLGLm9DZXlhOugVJmCL2St0laVgWFX0f3GjGIdnUjGtfvCV6e8bRDt4NCFpQLd9AYqfOSRJ7ErFIO60yMHs67A1SDr65Lh0UqXumUlwkEQu4hm3BirTZl3eBIUuyP7dZjfNshLo7o2QOuWemy0D7d2SfYD2urQkZMVTl1itsWb4VqW6bzFszO8B61o4tv3ZzhrJn/alKV78THLhN4KEK/rs+WRJpWPpq8s03Crgv7rFnef1x9fV8aX8XCYb5zX/7dXTH00X0/l8RM=);lineShape=1;fontSize=14;" vertex="1" parent="110">
                    <mxGeometry x="211.80954183178756" y="304.9824318372455" width="25.377060913552214" height="25.514118907633474" as="geometry"/>
                </mxCell>
                <mxCell id="105" value="" style="shape=stencil(rVfLbtswEPwaXRdcLp/nNP2PAHFqo64dOE7b/H2oKlS8a3DqAr0pyoy4r9mhJ7l72T48bybvXs6n4/fNr93jeTvJl8n73WG7Oe3O7WmS+0nuno6nzbfT8fXwuPz9/DAj56cfx5/zF34vPKYgM8m7t+VFFuLy583XBb/fHS7wlZzGJ0eujvHekWRFiJ4CA0KlGBUhJPJhTAiOclIESVQBIQpJUQSfqfoxIWVKOumWVQY5FKGsc2BHFRBqIdY5tKo6iM/O4D3IoFbyGs+UEsQn1k0gzhBfqh4jCmCK2K35rQExeRzRR09XQiRGJaq9RSuhUMIE0SfM4sBNKLppXnqZRwQRSyiobZmKswSozkzibQ6CytqkEm2VPvQ3ImSxfXBAbY2Q9AKYO42q1E64miWBOTt9QJtVXNSg5c9d3iN81fimNazl6A3eIXzt9fuMx6EOVBt/mzoUf9OmFkIiwfGYfNcXN+K5TTWaiKuAOFPEyjQZt5JGvI6MS3nfx3bYMx2SX1f4/yGUYLssoZdhZDrFjHWgDPrQbM0oszktEkJgazqJuzOOrNlu+fYJ5OXO7uC8brTB7aJqfIkUwSh5Er29WucjuI2wTeDCiAaEEOwBCdSUu9RXfKEA9q+zN4t5XYKKOusgNfQmDvBs4sE2e2XLpfTteiM+9O19WzyFoSk762e5mTj8fjL4BJcj2/hzgH75r9flv+Pbw+fd/Gm33y9X+8v/27t8e7X8DpD7dw==);lineShape=1;fontSize=14;" vertex="1" parent="110">
                    <mxGeometry x="208.03020420416397" y="320.3409468038858" width="30.339345602007597" height="4.235611961671793" as="geometry"/>
                </mxCell>
                <mxCell id="106" value="" style="shape=stencil(lVfZbttADPwavRJ7cK/nNP2PAHFqoa4dOE6Pvy9VQbJISWP0zVGGq+Hs8FAXnz6OL++HLriP2/Xy/fCrf70du/ilC6E/Hw/X/ia/uvjcxae3y/Xw7Xr5PL+Of7+/DMjh14/Lz+GE32OcL1TTEBXcn/FJoJj/Pfg64k/9eYGPgvcK78i5fXxK1FjhPZW2j8+ZqsYnyKcUilWf7ynzfkDNlpBk0Px+QGMqUQXEQC6BgEZOS8SJPAjwbtZwTrpSLeAVlVxTASVM97IdIJSDChAdHAiokbx+Q0uUACUhkHTWi7S2r9pZ64lyEbyCZ1EWnAIIiHLXOolaKAFKYn7WlMRfDOznKGs8l8m/O3ifNT5TDghvjCFWCpCP19XAkRpIWPhrRTlQrsCqxLp4WMoZ5Ct6Oov36MY2zncRWIK4WHwE+LmZLPJFtSxFwlZPD8omE+syY6aI2t2Kf6IC9Mm2KsVvDpwvNWvwlQLUsxg/SzND42ADz4BPoOJWeOi34ld8AH9pKdXm6wEfR2GtJ/CDs210uC9cv4aP+AH2B17VL9Lfr/rJ3Oh39HcGL/UC8NHOmYf16Ff1i/RPG+cj/ye7HUi+Bdb7Bh7pIwWjDZ0bZZAAu8kv88SQIYYWolXLrbIioRbkp/PmgAZnQHF2Ejc3Xct2QKVs3iBjEqgqjLNeiaq8E8gqBLKmJCTRlib7CmujpjaN5r0A2xkrHPW12VEfKyz9Ks7RlALupUWGk0763j62bzrZ6vSMp1my49LLLgsCJEVj7wbXDy/OMIzC9GQ7oNiGPQSAi/Z5+hxYBKCO5OdqWSz8qKQlICQrUkUzh6fz7iKhnU7wZsmpWCO2BV2mrWH3fH3LedrydvlrSRO0nQgUTZOEnwZyZU53sEgBVJrgm9bzgSX+85P0MV5+3L9/3/rTafx8Xv7ffi/Lo/FbOz7/BQ==);lineShape=1;fontSize=14;" vertex="1" parent="110">
                    <mxGeometry x="181.5487443011184" y="322.04177112441494" width="16.731904519167074" height="12.754872244801618" as="geometry"/>
                </mxCell>
                <mxCell id="107" value="" style="shape=stencil(lVjbUlsxDPyavGp8l/1M2/9ghlAypYQJ9Pb31WnG5kg+ZylvIZGwpF1Jax/izcvD7fPxENzL6+X87fjrdPf6cIifDiGcnh6Ol9OrfDrEz4d4c3++HL9ezj+e7q5/P98ulsun7+efy3/4ffVzVHlxCu7P9QsfyLt/33y52j+enlb2hVpU9pWY981DoFSVfSYP7GMkDso+kmv79kni0faeQgDhy886X0cOpMuZOBn7UPfta6Wg6xOoln37xhR1/Azj927EOxKOVEBErdgTpEQpgxQaeZ1ydJRBDtwoFeWQXEdxG4RGMWtS+E6T/0StBHJp3yEX4qbL6qmCE3KmZHjtyUV4QtMnCPQVlFVyiBq4lsiDspbScR0OkhXmatNlbRmewJWKTrp5yiDpBWlNjZo7lNsOhYJ2YKaMHJwNqVQYUsm2H3KjjJBmi3R25MGIiUzsdT9EymiGsa2SOKCZKg5ZcymGXoZthzq1aMA5tE7m4eAhW6WDPVsHFFIaQ2XlgJBOYZr0cgLo6RR7xOscAL1TIo62SsEDh2zHzIIDykGmhibfgjSYfOLgZy6h/ZYmLiW4sKRKFofUB88eDmFyQMNYqNGKdciI3m1CWkJCDSRzaTrhnQaqzZYVbaClRat1CIBLi8PUogyqJA7NW4eIe5oNl3yf57tlnVsUcUk22tRxaLELNeIUEmRr7ERYOSB5mNKEgyx2RD5poKmnEfk+7CALxeuQksgVMDVYFKrGIVc4l2TtNqNmuMuVbUWW7QmyRR2g9yJFjDjJsKcX2arZ2oTeIIc6TQ1RsoitPLbB0K0OS28RTAaINtLa3uzJSgHRP6hMC7DaQbSvQ3RlKhqIOu5PeydY5HxfGds5xL5wBjd8r/ReldhoaQf5LQFYOdPgrHwTwuMC0aAOrdzH0HBwUHw32SjmToPnvcAU9CRrUP4IW82tNcOAOFkVGnuVt0GI9o4lWxiMDIEoaQwSVpTVTm651IH45RKZ9QKV/gb19Ln/PAAQ0NG11VJCAAuIQ/ZWLPbwGmCvDWJf4auEkVVij6ZRml4NZFIAwKJVku/8f5GNUzxowsviDlN9gFiQfprrD+ozHi1WjwaonluPDEixuV691StSA3xwdvCKfQL1+egr1fv28uHtSez+9Ph4fVFb/26f0OSr6/Nb/PwX);lineShape=1;fontSize=14;" vertex="1" parent="110">
                    <mxGeometry x="258.9511784940214" y="303.33102096906487" width="13.163946032126205" height="35.48637197389303" as="geometry"/>
                </mxCell>
                <mxCell id="111" value="&lt;b&gt;merge&lt;/b&gt;" style="text;html=1;align=center;verticalAlign=middle;resizable=0;points=[];autosize=1;strokeColor=none;fillColor=none;fontSize=14;" vertex="1" parent="1">
                    <mxGeometry x="1035" y="35" width="70" height="30" as="geometry"/>
                </mxCell>
                <mxCell id="112" value="&lt;b&gt;qucik&lt;/b&gt;" style="text;html=1;align=center;verticalAlign=middle;resizable=0;points=[];autosize=1;strokeColor=none;fillColor=none;fontSize=14;" vertex="1" parent="1">
                    <mxGeometry x="1441.45" y="20" width="60" height="30" as="geometry"/>
                </mxCell>
                <mxCell id="121" value="" style="shape=stencil(lZbdUttADIWfxrdnpNX+XlN4D2YIjYc0YUKg5e3R1mOIlkSd3vnv88pHR8c7yc3L9v55MwV6OR0PT5vf88NpO8mPKYR5v90c55MeTXI7yc3j4bj5eTy87h+W8+f7/mQ/+nV462/4s3CNUEKnAr0vV2JCan+v3C3Abt6fAxmlGCAJWnWAhsoGyIKaXSCJAUoEeyUltGyAqis4QG2IFmiMFh1AVbIltYLE14FCyFYlJgLRdSITJNolGtiRKRGq7ZzqQE4jooBtI2oFO4BUkAVK84EMsrrmBhIHKGMjUkV1VIphXCGqW5zO6W1pFggITklaQK4G0CKzs0KuaMkCGSE53lARrZlU6OB8dG+TXUFbGfyBoGFG6V8zykPjCLFcB87c/OkNWoPh8hI6MBbQofJa3UdysGtbX3FZJh36YUg1GJySeqzYkr6i53KrBeXbjFYnBjQa6wBofHozmhCHoVZZHTN1QP4HkDima09Dx0whrm7+BBKyE0yc1rQ+i43ofHRBtW4tDHHaEMYwzrym7cXn1ar2AxKvKXLteWuLSODg1ZNsYgRfUc0TWz831xQcR4GYkZweBxmBBHEmRz0x/Bm0AY6garpBofHfpgdfO47HebdbNizn98cdil5adjdy+wE=);lineShape=1;fontSize=14;" vertex="1" parent="1">
                    <mxGeometry x="1980.8631549603633" y="48.855460568461694" width="2.5146227402378827" height="2.522336761604606" as="geometry"/>
                </mxCell>
                <mxCell id="122" value="" style="shape=stencil(lZbbTsMwDIafprdWYufgXHN4DyQ2VjE2NMbp7XGp0tVBddld1uZrbP+/vXR087Z7eN106N7Op+Pz5rN/PO86uu0Q+8Nuc+rPsurorqOb7fG0eTod3w+P4+/Xh2HnsHo5fgxf+Bq5UqCUgUL3PT7JCZB/n9yPwL4/zAEG7xTABJwNACGRAoqDlJYBDuCDBiKUsAxkgogaKOCNkJKHonPwzoFzy0R0EFgfwUBxGQgCJA0EIKOuhMBaCGaItAygvM4a8EDFADIULYQULnsjJA9O55ASkAXkVuoo9rKqlKqwExCBLB0YnJY6St0Mb6RSU5wDRkjsIJdrQhI3Nw2xknRJ1f7/LKu4OWvzDcKhCfh4jTXEm6zLumI+zoD6hMHexglZgGYK2A2UIrAWbrVHZW40PWqPgUBtB60MGorgmhNklBlJYIGkkxiGpTH7pEezFmJlHF8N+FRrMrmvQLSUq7pO+719QDtbowc2rDSJWvcHXztw4fuNVWVMZevfAVCPGERAwxU+1u6djEd1cC5JEDQgRxo+DX/GKkIwAoqprZCUzIgn+1Yxu2841UacxWPsn/XhJWGnHCGLy4Vj2+/3431l/r69oMij8XJDdz8=);lineShape=1;fontSize=14;" vertex="1" parent="1">
                    <mxGeometry x="1980.605183573086" y="49.614924196273364" width="2.1842514278500857" height="3.3232487880851522" as="geometry"/>
                </mxCell>
                <mxCell id="123" value="&lt;b&gt;shell&lt;br&gt;&lt;/b&gt;" style="text;html=1;align=center;verticalAlign=middle;resizable=0;points=[];autosize=1;strokeColor=none;fillColor=none;fontSize=14;" vertex="1" parent="1">
                    <mxGeometry x="1950" y="35" width="60" height="30" as="geometry"/>
                </mxCell>
                <mxCell id="124" value="" style="shape=stencil(lVjbUlsxDPyavGosy/Llmbb/wQyhZEoJE+jt7ys3PeFYzlmGt1zWliytpLV3cvPycPu838Xw8no6ftv/Oty9Puzk0y7Gw9PD/nR4tU87+byTm/vjaf/1dPzxdHf+/nzbkf3T9+PPvsPv87pYiFNfFcOf8y+Jkvz74csZ/3h4WuFFiPOAj5TzNj4xVR3wTIEBvpG0AR8ogP21UmaPD9v4XCklh68AXypxGPBCQbfxNZPGAZ+pAHwTiuP+zCRoQZkCWuCJOVwickmZUE3ARKUy5kACtQIWKLGMCwpJBQsCaR1Zd4nDVljdGVKhBnhaI9XRJWVKDSxgimPiNGOXkq+EHChhariw5kQBRKk2SmOUjL0MDt2mMxQhBWewPMhIptIgNaoufy8L7FQMqNHrZ3TJnExgQS7egrFLQcfQiRpWIg3kwajmyGeEb+DQsVEce8yqpq7XnPguYCYY+GQ1P1qwvqAAH6hEj/+f+g18HKnXIhVwZDte8njkv+GnLCtgavARNSaicg6+yxs+gfPyQsoVHrVt9t3Caq+CsRN9fjsesNqmZp38AaUvU34DrJrkp1SPJ+h2iaKLD1MGhE6+sRgfEN9kqcAVHo1ZWXrzms8w/nXCK4hnnPy3CKMCXti7wmdYX22qXzTFLZvs49NAkwtTfuM7+/ueyO/U+9ylGZ43jbPvbaJvxWeqR9wPXb1bfTWQL4tG8PgK9o/en74/qJeP4jl5RdSshJBD1XcgG3sNCWu5YgEpTU1Lh1pzGizISsWRlJe2fX3WJ8pOHBR4mahhceCyIMKwVvHiwPRFATw1kVZGYpiTFVvIY5QKQ6Z23ThaMAUTgQXz2PWWLHCWlewt6EUYXl+gXtWpwmlsFlw7MrFcAPnsDNXp97pssSXHnYWk8B7YxfKYh2SaB18p2uiSWBjQpWWaaYJ7Uteho4WY4BDpFpxubLCAehMdx5r1EUEFNFUcByzHyxL1t+tpBR7ZhSOMVEpLXjav444YxEi8T0IzLUr4eteLyxi4MBVe0mQKUIG0szasrtFDXWTbtebxaI4UXwcVPp/09GSHRxc6w4vHI51m4XNCreC5qb5j24GQPzpdYfEcV/88k2ERG15dq8O6Xf0dXOFDhZlnz3/0EmJ4J1wuBNziw4ee397H24e3t777w+Pj+alw/b9/G7Sfzu+K8vkv);lineShape=1;fontSize=14;" vertex="1" parent="1">
                    <mxGeometry x="1849.107887571793" y="91.21251587636493" width="24.74259467615775" height="27.443283701207747" as="geometry"/>
                </mxCell>
                <mxCell id="125" value="" style="shape=stencil(lVbLctswDPwaXTF8gCB5TtP/yEyc2lPXzjhum/x9oapkTSjaTG4yjZUA7GLBKd697B+ed1NwL9fL+fvu9+Hxup/ilymEw2m/uxyu+jTF+ynePZ0vu2+X88/T4/L7+WGOnJ9+nH/Nb3hdcEKhzqDg3paDTD79Pfi6hB8Pp5vwSlmG8JjIu+344MmNgNRP3gVE377fAZUYZMTRpiRCXLYBqVDxY8lCNW8DcqFqANqkCpokJHlMSbvEAJAp1RXAA0AhzrbogL5QKYw1iL4iQEDmsWhPjFKqVI2SuPVtEzAyrY1OSHuVJAyA4qniop0BMOUI2xriCFAqESBTNIBMjFKS1sQbgANqrYnSyHTREwRgKiMPJcIRVQAbHpQZDLCeIRQR09x60gGBMhKf1mBmWk0ATZz2ZORB56ECm1Ee4mpEobyzLVq4CX5LS3410xlJo9gBkm4LW/I2rpEdRTxA1fCg5gmK9s6Rc9b6PviEcePiGpebxjSqT+VacF+TmSDBXplJxqp15CLS92cB6wVx07j3d1CmMjpTxTPHocm5AxxcKbqp1zYgYMv5Yque/Rt4H9sVlBw0pq7N3qS+iDfi//lij09UgPRWUvXYZFxTTe8oCUzHGLduBiBTVf2YPUO6fLO3Fh7wtYrCWKuDyah4iglH6lRTWIWDEWZKYsILEFqiIKbUCHJX0tk0MgFWP3mf/TBcH/5fnZ8Ox+Ny877931619Wi5psf7Pw==);lineShape=1;fontSize=14;" vertex="1" parent="1">
                    <mxGeometry x="1897.3971441899666" y="85.40010591534156" width="18.16946593052171" height="4.621617548487848" as="geometry"/>
                </mxCell>
                <mxCell id="126" value="" style="shape=stencil(lVjZbhsxDPwavxKUqPM5Tf8jQJzaqBsHjtPj78vFQmuL2p0ggB/W6xlJJIeHvJOH98PT237n+f16Of/c/zk+Xw87+bbz/vh62F+OV33ayeNOHl7Ol/2Py/nj9Xn+/vY0IaenX+ff0wp/Z14IVGRief43v/E0fdPP9xl/Or7e45lc7fBOyLttgniqrt9AKFZAYPLmRJVihAT2HUEi5QCP5EpHCI5KBoREKfWETJ6Bl4LdITKlsk2IwbpV3whwa0pUerfGQi5tEwqTxI6QPCUQ6eoo555QKIAj1UKlj0OO5ICXHGvkuGMUVR9wU40U+kCUSk6A1UroxVQDJWBEVm30VqtZDmgjqjbMDpUysFpKc8qSQTc/rPupuX3ZwTWrVvEqtWjxDEzgJpwFz1AZQ9QUj+LMNhk0aKgCLKlyH2SQz+qN3t5SKIP1PQVv8RGlP4U84FGNpMgWn8D5VaMDvqLcJx78I8D/aSVpMsiyRNHojT9Z33uLLwAfm7ru9Al7TjvtHT4C/YstXFMpA+fxlIf8SkA/utpwfqQH9cZwftQytQFW608Ur6H/KR5VUV7RTwatgykMeLS+syVU9VxgPtrzlFZTN+LrxvyF+hnPE1EzXlkf6/lreO0AHPqALd18fYOhQigBjUSpDiU9kqA+yUMOeBIQs6nkDEUXNbEqthNrrw+I4Kn0XsqpFeL1IyWqvZcyw7qr60Uz4cRm1bpbxVa65KDROvVxH4eYidEsW62W4qL2reHXNL9QYHFUtcZ+h6BxAF6a0q1PTx2vUXmc+qWZ+EsL5TohtWF6IfhWctaNFuJeS863nrtOyE3MC4ECuoNkO4K4FsjNma6PMx73ZRiVtcOiCaS2ofWGd0BGeksL1eAZVUhnCwyeSFUyMuCBP4O0Kf2GRx1E8Sb3mSLwv963xNpbkb06UvRZ42B5VLwpLcvlaAv/tVv1p3h9uF3hX46n0/wPwP3v9sqvr+a/C+TxPw==);lineShape=1;fontSize=14;" vertex="1" parent="1">
                    <mxGeometry x="1893.6971502119818" y="89.41968913642518" width="15.331082753265491" height="31.348132190216916" as="geometry"/>
                </mxCell>
                <mxCell id="127" value="" style="shape=stencil(lVjLctswDPwaXzEgCL7OafofmYnTeJrGGcfp4+8L16UjgtF6cpMlwAKwWGCpTbx5fbx72W6EX4+H/fftr9398XETv2xEds+P28PuaFebeLuJNw/7w/bbYf/2fH/+/XJ3sjxd/dj/PP3D77OfEMvJSfjP+UZgiu3fna9n+6fd89I+UuHBIZPmdXvl/rjbR6ph3T5VCm0MiJTX7YtSToM9EwP7WkjLYG8ViOv2TSmM8RdKIP6WqI31CQkG1JhCHAOylBRkEKiMGcREBUBQrIJ1cNBKETjkQKIjxoFSAqAp6ZhDMZQFOoSxSlWogbZLjWTs09oogJBypjb2RYuUAdDF+tg52B0QUk2+U1uB1GmBgkxvADhYxGkEzrqRQdLmwFOVcsXNpx6HjOijVMakDekGurUUamNIWUkAgQp3vncHaxbE0By9g14ZMZbDGFIUCqBKKVB1M8k4jbpVfFmDcRo75OodIihrir5bzYFRDtopf3GInSEfOySK8VMO2U+NayEV4jAlDZA2h5SnsuI3VLfd0rWQ3Gw1hwT4YA46vaEipDNVtx8y5IPh0Ip3UFSl1OmycEh4GPP8BlSlOO3oTBHlIH2SLhwYhSRTDqnv+VWKTsAJqtIsfBSvLPHCwRwUhWRVmhwCGPfpMtyXjEM4XJTF0gG3RpunBko6U5nmkqC5ZHyYOA2lw8w4hQvlQ04jNfNph2wbaBxkMVAEOORJnNgGQnvatIaMOFizCFq7hutY1vett7bY2whcwW8wKZLH2WpKAI3K1jpMC62RwOQLzL5dTSwrgLqp52irkBCmTtitIMbHAatKqP4VKIssJM0n8Z/na2OgjKPMsEGcM3HumsPQRzmYg9MzJ6zxGMgj56zlC5JYyWOtBa5Fa3A3+6L2NbaGnNujgmdfm5rJWI1EXLUqubJ2db0akcuZAtKtqQu294NlAhlbyV2vYnmlJhHHCmU4xeyxOLZBGa1d9y92CQNymsae5GGA9n6jR3iAE8+CUzwALzuhuv8XuAvZT1SzLwDfaSmYPZJh07He7FH/zP18Oeev2Rdvr2CsMEXx9ugMw54ugbtyXam/Py5wV+sr+H7yw9NVe7t4/8r1sHt6On8kWz73X8Xs1vmLWrz9Cw==);lineShape=1;fontSize=14;" vertex="1" parent="1">
                    <mxGeometry x="1939.4343181737472" y="87.39896485319923" width="17.080963587055066" height="39.27962214468914" as="geometry"/>
                </mxCell>
                <mxCell id="128" value="" style="shape=stencil(lVjZctswDPwav2JIgudzmv5HZuI0nqZxxnGvv+9qXNoiJG0mb7KFFXEsFpB2evf+/PC23wX3fj4dv+9/Hx7Pzzv9sgvh8Pq8Px3OuNrp/U7vno6n/bfT8efr4+X328NkOV39OP6anvDngmteSptQwf29/FMlXv74erF/ObzO7GsWFwb7KNFv25ckPg/2Kk237XPqx3f7JC1s26coGgd778SRAGKQ6kZAkkpOUC+hDgCEENw2IHjREaBBMjnBq7gy5jSKI0mt/e41R5naF9Hx+blIYA558eMBJUtNBFDFp5FFnBZwyY9VaE5KJlUokg0g9bqs17mKjjG00qm4ziQQf2R2Q9CESUhiyp9xqcT+vCsgSGGA2ss0yxIttFpABbkjiSFLHqkxFY4EDabFkdw1SGLd0GyDAsBcAjWqXwAKAeSVEwpzKYlbxKCEGtA4I2LVSyWFg0LkagHK+gEAI8OOxwCXFgBPhBVB/7997ekmmfQ00hqdBShRjalw1QJYx4EayxOYsqrrSj0DRK7dbeESFfvQVWiWViVsVV1wydEBhxPaGDSokTggGG0NfV5sBW2pgRZl5ENO1AIKEQEMIA0WQPshr/Q0Uz6wNRYLYLo0rSELlxyjty4WH8+FDC1qsuR6KbcArVgAFYEoZQRMbOVC1qIFfDB2dXGCZ2n9LCA7W2kMMRZDCXZbmtJKWhRlMlmq2gfx1spqtbX0ltoCpPEEbMmRAdzKJkC3Yoi7GexoKSICWE5MDN5hFSB5jfBg5Ea7tvmWzsRRZ7AwBTZRFmqMdcazLREz0ChZ6hNg3SUrlQV0JPbXjMz2XDaAnO3olKgUJyljSqPSZvDRrsXQ5sgXDR2JhJeJRFKqWfxYA7xMFDIcsBbb1Z4ekL19N8EsIfMQO67ZDzlN0Ws+GnvWm0378Td/Mnk+SG9YfR1FW/Y1mfywlWTWhjdA5gfY+S+OcA72yTQNXXkgJHbqUELA3mwLjc7NSRSMOPKCZbu+NLprQzkX/ijzf7GbN/oS1havSK2/iq7bh67kt3wyGf3sB5WP7XFx+3rzdHh5uXz8md+3X3vw1+VLkd7/Aw==);lineShape=1;fontSize=14;" vertex="1" parent="1">
                    <mxGeometry x="1982.5466645147603" y="87.27039294169049" width="14.069696634370757" height="35.67468639697756" as="geometry"/>
                </mxCell>
                <mxCell id="129" value="" style="shape=stencil(lVjbbtswDP2avBKSqAv13G3/UaDpGqxrirS7/f2oBfIsyj5B3xyHx+L1kNSB796e7l+Ph+De3i/nb8dfp4f3pwN/OoRwenk6Xk7v+nTgzwe+ezxfjl8v5x8vD9ffr/dNsj19P/9sX/h9xXnKqYGC+3N9ETKV/O/Nl6v88+llkOcwygfybl8+Uo6DvM/Efl++UM6jfOhvtvXx5EeAUEXyiYof5BMx0D84ysZg8kB/dR/XQd6RA99nTzVY+QTkM0UTMMpAH67EMsirhxnEy1HgMQCRosADsrMZEZAFhcKokfogoBPYnqBK1gJiINZHyVGpABCojCekSgKi5qco5EIVARzFMcwlUgj7gDyFTWDcmOqokHhYx5lkrEuJ5ICLtM5MHUiGheC1Ds0J0lNrOwiFZKyc6kiAi7QUyuijypSAzVE1HlWqCxtsApL+bQCFHLAhJ/JpAoC80CwwfKoqCVBJQqe3ldHIrapANHFQL4H6VICIBTCIQxWbq3JDJdk4IYDkq0pikw0RA0xBKwC5VQF1pD3B9endwusrRAY01o4YO49otiA3VdsLFZAwIFQLEBRqDYSxOsP8bqGeWMABKm7JxFYl1J9bujoLKCj7tMDEAhidkDtTrwJXkdF5SldtidhoNyUTdGuZ3Mp9LtsDFLYARsmn3OstIEQIKJNKqK1r8vlqARGXXJoAGRe1lMmtNyquWkBCuVQtubbUwCeUqURvGB2neijYrR8DqBPr6CXtKBUAtAXZNiqQyFqTMyfU3uv32mgwQ73DU3HUEmarU0FjdOoqL4Dc02tvThfTeDWZEOGXCeD7brMdOTvOSO0j1M6mZFtWoQRYxk8VnXqn35Sf+5VOvfD7pp7LUn97E6iZWDMc36TvOYt8IAZ56rWDj1mUM2QkP/X0JH2O2M6J1NlhWTQq5AvWqX5UiRfK2VtlzJiun0BpqjOuG0/QXQW1EgWkaX8T0A61cooZu3t575owapQ6Q+0tuIbAGMq3/dQbeXTBEJYsXoIGZx7dS8Iov8y72/LRsp33cBzWVU+8jQDaDcVOC6oiIsdkJ6R2JQEinCy/K/eh4XnpLyt5SO82YOpRNIss49lKHhFRIme+L3BV1R4vVp7RlUffY1fyaLzjyV6hhHoT+TB9H1WAHftVHvFcsN1V/YmuR7zloFZyKKHtEqzyAd11fPhK8Za8Pvy/v3w8PT9frz/X/9v7Tn11vSvlz38B);lineShape=1;fontSize=14;" vertex="1" parent="1">
                    <mxGeometry x="2020.7890697335433" y="88.4535224308205" width="32.62277150602722" height="35.857262984443764" as="geometry"/>
                </mxCell>
                <mxCell id="131" value="" style="shape=stencil(lVjZctswDPwav2JAgudzmv5HZuLUnrpxxnF6/H2hqlRFUN6O3xRlIYLALg7v5OH98PS233l+v17OX/c/js/Xw04+7bw/vh72l+NVn3byuJOHl/Nl/+Vy/nh9nv9+e5qQ09O38/fpCz9nO4nk42Tl+df8xpGrf158nvGn4+san6n6Di8U5DY+RCrS4SOxu42PnrI3+BJu45OjmDp8ogD8z4rv/cnE+Ta+OKqhwxdicN/qKPTxrFQRvpAz8Req4AKOmZh7i0qxgCNy86AZaEwzMvDkTY49BZCEIlRqb1ApJ5AFoZQ7g5CpMEjz4FJMJOCEyORLz4vYIr1N7NquuBDDUwXMmBLbXzrjVKuyUp+HkiiDE6KVQq0kIA2Lslb4BKgUyA34v+LeDpHFr7i4feM7D3A2ydMFAFHZankKEPg+D/4UKiABg9IUL9Afb/zJTRg38DlZfAD+DLVL8YjTqtpeAzVBSksrnWs8+H5o3q78YRCfSMIWD0VM1Vk8KitpiH9pb27hvcVngI+2zCnfPOC/9tZs8REKMgx8LuC+MvSaCnuHtyVuwoPvK9/Y4lHj4Ba9FT4A/qhehvqAmuuWHiMoiKr3Ib8M/YkmnpkSyO+9eJfabLV0gAinLWVE6k/IpcVsmxGB2HQxBykags1ZEhLUlJIVfQwtDNsiW2Ky9PoIWZq1KPS0EDxzlUDFGDA8oWib6MOqUnVoSlNm93eYuIhOyFb601iH7sC2Njrfqv12lLiVksXAUQYuJbbkU4OARvFBPo5boLe55AY9UEZkjVbPOgzjiSv25F4axDY+bewqGG/qnYftW/ESDB7NZ9Nq0vd7nDHFF7ubeVCudZUx/Z7hUK3hFjH4AMYnjf+AhyM1237DcPcT1/aYFR74r1tJqtYfNL+KHagZjnNaTAd/Msjv3bv0f/H68G9xfzmeTvPev/6/XfT11fwjgTz+Bg==);lineShape=1;fontSize=14;" vertex="1" parent="1">
                    <mxGeometry x="2071.929206221043" y="89.23041105139441" width="16.313628189468545" height="33.41385090061624" as="geometry"/>
                </mxCell>
                <mxCell id="132" value="" style="shape=stencil(lVbZbhsxDPyafSUkUZTE5zT9jwBxaqOuHTju9ffldrGuyWCnyNseMxKvITnxw9v+6XU3lfR2vZy/7n4enq/7iT9NpRxO+93lcLWniR8nfng5X3ZfLufvp+fl/fVpRs5P384/5hN+LbxMojOppN/Lh96oyN8vnxf88XC6xzOl4Qgi1Ms2gTN1cQRW4rxNqJUkeUIiBjeIUvWEPIiBDyNT9U4LVYDXTiM7fKKUAH5Q7QGPHFCNMbWYgQgZXvz5lRLGD39+I1WQ43Tz72aQecDwBg0EpjYgoQVCo45iqpSLJ1jUGkyCeIJlQVAWLMstEhQ53ankSCgVEBq1GgtV0A2mxRAlIe2AYL+92HKhgUwygvdBsRRaLNVGGRnUqHqXmRiHSH1pZyooyz32r0QZnT/W4+7wWMpDgz3wfAtfCf5mZL9J02fYEoLPV2+PriWyiff+WkEI0L4RetCZrA18i8Dvuy8WZucom4xuGLHmZmEiJRtBP0KwgRCqzspaQEdt1iA9wYYaCmsVyl5nUigBp7msBtyElmGvyJWaT1zv1EEpcexecyYBvlALrSXhMVhijOZiRKtF9Hju+WhMxSFlzaCDXmTt35eRNT+MD61CGS4uaZ1HN3yCGXs3ZEeHNZSiDIalHAjN7PcqmMsc2t+8Lruum9hW/H1+reAEzPwPr5r/xdvDv7325XA8Lmvx/f+4B9unZYfmxz8=);lineShape=1;fontSize=14;" vertex="1" parent="1">
                    <mxGeometry x="2070.3971683127993" y="108.68671704539759" width="25.108020711445533" height="4.91295116228298" as="geometry"/>
                </mxCell>
                <mxCell id="134" value="" style="shape=stencil(lVjZUhsxEPwav05JGp3PhPwHVZjgCsGUIdffpzcubayRtwlvZpleaWa659id3rw+3r3sd8G9vp2OX/c/D/dvjzv9tAvh8Py4Px3e8Guntzu9eTie9l9Ox+/P9+e/X+4Wy+XXt+OP5Q2/zjgvThdQcL/PD0KUlP8++Xy2fzo8X9hXaX60d5LStj0OiCPAJ1G3DVAnvo0AL0UJoEmLA6BILdv2CRce7aO4um2fg7gyXki837YvKt4N9k4ccbgGKcXYZ+JvrVLHiKpk4m9z1r6KRvL+JrGO/qokEqCaJY4B9WAJudHs8UK6RkKK94URgKQzQJI2+qBRYqAAk2QtPQz/eaXoJTDhqMTxhIi8ER+QBzWAQhPXopQ0AFKQSLTZqr1SwhNyJe9WKndEhpr5EWE8oiD55IimEsa4VhQExr4kYWRfLeJIIgq4NuphOZPQFQXA5xFQpBGFxibZCMLxGgCytY8hoBjDcIS6EoB3VqUoJIzhABj+IbBMdACkCZCI6PzUfABgpRWAPPYG1J7KAMHWMgAy0RBKneoEILn2UXyygELYBECd+UoktPTLCRCZD6kX08vEMWqkKXFoESzT0Fy1gMquNJUmVLfAqBEnajTOVmjYW0BmTgfRbAFs8gH5UrUAZZl20ianaaZdl8tFWCn53ORD7bVqswhMEmXDAwA1WUBgmfa95VzogZIvTImD4nim3XRCZkVApU5Vo7ArxR71Sx+44oKzUWJD7qK4SdPlHU1/CBBSb1Frf0hSCTV0Le4rINMpLlbbeBtvvAmST/ZKbKApGIRHPTTfx7Trs8DcgZAZNmOVHpN1POGja5uqBuYZJRLFbFHGsGJiYn26TXpA3BgAkjflPkWqB0yiZfQBKxHzoRTLpZi7pK4Dgi0Cy6zLdqzW+/4KcDRxeW1Q67zO2y645Axg3dO21rgwArA3FdKySralEotZZHlw02IJOrLNL/SytQJCX8evA6KdXCvNW/V2Wlc6LSFGhhiBTog52gqg9P5JLY944QbL/HifpeGxoqe2rKL2s31mGbvHkoSctXe61ZgC+Mxm3NT31NW+0O0Ek1W19oktJ9N9Co3pLIPSy8f1CNntarFnk961+7OJRPwUHyXvd7Y6gkOMo87un7BncyREPNmzfXXaoJFx9nkL22+x9my0mGbIhbJsFPngB8D37fHj39fGh8PT0/lj5eX/7ddJPDp/2dTbPw==);lineShape=1;fontSize=14;" vertex="1" parent="1">
                    <mxGeometry x="1806.3801362180461" y="164.24681344900046" width="19.245743119057806" height="33.775876973766344" as="geometry"/>
                </mxCell>
                <mxCell id="135" value="" style="shape=stencil(lVZJcttADHwNryhg9jk7zj9cZTliRZFcsrL9PmBYZAQobNm3EdU9GDTWIT687Z9ed0Pgt8v59HX3c3y+7If4aQhhPO535/GipyE+DvHh5XTefTmfvh+f59+vTxNyOn07/Zhu+DXzEnGfSIF/zx8qk5S/Xz7P+MN4vMJ3itXiA3HbxkuhyIZQGsW0TQh1sb8SAgVgIbG3kAMVYCEXSmIIsRDHbUKtlKzTkkkEiHTjNFNAolYK3eG5AnyjkOyDiIHHvRNn6zEMmuKLxWfq6D2duo1ZXyR+J17iPQfcgzSvEvbAeSxr5m5KGg1BNU2MY9YsIWALxQdZCYIImaKzwNQCICQqwTrdlszdIogjqE2UqJG6LR0RaijS2l8sQXVGqiZKNgxpsbilkdj7cbNQfLeaMmWELz5TtTJxVvTo7+8w7Rq790d0f1/S/kof0LoU37rXH+CFV/+uI4xLs1oLsubtFsEVzpSlWKNss3SqA/SkSsUlxZ1K+yihdhLbgGOFhZNv2kteO9T/p5pQtQ1MpxCaIRrYZAmtUQUqSV1cXJu2+gDai7rgpiDjYoi+9qfqQy6QNI9HY1YbtA2CtqcM7l+754rHLV4Xi1tFQcx4GaorPlMFlXBTag0vLrqZ2RzSNMygmJmS7V21UIH47nY7nQ9AH1lue+cuGBa1r3bNCuIbfc0onkF8P7rL3sfr4d/i/DIeDvPeff2/X7T107ykx8c/);lineShape=1;fontSize=14;" vertex="1" parent="1">
                    <mxGeometry x="1848.3708741359328" y="166.99432888371553" width="17.72591597470955" height="4.822795144301381" as="geometry"/>
                </mxCell>
                <mxCell id="136" value="" style="shape=stencil(lVjLctswDPwaXzEkSILkOU3/IzNxak/dOOO4r78vVJeyCErbyU2Wd0kCWDyoXXh4Pzy97Xfs3q+X89f9z+Pz9bALn3bMx9fD/nK86tMuPO7Cw8v5sv9yOX9/fb79fnuakNPTt/OPaYVfNx5XKjyx2P3+94Zy/vvi8w1/Or4u8Yli6PCFIsI7yj3eB/K8TfCZqu8JQi4CQqRSekKlgHbwJLE3mUkEEBxJ7gmJSgAEptTboG72FRCEQu+lEKDReuLiekKGRk/r9TZEpuC3CXE4UizkAUGcjUOKTSurhJyo1o4gnnzZJpRKrjdaVCxpm1BnnzRCjiRgB++c3aJ4Cg5sIRQNIVMCgShC3BOqqgVkUPZNazMBq0/d7qQnlJZT69pwze1zBt39sG4EZWd3yMDoTBIsPoE4SFttgWeQP2LFrZGv4PyJcrL4CNJN8b2DNOwVVAyxDlV8QrlDpVq8B+fJVPoKNkkCZQ7VAY+qvFY8KyHdABigNdUNFjhMqGwJAdfUmC0hg+RXggyiYNQXhqqthAxUpARnCFoikQ1+yH3tnrjz+GoJAgKnFbJYfIZCqnlYH+LdaABwkRa7ZPGor80qW4RAcCIHi0fThQwRE9j69d9BpQxElwcJJdihSiv9y8QEha6S1AEPEv+jeCUktg6FAfOUnPUQygFRk82RdCAEIdAG7EyMXdtza0yQPgjac5GItAHXoemjxNcDGJlmafVv/UiBuCdIpQrikB3FPnEkwDk7pVbb5ulLmwpwa3QUeuklB1NBcyH2O8TYavjWYC59EwkVTl9zlGZ8bJeT9Q1s2HSQcWD9YbbT8gGncru+rlAAPlkH6V1GQA8srTTM+EiMujITm7uUZh9qgTp19BHQgRjg1T7fW4zXV3wyg2MbxNbx3s7jKjm0Pjd/3PHoksOBQjF4D/KYoy2/eOzluTgv8Og885S4OA/yT2nL3fHoBjUpyBl8QeevLZz3eDG6ZWqRMoJr/XbrImHOz7Bbfvjjw3/x+nD/0vFyPJ1uH0qW/9svI/rq9lUlPP4B);lineShape=1;fontSize=14;" vertex="1" parent="1">
                    <mxGeometry x="1849.3799837017186" y="170.26738967484516" width="14.503374755004188" height="33.98454643111131" as="geometry"/>
                </mxCell>
                <mxCell id="139" value="" style="shape=stencil(nVjLbhsxDPwaXwlJpCjpnLb/ESBOYzSNAyd9/X25deWsKO8E7W295ixFcvjSjm9eHm6f97sUXl5Pxy/7H4e714cdf9ildHh62J8Or/a04487vrk/nvafT8dvT3fn38+3i+Ty9PX4ffnCzzMuUpAFlMKvvy8Klfznzaez/OPhaSVfSXiUFwphWz42yiOgUeNteVOQdZAvtPzakudGdTRAKLdt+ZyI6yCfKAJ5VeIyyAfKwN7SSNTJI/+0QFGcvBYgX/vnujxTjcD/IXhAI1WgQCkkzwhGjDBKjApShhQqlVIeTcjEwEdaKIwxEKwhG2AkXVbKsg2QSjraYDoF0EISFUdTAwCeSqQ4urVmEmCDsCdei8Qg0lKojRpahkfKmUIbAdrdcB1gTsz+SBVwyTToSO6qPV23srOOgbN8KiAdLHBpTOcSqKA4WLkabdAA3crm1tGGHHoNvA6IVOJIb2MXKmHJH8lyGtHbACl6QMIAdRrM0SDSbORLHiAg0iwUJw3wSHky+mLVFqCxBzByq1IJHoBag0XacckADQNc1bA4QC8ZgD2gAXobwHcrwRq0J+QKUJEGpeiOlCkiQKakHsAoH4R4BqDAce+w6yNhepc2GQ3KzJJAE0AQ+ZLvQEvgcE57t/J7GmQmH7KBKUyAjKjBEzUSrnzSq9A6RVHVyFfKTMLkk+lIqO1aPsToATDShXLycUCzxpKiUzGGpfI/AHEkH+OR2yYBGTVII0bTTJtaVutuuN52pxTVBruofc8BbKirdRugyY/pNgkwAohPoGbUAEbrlNOt9Eq1OSS6QTfgWV0uk/NFhXkaRy4Ff6aIuFH9NmATFmwQ2c+h9Z1aOfWsor3ybNmQx9JnK1ECAJvh3KRrY2AEdUaT3wfkEvzrCwT3hnPJIIY7TeXe0lb1HhUm28rchBUve+B1APd8Wa25WN6N0pkqWrJa583b2ocS1Mbmmpx8QGtu8eexA6Igm/9ciYFrukz9sOCZOPbV5S05oYKlD4zpH20qABYsfzsN2reV6yb7mw/b1FFBkmkosc0erZQU1MsjSvA0wwRqIM1sOojT9wFFY1+8VvKIctOCu/gHBCD0YXwljyrXnJJ4NbRaPsmjrjndk8RKDdTq4GuKyQs8j7sIM/mACPqPN3Pvy9vD2zXg/eHx8XyLuP7fXxvaq/OVI3/8DQ==);lineShape=1;fontSize=14;" vertex="1" parent="1">
                    <mxGeometry x="1920.39230744222" y="175.6039960731439" width="18.79719659700868" height="33.502323050386394" as="geometry"/>
                </mxCell>
                <mxCell id="140" value="" style="shape=stencil(lVjLctswDPwaXTEEwec5Tf8jM3FqT10747ivvy9Ul6oIWpvJzVGwJhYLLGFN8vC2f3rdTd69XS/nr7ufh+frfpJPk/eH0353OVz10ySPkzy8nC+7L5fz99Pz7e/Xpzly/vTt/GP+hl83XE2UeUZ59/v2RKjUvw8+3+KPh9MqPldK0sVHKrwdn4Rc7eKZKZRtQGSqqQck8rINCI7YdwCl8O/JXYAvJLGnzBQBB86NYgMEJh8AgIl70tE1VverSiV08QnHF0p9jbIjByizJ3E9oGDKlXzpACXCvtCUXO4AlcnFbYBU4p5zDTAlLWHoi6q964AKWsPYV6kqB5BSKsTRpiRINk+pb72qSQJASlT6lEomQdPgbWeURAlUae7Mak9wDggXiAfhKjjBe4qGtHYXag1HyVkA4sDFeowCIhBOHaIMJ3g0D5HEW9IJTXQYAI4KEI6F6gCAIzroUJYJ2eLg+hPKYmxbVQp9lbQ1MkqpDCnlVoYtpY0VK4BRa3jrGvMJgMN8O40cMgBEazNapYA4RKrB6oB6ySdi061aBjRxkVK2gIpIh2EemDI6QVoC63kAvuS5/Xs9caCs4/3w3kwvPrd2DZCStndOljRybx2gWC2AEUBHtFodBHEIw8RVCmA1UYBRWpsvAeF4uWRX7Y3M+MMA3ZacaW+GHKI0c18A6nxgHpKmlO0JqPlyalVfAAJ9qahrFEsacdDvs5sAQx10y41mRGPbk+8D2N7TtbRrcms5MSscOwcv6pCHS65CF5BAoa9r1TIhn1FXMQMh0L51rXRihUBSB6uDFpqBzTjrAbrnMvj+pYKrPRoxFitzqM397xN21mMEa6AljX1Gvrad8X5GQqnfQZVURT9/UrudlkYS2NuxDC4G9+6c7QEeaqA7c+gZqCooPrbjV/Egf936Y7HxQGNt+iHeA746uMHGox+sOoXemfgCBJuntuer9ojy15YsJh5Z0cpHVoJhAmbKfOvBTcJ9QtK2uK2CRhuP3FoFG15JIMIffYXxfrx++P++5OVwPN5et6z/b9+v6KPbuxl5/AM=);lineShape=1;fontSize=14;" vertex="1" parent="1">
                    <mxGeometry x="1958.8262806148468" y="180.43403470119438" width="12.7366230272969" height="28.649804356774666" as="geometry"/>
                </mxCell>
                <mxCell id="141" value="" style="shape=stencil(lVjbUhsxDP2avGps+f5M6X8wQyiZUsIEevv7ys1oE2vXB3hLdnWs+5G8u3Dz+nj3st+xe307Hb/vfx/u3x534cuO+fD8uD8d3uTXLtzuws3D8bT/djr+fL4//3+565L914/jr37CnzPOUW4dxO7v+QEn4vL/ydez/NPh+Uo+UUqjvCfHc3nPVEaAz5TiHCAW+TgCmFoGgEYlDIBGvs7lo6OaB/lEBRiURP1oEEP5LCEqg7zEGES0VPLJyDs3l2/yevTXUwT2NDnfD/KZsgcZc4v+RUGkhCzKFEYAB6ppDqiVyggIAgA5kxgxD4AY9YhZEvIISMuTWZb9GFU5ogINUkYmbSVqb2wCAmsQFVAdFVAYUsd1TFyV3kQmSSGMzSy1glpBnI6jSU3CAEzKjeJY2y1q3KalMeZBnjhUrYVCtQAGiZPy5mYBqUGA6WfR6VF5t5WGQgWZJADjQ6UAKKybxBbQQB6608YHyQzIdA8rW0DFieORJa94YRuRyGerAhF3L52VEzCugYK3AEapXg0fCRzibgGkYAEekKUAstFQtEVmPhiekUhX5EPQ11eAiKIUqRYLgD2aqCULcAhQtIWvNeAR5PzKB8CVPU3ZAto7LedtHuDMaquGWObwDOCKBSD6lteG7y86Z2G1tbSsNrMeNUOudxwyKdny/kBTfxKR64oGKpwpyenCec34ABCKXeA6k4Am5bIqPwc1yPoSzeSNkC1Fg2Em2Vgy6IiwIsvCWsHbs73omr3sJ0Gn/XYeZPSPvJEwQAwwTkehTwCorHvnssUxDGttSlzLnii7Nao+YVczhCImS68T53IXQNtGLboKX+4CDEigZ3Wc7FFZYTsJxbZP1B7f7gWhYrOFUkFVEVeUATkpRLsh+qBlsl3Yq/uex0TsqzbKAmg6XmYXxDCmrF8egIaiO/AiX3Sh284BJXO+LGMoBxrBK3l0f1uNW5GvYO0JdtcT+Ya4RSn9g+czubqyHyXAbrc9PsAeZ3uyxx/UqLNXN5GPUN7cPiWDFcTfWXIX+YDtMdf5pMvGzN9PfSF5X15+XD7HPByens5fc67f28838uj86Sfc/gM=);lineShape=1;fontSize=14;" vertex="1" parent="1">
                    <mxGeometry x="2030.3657175751723" y="178.69100012961553" width="16.069442646237803" height="27.47396123822523" as="geometry"/>
                </mxCell>
                <mxCell id="142" value="" style="shape=stencil(lZfbbtswDIafxrcERep43XXvUaDpEixLijTb2refPMOqRcd/kTtH+XTi4Sc16MPb/ul1Nwi/XS/nn7u/h+frftBvg8jhtN9dDtf6NejjoA8v58vux+X8+/Q8/X59Gsnx69f5z7jC+zTPU+JxkvDHNOAClfx/5PvEHw+nBS9CJXQTCjnZ5r1SkY73FMM2HzJJzzvKaZtPSqE/DxPzNp8DZW/Wl7jNl0BBO74OAN5x279toMQe7JBJXTdBlBwwUVntoNWLYEJKpP2dfZr3vDkhsnVadPAO3lHp75DCHFhbYSSpm5ALBeBnb41UCkVwBSVfLF8UHIhCzy8cedvRlFYHyiAReJU3hTy4AJP2BqpxkiHPwfJcIN+7uOCYYJLc8xE6jCn3QVozqYAQchTE8h4JEWm2vIAkUJKy4kEie3Le8gEJndWVah8UP8HmZOWhMM6ys/CXh+sHY/9MDvgrzJqzjDdgf291d4xnYE+llCyfwX2F8r0JWdYZD3mXLY8DOnjLM1AUJqfWoAoSYKXq1cH4PM4ERPxCICJb3sGEFLN+gIp7N58p9g4bazOKoCZorcgIlLgQ59ah1e5qUnCkul7u7+A9MZiQ/RzDrRS3MLxdu8WmWQ10BmlW/BxkLQ/8XHk2dzBxCu9cjc59Iau6BbyQaiW2DV1GTihWKCIlpCthlrXP80dUB1ZCVw3EqBuay27zgIPtVpPlBa9QqPOaRwYiTpYX3An1/h1bC2AgtY3KqGRQqE0DPioT7JyKsX+BhUko9TlWhSDB9bOzPPJv67YbjwulzmWr8RE2ct42TpVXcP57X1hf8/Xj8zn3cjgep9fg8n/7/KtD09NRH/8B);lineShape=1;fontSize=14;" vertex="1" parent="1">
                    <mxGeometry x="2071.8888483387636" y="185.0233585809749" width="18.352726426817753" height="21.420429714396278" as="geometry"/>
                </mxCell>
                <mxCell id="143" value="" style="shape=stencil(lVbZbttADPwavRLc5Z7PafofAeLURl07cNw2+ftyK8g1qXiMvskyRzxmeEzy8LZ9et1Mkd/Op+P3ze/d83k7yZcpxt1huzntzvo0yeMkDy/H0+bb6fjz8Dz/fn0aluPpx/HX+ML7jAtUwwBF/phfZMr974uvs/l+d7gybxSsORPzbXP9fEvGPjDFcBsgQpEtIFFMtwGpENuIQqEAMiiBohiAMGUBKTPVbgFlKdqngN5IigGMKkcIaA4QqYOQeieJFlBJUEidisshkTQI6NZDEkogh8AXJVyUpIiKXVjmigIAcyOJagA1wphGmWxIVd+guioRVhtNKAN9D6ptmVrCOdSVhwjlqgCxzNVCLUMA2yqVToyS1u9ZD7lTBi03AFauqWMxVd+jolQiuVZPnGjXFghwY0znGCxrW/6+ajlGZW1U2QMClndoPqSM1ZqbT7piD54HHa4oB+04x7Q27Z0pYD0UXqbnLUBdia9gQLL9UO9MsuZz0AZKmLjkAAnO+88BgLixIPySw2tRdxBbqruOY0D12HJWfeq0g5h0j4bsAQHUdayoFRGIubbQdMU0mhrBL5SqLQjtU/PxZFAiLamVak2wQuw3YmUSoCNeRtwl30QB1Ic9AbnAmaeKcQu3wcNntW51pqLNw15yevY0aB/XNwmsZ3ZNUOBAVe82Hr0MC5hFugCcHmD5//OuvWuuD/9O6Jfdfj9f4Nf/+5NbX83nujz+AQ==);lineShape=1;fontSize=14;" vertex="1" parent="1">
                    <mxGeometry x="2068.4124906841976" y="199.32151032968432" width="32.37123865910371" height="1.6205943975144237" as="geometry"/>
                </mxCell>
                <mxCell id="144" value="" style="shape=stencil(lVjbcloxDPwaXjW25Yv8nKb/kZmQwpRChtDb31en1Acsc5byxmVly9JKWnvFTx+bl/f1KriP0/Hwdf1z+3rarPjTKoTtfrM+bk/6acXPK356OxzXX46H7/vX8/f3lwk5ffp2+DGt8OtsVzwxT1bB/T7/UonD3x8+n/G77f4KnyP52uELVVnGJyH2HZ4pM1ifSVyHd+TcMr44ymLwtQC8kBfjz78D3cRLJp/NeRn4X9nGxwfKHhiI3cDX5uJNA+/miDSLkGHOqi5Y+jMzcQYGiXLvE1eq6NSeXL9DTBSBS1JsGpKjiPIQKfU8TZEEuCTzEWcDoYAMcvu7GSjXBWROhEqfh4mMKEqO2BgUSoCsukPsw6phkAQMgg2rZgbRuwQKfXlq7hOqTyWf2UGdBAYxt/4wG1TK4AzsqPR5uGL87YrQVKd+iwxTrS0i9HjdALDVtRPOadAjgLw58t7isT+moCdqQX/s+krth/wvVECLGeKjeJRjTylaPPIntH+v8B70o0Aiw/og/jyUTYGkZqre4ivwP9qWrfFnUGXDzFR8BYSO5Ab+MMjXPFKv8ALWZ3K9P3Vm1EL8Y7R4FH9PJT+G90M9In8cJXnkvG6IP46nG+IvJCC/ik8Wj/gwzIE7fNOOONQX4vOg6e7Ui6daLR7XYx7qC9U7UxjWR/1E8UO9w/4TKfcBVRmGGq7OGHMCnRhITegUi8OIiSCkKjZsDSQo0spAuhqgmlAlO1a9Q+KAhzaqjSYCg9SqZNYr0pTk0g65J6peL1CjE9/m7qy55kAvHZr7xGVPEd0PpOnQWQYWKK/FWfIlbuX6n0IzarcA1aNktgZMBV0RvNW+LO3Wc9sgWmqo4EcCZ+JmT2+9UlSQB60v6cM6iQZEvkqxD6tPsAerlDVNyTsY1pLaxe9yU0PiOtfhCgKbfE5DFppsWJLW2a7vEVOVR9HgAwiQ4o1KS20s3sbHNpMu+IriGZsGnUsNNmHFSzV4dGdUfDW3IYp3/GGDv+N/NFMc+8+NwBe8oIbNtjvWJmOW+GDiWdvTyBLeDS8zKL8PvuTcx+uHy7PR23a3O786Xf9vn5n0p/MTFT//AQ==);lineShape=1;fontSize=14;" vertex="1" parent="1">
                    <mxGeometry x="1782.6109806153381" y="253.6612554647636" width="24.15058304188733" height="32.43381265848575" as="geometry"/>
                </mxCell>
                <mxCell id="145" value="" style="shape=stencil(lVbLbhsxDPyavRKiqOc5Tf8jQJzaqGsHjtPH35fbhVyT252gt7XMESlyOOQkD2/7p9fdFMPb9XL+uvtxeL7uJ/k0xXg47XeXw1W/Jnmc5OHlfNl9uZzfT8/L79en2XL++nb+Pt/wc8ExcZ1BMfxaDkonLn9OPi/2x8Ppzl7/jcZehJJs23Oj0gyAhaRvAyRQsAChCAJKQsVGpBeEbfsSqBUbEEkGDy5U2NjHRJ0BoFIXC6gUKgB0CtaD5qCikDpVV4RMGeSIwy0nA5GYQoQumnWRCmVQZwVwN4DMGNBWAH0EKJwWots05TYS92/A7b47QEMeEgUXUsWASC35NzACMDVL7hyog25QgLjCZerYA1sPKZCghtYyOfYpvxEgUrSSoXSNiK7a8DakWKgiaiTPb225ijqoECcPyAhQKUcfEpS9lYypEgpu6mxVQIWyIQ99ZP0G6EObNwHWQ0o4rZ1StoCOK92GqtzYmkiQatRBtbsGguKqZHb90KgmSI2cPUAwl/4PMM8HR28VdPBozbq4SneofBK98ukMEyBkXHxP5w7Vu1Gy7aAtWEChtRvs/fPQA6pUPC+UKQ3Ek1fxKPEALRJFtzMEPNSFOPuAOuid6LeYebiABzDFVUJR54RVQsN40oa9i7+VsQVt2Ltx3nhsKVv3W4rWOk624nf2EU6d1dD5YIv8eOvUj78r68vheFw23vv//YqrR8t6LI+/AQ==);lineShape=1;fontSize=14;" vertex="1" parent="1">
                    <mxGeometry x="1825.3450958116473" y="255.14904111445958" width="13.617652123007701" height="3.501945195848066" as="geometry"/>
                </mxCell>
                <mxCell id="146" value="" style="shape=stencil(lVjLbhsxDPwaXwlR1POcpv8RIE5tNI0Dx339fbk1JFuUdwLf1usZiaKGI2o38vCxe3rfbrz7OB0P37e/98+n3Ua+bLzfv+22x/1JnzbyuJGHl8Nx++14+Pn2fP79/rQgl6cfh1/LCH/OvJgp1IXl3d/zGyGR/y++nvGv+7drvKPEA76Qq+v4kKnmAc9MKUJCKSMhk0OESnUkeEecwBIC+TQShBJYQ3Lt707QVXlAqOT9mFRPBWQ1F0pjlkTT6tYJpZCMawi6qrBOqJHquIbIVAGBnWsRNEZiYpCmWm1M2bW9vE2QpoSuJZ0TEIpQGEMqKl+w1boRaSRUTwmsetHGuHM1kQCCRGIZ5XpJ3O3ERoompl6DNwnO7lztb1bwIVk8qjitFm/xHqh70kWplIG4p/EV72E8YawFFXsB8fAUT6EAVMS21hTv8zreT6IrMD9CzBaPLFUoB4uPIP5JooqvoAiCdXjNfwDxB4rTflVGeJn0IyB+aaNd4TPQs0zjM3QJrXCxeGSNTKXeh/funni0+qb8ZIj3U34E6FPr0ehN9wsYkGvH6bUewP66pt5rvcH6LZP+kZ6ZwqR/VC+eOFo8qkdvG4oFD/UZp/GRn9yL50TRCDS0IW5PEKyj6InhUIejJTAuWY9aeE5mkskj0B4vB7UhRBIgoovGenOgrg5UqjkxNq3dRAJr0A5HRkLy5IAutGzLSIhqxYBQAhXTdKWW6NttXWxG2Ala+mgf4tQHRtiaxmTNTrT8gHlpt2zcyyd8GkiLuBMYz8DWr7WBZ9TAs60H1iMUzdCb6S5vKmiCZE80bcFQUvv0De9altfw5n7gWgrWmkzjqNoigVKIkZzFow5T8dnG70BtqojCFA9qkrv7XK0XHFCKj8XgM4o/2xsd4/wUe2Iy9NPY/b9LGhqF4tni4yfxs8Gjq9bdd/BP8fpwufC/7F9fz98Lrv+3Hwj01fnjgjz+Aw==);lineShape=1;fontSize=14;" vertex="1" parent="1">
                    <mxGeometry x="1815.7482291712013" y="256.34570213853044" width="22.14864282546796" height="33.08531906405733" as="geometry"/>
                </mxCell>
                <mxCell id="149" value="" style="shape=stencil(lVjZbhsxDPwavxKSqPM5Tf8jQJzGaBoHjnv9fWdraLPiesfIm7PhSLw51E7v3p8f3va74N7Pp+P3/e/D4/l5p192IRxen/enwxm/dnq/07un42n/7XT8+fp4+fvtYZKcfv04/ppO+HPB5SiaJlRwfy9fVGr5/+HrRf7l8LqQT01SGeSThETko6Tx/CyOyMciGgb50g+4Lh+sPlVS3JbXIr4O8k1qI/Je0qiP91LqNgD+KOMFPkomFgRnNfKVAnBeHV2KmBUSM48bdAQ0acToLHG0GV5zxOYofpSPSTwLguRRn4Qvnp2f45hDQTyRLz0lZ3nYyzyKkI6AgiOIwYhQMFkXxQUS5NwNnAFNiiMuAqCNearSmI9QJ6NTW5ZAgpyqFANAbRCVihPX7A2RGF2dlDFuLVKVapVmAE6UAHBeGTOvJppJ0LiYOMxKXgck0dFLBZHJBOClGoD28rhuNM4bcwmODtytwY3pXcUTlUqw9ZZRzwSAodC8BUTi1pT70FiopGyMIJfMDRgsJNIx2uSDlyrxEhq3UWlyA7EBANM1bgFcT4QFILK253qYFgCWGtNsGr1UfG8LW4CcLMDfAKzcmkngpskRLMCTVgmjTQEh0oVNXMQ1W0DikY7FAli2arC5NAGI0QDklUosDqp9Pi28xGgPANFZQGI2qCQD8OL0Uzd4zpS0T4NFtjo2soId0wAoaTNTHKoFJBYHRHpdosxo5NJKJepWZKu3gEC8NNXDqkQrB+RqAcxLV2ra3bqhrkpUb/SlVQExrqHOjqwb3XvqresSZYH7LCDqivMV2mZik2BqeuYGWzNODSBRlfKKnOAL40sgCkEtwJF6qL4n80KlwABVqrNeonwprgoIA4U0sgYKZ7pGoguWd653lZmSoczJRAFNDaNOFdyXAVbp2gLN78mvBlD4wjEX2AxofY/dIt9xDPXCD9fzNdvuiiuYTprs1gfyy+Yo1iwzIcBlG9srUx8gC/bNHg+qXYJK5e17RaVdX9SuK9RZ7WJPZAW3yjzsoYwHOPsWAFbKCF/oW+e8RyfaubO1N1RaztPeOhoMF7A+7It97UEM2UsAQmDYm59n8NbwSYbj0hyCR9LIxRJlVnHF0iOl0CgbNxqg9GkCGWAWRE9bBQrZnI9pTnoRMtI0VEeX7qydyn7IszYB+VatPPEPJox5NnC0v2PAOCvPNvRpRlp7C9Mn2acY39vYlnyz/mezYJIf/RP4KjxPrw95xpohb1aF0C/ckjeEUykbRLzMWqv0OeKz77u35fHj4zH56fDycnmLXv7fPj7j0+XhWu//AQ==);lineShape=1;fontSize=14;" vertex="1" parent="1">
                    <mxGeometry x="1907.7102732500098" y="247.3171151242807" width="28.75840691387384" height="34.466535414589316" as="geometry"/>
                </mxCell>
                <mxCell id="150" value="" style="shape=stencil(rVjZThwxEPyafW3Zbp/PJPmPSIGwCgEE5Pr71GTjYdyeKRQpb8NS7aOP6mqf9Or59uPj9Sm455enhy/XP86fXm5P+u4Uwvn+9vrp/IKvk74/6dXNw9P156eHb/efLn8/flyQy9fXh+/LCj8vdsFJ9YtVcL8uv/ggKf355cPF4O58vzUo4sJgUCTnY7wGyW3AR8mF4JvUOuCDRH+Mj1V8GvBOWjzGJ5y/GbwPx/icpRaDd+4YX7I0i896jK9FfDT3TWT9lqSM66e+4S7eu/W8a4ThoUp2qD1Aq0ERJSFoQdoYAsQ4kR1qFB1jvGQJ2aGo1DHpohdPdsheUh695CQQt8YmaQxDaqIsr5GnOhjkKkp20GiPhFSJJFNh4MYjVRVPvKRF6hiHWsWRO0SU4rhD81LJHZJ2blgNYk/H/Tjg0mO1tdwJZz/SUZoxWAlnP5e8xDGXUCF/GWffQEXNHQK9dA3WAG4tZIdSbLYue5JL59YpdJMamZFYtSSDJZiXYrJuRYU4RsMr6671oLSmFxod7xBxB3Ik76WMO6CkGJOpZRlVmnvgvXF9MGsjBwJBJItn9Tl1TuAdibLvFLfi4QGSd6H7e4NP5Pza3b3Fs865c55MOn+SmCyeddrcuWfjHyXrZ9Fi8ZV0TuBN40SVEfxUAsBTspvWj+JJ2UeJxeIj6yA7eFphPRu3eOJ/EGOzeOZ/Z+sReJbPa0Pd+JOdf9IhwDviTzcJo9CbyQHetBrgPfWPTvXCaD1M/ID6onwVyoRnEkRCm/DkPKln4wbP6iVJnfzDJFHucmaDZ0of+Km+/H/ENyv00aMCwXsocdNgqkTiIETA6KdFIJEIQHD50UXJ0xKACDV9GyqT+iha7ZGLBJLUJVmWWBQV2WHR4kZlhq479w2aHUAgh+jEgsKfRCPTsThSG93auLTGFevYajZTz75fQ6fmdYv2VuTcKPehSwNJpkXMGG0NucLkfrB8Ck97pg+KTSbITKbpQp1kZqKXxgQSRgmS15o6GihMjWLcLkSzpGyncczzkZQchizTReDoROJQqt1BoXzZcJqmaVZ7iRzldzEDdu75uG/gp3TlTFynN5HaK+RoxDEFlPvAfUQadcTH/uixH4TS8+wVzzyEcSVXg2dEDBY1b0ypU8hR2pn3hNyrdT+vq5XKpc/m+3jtg8Nay/S5AuGJJiMineewv+FUz2+MC7ZsDZTVfrbTEAyYukCIWrUGdFyBk9QaZKZng+3Py5GYl8L0kpW6Zto38L1XbuLARpblra5YAzZDwUDVGrDUW1SzOZLSqQ4GZhCHARv1//1F920DfLw+IN+c7+4u78/b/9sHZ/x0eazW978B);lineShape=1;fontSize=14;" vertex="1" parent="1">
                    <mxGeometry x="1945.8630121985907" y="244.2704212927606" width="16.810924671844077" height="34.79175650639468" as="geometry"/>
                </mxCell>
                <mxCell id="151" value="" style="shape=stencil(lVjJctswDP0aXzEkQXA5p+1/ZCZO42kaZ5x0+/uC9VARQemludkSnojlYeOBb14ebp+Ph+BeXi/nb8dfp7vXhwN/OoRweno4Xk6v+uvAnw98c3++HL9ezj+e7q7/n2+bZPv1/fyzfeH3FSdCrjRUcH+uTypl9+/Bl6v84+lpLV8ojPKRStmXT4k4D/KOat2Xz9yPf5N3cV++eAps5YH+pVKsg7wnAfrXRGHUXx3GQL5285bvO+KwD/BuUXhBZBKAUJV8GABBn3hos4wAFgjIlXwcg8xUBUbZGS8FysCt4smPNErKC2A0p/56ASgTAUB5aQKXpVu1HYhIfgQotzyiKsWReUWo5H35aJnXuAgUylTG79dAIQEDuLt8ATAJiFpgKmOYa+xP9oJgkrkKJeAicRTMCUpVkJ4pEjsLCCgIhWqygAhOUJ/EGQC8pD4Jk0rIrc2J0wkFJbQQm8DlXtX2AKlaQEYqCWUTuAKrUjvBWwCq8woIY35qJWSQDeqlFC0gA/Jp4OoEQEVJAb5OAGRDoJgtoKA4eCpiAYLI5zs3VwCHbNASlGwc3jnBAjJVbINVKRODjGtGT/SuKHDq1mIBCZGPKXgLiKDyNWpMKkEvKfnEAjLoiI3ebL3kcD7YBNKujvJhK0X9x4pAgaNbKzMTvVELbYVsondCKsWtjHunGM85jcjHvVb/J6D1h/GE1cC114Jsz8JHaJNzs9WATDp91SkQCXBDG7XzFuDQUOl7ZVyxD5Xv2LvyqrFnoNE0s7bZBHzf2e5QMsy3aDtiYWI0+/j+epn2Sq862y7VsX8MWg6wI7KqNFaAJH1W2TZBFRht1t3JAZtTsIW1MQukmw605oTo+0y6vQjE3v+WRYDhiFudnbo1MhlV4mh3E11m4DimbjX5Gfon9rqJjF4qcBpTotWRqgIXjbZQjvIRNqsc7TwZe+XfjnK1DTrCrSGx5Z3OhmgVc5YUmhsZkEIBLkwRQLvbvEIvMdm7MzDEVgAaiBVgVjEFVHRCtm2hAYBXJfV5ea0ScKssK/YKgOIsYnmqABQ4Ebt0a+AKOmEhzgqAKpICzIjhHcxmiXZBVEDARn/sNuldef3xdnV1f3p8vN58rd/bqy59dL0m489/AQ==);lineShape=1;fontSize=14;" vertex="1" parent="1">
                    <mxGeometry x="2022.9359195333955" y="247.81796188513522" width="22.621256866639214" height="29.704497525394117" as="geometry"/>
                </mxCell>
                <mxCell id="152" value="" style="shape=stencil(rZfbbtswDIafxreEROp43XXvUaDpYixLijQ7vf1oGKojOv6DALtzlE8Sz6QGefrYv7zvBnYfl/Pp++73+HrZD/JlYB6P+915vOjXIM+DPL2dzrtv59PP4+v8+/1lIqevH6df0wl/5n0SKNZpF7u/84ojNy98nfnDeLzigxD3PJPwNh8TldLxQkm2+ZQop44PJGmbz5my7/gI+ZKpSMdnCkCeGqn28ntPDlzgnRrQ9TsSVQ+uUAl6lVUHj3QolI1NI7kMjJSIjVF1BXnBExurFmLg5sD2hqxx4bY3aJil2G1Qz6SwvUEo9jrX2lY2eOctX4CNVNzQe21x5G1HU0r2ggou0LBhy2eggKPoLB+AgRz5YHkk/ypMa2k3bvHGAZkqqBSOJFs+gphzVILlURZ4Cn0AVU0zEKJMXixfgD2Zin/kfKHAj8gvVOrKPkCeQN7Ys7QQ3+A5Wj6iFG51/zp+oL55FW8B6surhMwgfphitjzOL9No7icwrxKyAAVWFWuqQEAgR7wyEAoItyoQhRI834nl8fk2IPKd89Mqgfk/8n7Vuov2blAhpFqL5k8b3B4+SmuLn20swQ3atGpv0xBwK462qoi0Tni72evffdmdEhVtiLYuqt0KyEu9IZhEkDbj3dYhtca7ZA7FCKykha2/QQMVSKQznemtGnig86mTxBseVjrfDLLMgAnIry5yfSYIrLzCrXAuvKDzuU2IC4/GM/E2EZgyqrzeehjP4MpLX9p96z2b54vhA9LXN/cvPMoy5U2WuTZLbdlTkuHRjK98sbxH/hWrr8OdL9hKjRvNo2+s+7x+LA+6t/FwmN+D1//bB6AuzY9Hef4H);lineShape=1;fontSize=14;" vertex="1" parent="1">
                    <mxGeometry x="2070.9842475870673" y="251.42419248717238" width="23.700789998296386" height="31.773068787192187" as="geometry"/>
                </mxCell>
                <mxCell id="153" value="" style="shape=stencil(rVbZbuMwDPwavxKSqPO5x38UaLoxNpsUabrH3y+9hp2QhiZYoG+OMiOJ5JCjgR8+9i/vuyG4j8v59H33a3y97Ad+HEIYj/vdebzI18BPAz+8nc67b+fT5/F1/v3+MiGnrx+nn9MOv2eepxQmUnB/5oWSKNR/K88z/jAeb/CVvNN4Ry328XJAZEVIlVLqEzhQ1ifERgGcEBOlqggshNYnZE9cFCFkeKXqKHpF8I5c7hNatUEL3kF8cwbPCN+I9f6eMohY8FmnKJJjiG864ALj9W6N7yZDEchoOsFEwNQCJBQtVF/uxcBNExrFgouQtSz8vaolZwkR6EgITgctdS4oS4VysDE4dEIhNkrN+EqF/KYOAROcTmu7F0LQN8pLM/XwUVeBlyz38NW2AiNZ1GW8XVvN45qVZFsZCzuYTiCP4m2b6UUejZZGVd8nUcOt32y9GPdZ08PRB6p4FtWN5KBGJWJDWHPcI3hNkBpklNNKWefo6kJfQxBHMKpgDy0krwN6ncAiRFBncTVjCZNtgTqIb5rxVTzMkoRYoyJUCRpIoy7/rkqKlIExe6vUG5voEKImTGKEB7gNHvWOFE2nVIZHARkSCzP4tPhoB+91KzdeVjp4pwvQxPbh/Y3JVhn3eH+tiBrh7HV2VIsgUIGdrVdpyw69/BuFijkAR5bJuXmbYj3831v2Pl4+rg/nt/FwmN/dt//bh7YszY90fvoL);lineShape=1;fontSize=14;" vertex="1" parent="1">
                    <mxGeometry x="2061.4113650505446" y="271.8455614071165" width="34.956304789287515" height="4.740284100126473" as="geometry"/>
                </mxCell>
                <mxCell id="154" value="" style="shape=stencil(lVjLctswDPwaXzEkwec5Tf8jM3EaT9M44yR9/H1X9VA2IWmb3GxplwSBBQhopzevj3cv+11wr2+n4/f9r8P92+NOv+xCODw/7k+HN/za6e1Obx6Op/230/H9+f78/+VuQk6/fhx/Tiv8PvNKFk0TK7g/5ye+Svb/nnw9E54Oz1eE3KQZQpQUCCFL1JHgRAshwIA6ELBB28aXYDfAA2JQKRLCgHdSiT1VxXuDd2T92iQWi3fb+BYXHpVG1m8L/2TxleCblNF+H8Qr3aC4kdDEkQi0IjpaFOagrxOStJGgsetwy0c1jppAkNmhoZlxh+R6GDdNGlWUMpURvBRMGHzfc5Xg3ayDmZGlMjc18W0gXLS+dWo/2gSxMzfV1FOrE6qXHEnyRHuGaQmi7tSkjiYhPwIxCYHNo1ybSiHaQLrkMd+gR08iF/rbGd+6HNcD1+vbB/FOWrb4QtLHSWwWH8mBIeSxXkCK3B4TMuCZioCP1p+sQDoJ2eJZMjvJxv5MC54XXyw+E/t9l8sVPpHUD6JxgSf+DFbRwFdiv4p6659A7FFbuoAvFG/ug6k0kXhh/WLxrAyphIU+leDhn2TxzP6w8A/yi9QgxHfMx6vKuiWgaDfggs5q8UwQSIDFgT1NAKc2AJkIaC2BHS8Qi4LIEsD1t1d4vn5bJAALMAroMiFpAn8OD4KtWEorRMSVYTzqaMokZMji2mNHxkWdR5NwsVZyCaDLNFWxIMjEpIZDm7sePRTr0tBnjrIoXsJ/urQx0TIKUaY7mMqVlbbKbW5E56ardO2uE9xKW8ekCkIeixf6C2qSt+2Hov0g1QhnMO1HSF0s6wS1/QRGLiZvuNWZASH0Eri1QzMJTZ00TSyjuhMVRo3dhRc8ayjKPD5cJha2fkmLvrcbuJlsixEzsS622d4dQyzTHQgm/6eplw2NqCeGkGg6g2CmRhAyC9oiFXymjfVEUEtopIaBoEaohfb68JKpMFC243EwrS8IbF5BTTTK9pUmW5lboSsCa5YxMJn8n4ZfVumzbfcnk9gOn/3k8gECfly+8Dwcnp7OH4iu39svQnh0/pqkt38B);lineShape=1;fontSize=14;" vertex="1" parent="1">
                    <mxGeometry x="1817.0524524678563" y="324.1200693923274" width="28.204227285062643" height="29.764922552030157" as="geometry"/>
                </mxCell>
                <mxCell id="155" value="" style="shape=stencil(7VnLUhwxDPyavapk+X0m5D+oYglbISy1kNffR86Wh7E824FbDtyWQT22ZHVL8uz81fP9zdN+J/z8cjp+3f883L7c7/ynncjh8X5/Orzor52/3vmru+Np/+V0/P54e/776aZZtl/fjj/aG36dcYFJSkMJ/z4/cYm4/n3y+Qx4ODyuAD6SYwuIHgACBZkAAgCecrYAj7bkyU0+uAQAQqmOgEgF+SDkxQJCgAAbpUAV+SDEwQJglHSFCcARAoLZkqeEVygTQJDTfoqSUMWA6i0g41yK1QISAATXg7gAHPQh5J4IC4ApAkCMlkC1O7VpnwJ5b+xRruZAZXy/7hDYF7UfQ6RcAKdcNS1GtmkaAfuSSdjaZ7B/DYcz9rEAe6YaB/tIGewnua4Nr/HJYD9RJrFgyP0wJ2nAgpcpmBUyVUy0OB6BaJK6ywApdkuyiOw2IFEZxUKjFNEKmpTjqTWRBWFVH2Qkmtc6gqNkeOMrCUjsoMQZfdCTYeCDnnQ2mZfJg9RLTMmknmAuJ8qjD7FQBmKRaufuQs4A2ayAOoY1u677l+QljU7nAgFRAWNYVUE8g3OQzt9FwDRuIKyafMkonhZP4LT0srTY164Jm/bOKoZjJgYuKLuqXaCA4sxdgVb2CWyIN94v8P2m9tdCBb6fnbVHic1WsmuGec3TCWdYA12vMCt7RGVHOVl7h9So91preySovSKt94PEi9IUn4j6R6pTfFCCBnJjgup5BeBvsOLb8gHuv5j3V/Lg/b6vvs5nSEjTEzVCAn5JLxVvJ2TkaQGQcNyXX9kj3eUNh1G9ZNu9qz3a/+Ld6sAQYXgiTIFNFG8QAB0Y2/5A7T0kcJwJBhX3ffayDD8LQGCXpmMpjxJRSu+bt8uYsxwoAkOqxd5W1gRFPUVbKFurimq3AkYa6JOCWllv0651JCDtYrYtUZtGUFi1zo1EiAzbOp2fZAxriF38Lo10hsph6Qy3U2PpyZY+UMUR5ZK37USbCoEPc7nxTB4BpN+ALN0y7mV1RDECr6+ADbzKj5kpCuwD1UVzcO0CApyDHpwZ63TwRT1OS4TRh9wHt237ajVYTwHRp04zS+9KLs2NMp4aQ4nXudQUHVxyqrdNHcPrk1UJe3WggiyqwXZdCcpF0RyzFwmoiOc4pcRC1kt6ZBZwyw3P9hGnHpHVBRDqQ4JOPwYQYJ1SbUhTWiOZ/7h9XMj/cfv4398++jr5ILjxnxq9BgBRUpm3FBXYeSrAMk56ebxEUTNMOQ8bqyAT4zzM1iC2oDeZ+YdqmHMIUCrblcUEyGhgU8aZsEbIaQ1rzRaACNTqc7EAJMZhmnnahxoMkHd92XkDQH+8fki6Ozw8nL9Drf9vPzzpo/NHK3/9Bw==);lineShape=1;fontSize=14;" vertex="1" parent="1">
                    <mxGeometry x="1865.2604439704205" y="319.0373634978398" width="24.323386155439493" height="34.82614631535603" as="geometry"/>
                </mxCell>
                <mxCell id="156" value="" style="shape=stencil(lVdJcttADHwNryhgMOvZcf7hKsuRKorlkpXt9wHDkNaAYqtyo8hpYesGMIM+vO+f3nZD4PfL+fR19/PwfNkP+mkI4fC6350PF3sa9HHQh5fTefflfPr++jz9fnsaT45P304/xn/4NeFqpcIjKvDv6Y1S0b8vPk/nj4fXq/O5UEvdeRHKZRsQM9XQAUIkydsAtc+l9yhS5G1AEEqtA5jNBACilHqXUqOAAEzSJ6lY0BEAEuXcAapQTCCGTNKntbY5b7fTytR6Cy2SgrQmq4P0gMXmTUBhSisLDQAsxH/MWQCBggBAodK7VDMVwCUjn/YWqgXdACBRiB4gFQCUorNwRw+BuHkAoxiEtKd3tSwhl2QVtHEJkM8AzbnEkK0WdOgrXRo1FEMiVg+IqA6FRDwgAC5l+1xWAJAlE2RoHpAQIHgBWZYEsLVEH4MBkEQNkB3AugbgkgGiAwSKoA7FGpmjt5USWTC2Vg+ouAmIA8SZLLcLV4mzB0SQVuNSCysLWKKe3vYGdG+TaFwFrcglGyjq65AQW8ULaOyFgBoGyCuJ3omhVA8QJNFlZl7pISOX8g2AIpfqnJNriaI2878AYSbufbIBgSrXEtU+rzaCFAjCRlDr82pTkQG/TUHJARosRFq2nWVh+ghrawGqfdStQAmJjcVeQg2vJ4mKYx8eQasyjN0WnFefo1Rh05DgDUSbMICstkKWPmINlIFCtczyWrZQwYIzebkczZK9TST2uwyeuWODaO48Yva4Vag7z8ifZRu8Og/irclnlGeDW8Jhf16QP9XnkykCStj66xZiG7bInzbPsUVmkKKNfcteCrJ1XvtRG3AnYr8Xhnv+u5mDZ1StfoLgPfX+Pc8ePi6JL4fjcbpjXn/3l0p7NV1I9fEP);lineShape=1;fontSize=14;" vertex="1" parent="1">
                    <mxGeometry x="1908.5034359581623" y="325.4349972515729" width="10.030775515512232" height="25.89389857868082" as="geometry"/>
                </mxCell>
                <mxCell id="157" value="" style="shape=stencil(lVjZUhsxEPwav07pHumZJP9BFSa4QjBlyPX36Y0jsxp5O+HNLNOSpqfnkHbx5uXh9nm/C+7l9XT8sv9xuHt92MUPuxAOTw/70+EVv3bx4y7e3B9P+8+n47enu/Pfz7eL5fLr6/H7ssLPMy4FqX5BBffr7xeVpn++fDoDHg9PK0B0knQAxCKxbgOCF00DIKgktw3wKhpGgJfsCSBLbAMAXxwDqNQ6AGrf8roLWG7cIEohLoORHAd7J4Wsn51ENfaOMFSSxGTO48h5NImO52+icdu+Xo57IRQEFQKAikzImkQGcOJHD5LvMdlyIYwU5URjUFT8GAN8oaTiAOMOWqUkAnBS3agildB42MYjtSCZ5JpCRyOtLfU9r9OK3B1prYg0A1TJJhOSNOJDzVdYCkTbqhJHlkrratxiKZQR4Km6U5E0Op2DeFaRgmXpH+LzU7p5KXnb3kl21t6TeoRsz6M9iizJnsl+yWeiI6xWrb0nMfM2ZKiPTKfBBgD2LACxF5NVR2CiyzaVsb4j5y+9v6zsA8uzzvbKnvUDeKeWz8iyzLZM2DfCT7V1AnooRA9q+YTeaCGy1Rr2LCWzlHFGiIHqecpg2AfSb5CPblqf6rM0e35WFp2dQKKn8UJzKhP/JF6Xbr2yZ63G9eis9UP8dT071vqkfLopXwLNxznfHVkfndfomedvsfy8ZdCGnv1UTzKpt++1x7/NfBMvffB6AoTO96VjVJrBOkk08zZZi63pGFcS2aGVnlKXRoz5hpDq3SRTNHMlady0993L+BHpXI1pwo2BwBKVBS7bQXx1yq3pII88tUpzM5fJiUTHCcQ6mxlKaTXKsY+Jq0iw9IQUqol17rew605nq1fsySKnrt/hVhMOu3NpFD+VpMYAqKlmpnD0GggfTBH2/NIClnTsOrW3lc1L1HiiLI0VMW+rMJRC1l+6uNUqPRD2r2Mb8Ym2HdQxIySPIJD0QZvJJmoYlRig2ajFSC920JlpJQk7EB8AyGoBSo60KNkAML5xgGEpae/XWwBfLaCy/MQ8a95EEHtWAbyV3tIeGEvz9bdJIE5jPRM4ABK5nMJF86SwAAhLCJMZMgCIbMhL9plmcZpMAWkOXO2l9jrgvW9T/wHAj7ensPvD4+P5JW39f/t0hk/nZ7f48Tc=);lineShape=1;fontSize=14;" vertex="1" parent="1">
                    <mxGeometry x="1936.9704824526093" y="327.326335029192" width="12.582737714254563" height="25.087106123197145" as="geometry"/>
                </mxCell>
                <mxCell id="158" value="" style="shape=stencil(lZjZbhsxDEW/Zl4J7aKe0/Q/AsSpjbp24Ljb35fTgVyTmrlG37zojLhcUtRM8elj//K+m4L7uF7OX3c/D6/X/RQ/TSEcTvvd5XCVT1N8nuLT2/my+3I5fz+9Lt/fX+aV86dv5x/zE34tXI1U60wF93v5JQRy8e8vnxfgeDjdA54SK8BX8nUbKI2i3sFHChgIXgGNioMWlabWZ4oFrC+UgjaImt9ez4FaUusdjBCLuWzXA/tbIa/9Df0Bq+u9uz2vA0w+gw0aOeNwJgYetEgta4sSZbADRyoaiAnuIDnO2oVUoChyJK99yAyzECXLUQGyZwJhFRWkooDaqAYQJSp6PUsaErDIrpcwMwhqpapjKkJJDeiiEGvdtUwFCDsMSRCLIghRqpR1pbEYCQAJedO1z44K6i7y9wBkXPzJDQDaQdrbsEPFQNHKY98fsQU0tkAGeZAe7LVUpeU4oDwBXLbAA6drskADWhIgGJNib+NbebDSiLhrO+I6AEBLAvhigQx8mHtMGHwABSeAG/LQ0EnFXTn3eQBOC2B7hod5EIAH8aEuNh+ezgIOdCUBqjFJ6gGp1dnG+qji/JC4hzXN2QIFdcpAaQAacFoAHkoUSWMuUW8BRjsIYPIQ8FQiJhULwOMh2DFG5B0QIBZ7C2Tkgx/Eh4HUrDSa6+paPxKHdi9nHDofZNa0R1aDzbj0tN5GH4ensWG2atzlu7XeeBDg+tJr5RbTTA15zBR16661J349pqICDZQK5xLJmhk0cu5pWXchU9W9PkXYJ2WQMlKNciCBJPDQ9mR6ciCqMriYtMmIi86refYyeYb13KQWtM8FT8TZnump31LW13vrQIbPFxEY+2s/7dbX5+HS43sWtzYwPVUiipqwtFxnrjGuP2IL8DqkwcPSnIFqgYx113RPlauVR1GSkYEtUDDgdLHNQkWHIdvbcMBDieTBjJ/hQdcu/eZ1B8BJrKz48EBL0Q0+oB2SvR4GPFgJYKpHAOj0f7/GeAzIh39vTd4Ox+Py0uX+f/uWRX5a3tDE5z8=);lineShape=1;fontSize=14;" vertex="1" parent="1">
                    <mxGeometry x="1965.7751087758484" y="328.92481109053165" width="23.702080433955416" height="33.31128245584091" as="geometry"/>
                </mxCell>
                <mxCell id="159" value="" style="shape=stencil(lVfZctswDPwavWJIgOdzmv5HZuLUnrpxxnGvvy9UDRURitb2myztmgAWFwd5eN8/ve0Gdu+X8+n77vfh+bIf5MvAfHjd786Hiz4N8jjIw8vpvPt2Pv18fZ5+vz2NyPHpx+nX+A9/Jp6jnEcSu7/TC5+oyv83Xyf88fC6wEeK3OM9xPtCPnYEfcHbeHEkvUGRStrGh0gSOrwQl2188pSkd4DYbeOzmtvb48gBfGXiPkDcHPocX0lSb48j9iCgbjZgPsGTAAlqoFT7EEVKwKYiVHyvgZ4AbErcYt4IOVCuQOVEuY/SGAdgkhK8s4QCdFAXpZq4YuVEwxTtERWknkj7vCAkkHtKMDYpASWfEozUtVCMgMBU+mqomQoqN6bKluCQEFpeff3U1LzaImRjUmxGbukQnCUEdEIkL5YAk0kNyHedkGzXu+aDBnEdJZQamSTepUOmIJZQQI0qgY3TV3IpUVllq8dRklVRw3qIthdfq7hgTbqhqE37vtY3hOKqqKFyQt7buGZE4FX2FSz1mpBbpG81KVG6z+lEDiWTtNS5kRAL1d6krIMY+FBU1/6EUKAP1TWZ5imn/Rnk99gkeqfHOYpOiNZpz5RAF1CTSl8Q89jb2jVCn94BNu9x7Cbz/w5kXkht2nzsYoy62LxXLHYTFFKv9d6r7AUuDnNDWWyfHlgUKJrVR/dXIFn4ZFXyqBAosMWjScJty1ngA1CAya9SLgB/vc24cVtFArQiXMSnggxytu71TQAN2Nnhr4pXoK8WcbB4VGKr1VavDwn462yjU7yD/poe4ecxuoG/73Z0Ha8PH1exl8PxON3klt/t1U1fTdc+efwH);lineShape=1;fontSize=14;" vertex="1" parent="1">
                    <mxGeometry x="2011.422512121836" y="329.9254488599652" width="21.924060239631217" height="21.65554493062473" as="geometry"/>
                </mxCell>
                <mxCell id="160" value="" style="shape=stencil(lVbZcuJADPwav6o0mvs5x3+kKmRxLYEUIXv8/Y7XNQaJuCnezNBtqyW1NIN/+Ny+fGwG4c/T8fBz83t8PW0H/ziIjPvt5jie2tPgnwb/8HY4bn4cD1/71/n3x8uEnJ7eD7+mN/yZeY5CmUjCf+eDksjn/yfPM3437i/wwhSzImQmlnVCaARRhCjk0zohMaWoCD6SK+uE4ihpDa4QA0LNVLwiMAnQXEsP+IxnhvhSDd4HgK895YsAEpChhs86fqGE8VVnNJCv63jHi75OSCQooZWKFlDIgZ5o+Kgr1hRhvDMJYqqIUHpCFoKjCCTXJeALAsxppsSWADVncslqYA8IiUowSY2o65K1QTtAkpe/z11R8PtNkT2xg4LFma6OSG+2NWMKN0pWDB4NoobPYvAOu0YsvqB4KiWNF3IRm6aafOb7XBn7pFy1vR4TuY/i1bGi398ygArWxpbxDHdfr85FHVDzTEBfuJdQhILuoaYhgZDS1f4LGa+zRtBdnQJFMNy/2bDSx/f3BAra9lNdUF9QtbMRryfXbXXxAWR8RxwtXkCK2Pq4lRGt12U5LvgMByPbUV0jRWDkK9tUTxVU7BovN+J3uiMqQ182vbqpy7Le1vKp818yXH6tXmZvJKogP/deAW/j28P5vvk27nbzdfXyf3s/bUfz3dY//QM=);lineShape=1;fontSize=14;" vertex="1" parent="1">
                    <mxGeometry x="2007.3849496455937" y="342.6687742918132" width="31.368591306876624" height="8.950548437703219" as="geometry"/>
                </mxCell>
                <mxCell id="161" value="" style="shape=stencil(lVjLbttADPwaX4kl98lzmv5HgDiNUTcOnPT196VqrKKlrDFyU5ThmhxySK528e7t+eF1v5Pw9n4+fd//Pjy+P+/il53I4eV5fz6829Mu3u/i3dPpvP92Pv18ebz8/fowIaenH6df0wl/LnaZKZTJSsLfyxshbf9ffL3gj4eXJb5R1QEfqKVtfGmUo8MH3cbXRLrCh218Y1J2+FgA3vxpA54pxW28Jgoy4O0FiFcL8chnpQr41Ewpjf4IMXIoUhwD5kIJMKqBZDSwkEMFFFWSMBrknvTrBpl4jCFaEkDQLVGpo0GihrJcqI5ZiI0KYsmqcgw6CSWGedCxrlOhAhLNYS7MbpGlE3f9JxqxM2ikIBHK1PJgUG4kwmp55LUKFaAGU6eMaqja31yXP5OMNE3VAmgyudTRJWNaQAzR61+VGsS7/rVIzHWPiLP/AZQFpigrh8D5oZfNAp9B5QXi5vEsCO/KzuqqAILsfPZ4lLFA2Z1fYYfn3q4W+Az851WCa2d4I19thZeMCsK1iul80CpSz87SfxBv7tlZ8gPqJ/fuvOQfScwPKMNXwE+m6ASmfQRtxKvB4zPkR1b4BvyJff4u9QXitb486vGWgHlFkMIEzAvKAl+gwNyANbwAQs1bV6Ctl+wWPnl8hAKODl9hwwqrBFcYL1PJHh9hQ/wc3gyaU4z0HnC94mrnYx4yGU7WklZLV4VDpto+McZQjTXAkS0g0Y1i6xugC9ns1jFoG/YJDfvoF+sc8SK4qqPUupS2ti4XQ0p4F9feyOetC7eKiXVnYJse0H6dK3NeNRXudeaS23CmBQNM1+l+4PYDheqcWHIXhNwn4lZpuIHMDIM2Ayeggj0K/QbxcQWp6MplFAaHF3B+Eb9mJpjlvJpopiaET76MCikasHG1xfYOex0/b/aL80FZ2w6bgucfDdjgN4QCpZ/Ur7x2JwTKN7yMAyTDgW8yV48XjG/uagMXRvMneDyDejZ8dtc/KMm8upDaygAE9ulPFDfx9vDxPeTpcDxePqcs/++/n9iry7eXeP8P);lineShape=1;fontSize=14;" vertex="1" parent="1">
                    <mxGeometry x="1761.2605163630442" y="401.19898242070803" width="18.282093537404762" height="37.071257302525055" as="geometry"/>
                </mxCell>
                <mxCell id="162" value="" style="shape=stencil(lVZJcttADHwNr6jBYNaz4/zDVZYjVhTJJSvb7wOGoUKAUie+UVSDaDTWQR7e9k+vuyGGt8v59Hn3fXy+7Af5MMQ4Hve783jRp0EeB3l4OZ13n86nr8fn+ffr04Scnr6cvk1f+DHbBYo8GcXwc37RGpX4+83HGX8Yjyu8UBODL4V6u4/nRLkYg8zUgYOYiS2jJJQTYNQoBGMgkWq+b6AEYjIGGlUElCpTtpRYSQIPvXhVA3TQK3F3+IDwjTg5fK4Q/ydH1wCoMcB3Kk5SKgLx3fLJ1BD/7vloQAXzsfpwoBSgAdsy5UiCIm4kzkAWn/dSJo5SwpQKJfYGgoooU2qeUkYqJarsg2ZEKRE3LyuDVutC3apUqaG6SxQso0wZ1VHyogoJGC4qUbB1x3B4Kb75PktI0UKtOHxAglY/HQMJwjeq0fEX3GfJ4iN1pH/3/FUwEC+H4GdpxQnoS58veO1UjBeXMKaKIr5uo1UTQEnrpgnSMu7vGsT3GNRIOdsk9OUTt/eN+GEk6hN4SLotqjFIlTKQdcqS9ZA7RbSVtVBtDLrGG1KJqi2kmpdSvIkvVO1k0dZGG6QsZXbFX8flbU03dVfhVaH72uE77AQdRBt8BZ0mm1kd8KiIVNLGAdgGvKRnHQAImJcDZSUQGtV6QHSfALSdtETtoOgJLqfNYOlx8fifeHzivPeO/TdeH/4ezS/j4TDf3Ov//ZGtr+YDXR5/AQ==);lineShape=1;fontSize=14;" vertex="1" parent="1">
                    <mxGeometry x="1801.3909680729003" y="401.2930595596056" width="17.427308508286842" height="7.320090739850684" as="geometry"/>
                </mxCell>
                <mxCell id="163" value="" style="shape=stencil(rVfLbhsxDPyavRKSqOc5Tf8jQJzaqGsHjtM2fx9uXckWtTtGgd7W3qGWrxlSEz+8bZ9eN5Mzb+fT8fvm1+75vJ34y+Tc7rDdnHZneZr4ceKHl+Np8+10fD88X36/Ps3I+enH8ed8wu+Lnc/k82zlzMfff8iGP398veD3u8MNngsF2+ED5QLwnrg/P1G2AB+JXYe3liz4gLeUTG/gyYEIfKGkvpChQTRk+5CdowRiSJZK6g0SRbNukJlK7xIzebduUOR1H7Q32KBQ7r8ghXfAJWsMmf4TIVIChSitcapBDLW3lqOWLPYGiWGaYibT5zUbKsAgSAyxNyhkQOWkTr53qbR+XG5Xcr7HFyqglxxxGfAgqZZC0vic1vGGctT4AM43xKzxiG2SUBVvhlQQvNN41HaGnIo33Tk/DXgH8+mjxhvgjxv8iZSRPGqpmPER4Ysd/PFAvCgM/jM4Pwz5F/lFjCE31gvkM2jOCx7Ju69vb/rNgX72C/yKMP9hOL8gwlPs63ujeysNlEfCM8KbrPEJEsAPeAYNMcymuQBAdAdVFzxDQbFDw2EBClnj0WCy5EYCAP9tlctbgv1H/AJjWk8td2is9W8zJpIHFYu+KlobexmmKOXBQGQMkFKGnEqqfNOCosnoDj2NZdZHPOvV6JatKgAdyrmOxWYg1ANBy2S3feFkM4RbWqagdqg2HJalK1blbFtarOvCcqUDsdoDZfcElZ49VqspVl/XuN4MGC44V49bt1JEHhmKfQi4MTjp/UD4BNjjW40qXsoI/PdJyyNWX8ErsrUFYxmfdZ82PVu7G3jtD6JmaOFd8QnkR/CKaE3/1vBqbbdwesz4njXu3vkqP65ejtbwXpEMX86K3m+4NuAaXvUPw+n6r7fX+3h5uF6VX3b7/eWmffteX63lr8u1nB8/AQ==);lineShape=1;fontSize=14;" vertex="1" parent="1">
                    <mxGeometry x="1801.8636661370915" y="406.32257498032845" width="19.288754569976845" height="31.856002296193537" as="geometry"/>
                </mxCell>
                <mxCell id="164" value="" style="shape=stencil(7VnLUlsxDP2abDW25Oea0v9ghlAypYQJ6evvKzc4uZZzT4cdi+5CcnSvLB0dSWYjN6+Pdy/bDbvX42H/dftzd3983MinDfPu+XF72B3100ZuN3LzsD9svxz235/vT3+/3DVk+/Rt/6M94dfJrpLLzYjd79MXPpILf7/5fMI/7Z4XeGbKYTRwlHndQIQkDQaFnFvHh0jMAz5SknV8zBRlwAsl8PxUqJgTUynr+FwojQd2VMDzSyJXDJ5BQKtQzQaP4lMjibd4EP+aejgueJ8BPlO2/oQI8MUSQuOD/KkUkok/g/grvlSbLxAf787x6wZMgg5QKVeDf3vjGp7HAyjDEb70+F3wMECZwpjggBOWiJ3Bvz3gOj50vl/wEeBLtAWjFYcKRqw/3pMHAYqV0ljxPsEUN4kYPVKNQDUgTH4MqUQoEsoxU5Sh9FNdZ12yKpGUpoB1vnbSnKOqaUMuFaqjzhU1AMISmHh8Q2VYaTGRjHlo2gGkd5ZS5a5H1EhUxygpGSswKNpbRq5WTwG4pGodxjeUAvtZmhqg8j0Bg8g9JmcDTxlkWpwlXzsVegOxWI8cCFLoB1zgUb1xl58lHlGV8ljPSrwK/D/3xwU+AYHR/ugtHgnepO9FOz6Ij+ucXOBRfJxtaIVhgn0/3QIPK7nPSws88kemwlc8moj6rws8ozLub1/6D+KpRTzhkdRl2/A1/gL4oO0lWHyBeFsvoSvfiv8xWXwG+Yp2gGr1CPwJkwRFyGexA2/Dg/gzuTT5A/LrJ4XT8wK8I5nwArqr629f5gvwwdkBufEB4uNUX2hA87bvKR4NODoezvWCVqB34mU6QM6UwIFbIx4nRm1rFTBURwcriQwN2kxncpBgjWkXNaKiwwSaPrQp8niGNtciVSmdNJfFEm9C2onFDAcVFoIku4q25Qt1Sr4yHERUajo3msxp70PLAbmRqzo2ot7hVVxGg5C7fFw/QrDdWALsHlKsHKlAoQlK02BmZXWSAb1TtgtChkNgrrYcBOL/b9QfcaPGDn38jRoR6J0bddvD7PMFqbWzCQt9hLleMNznk8sVmqAB0NmJLvUKuj7gTLtrgTKqkhLG5uExQ3nuBQJHFh979zobFEhRlSh7jVngrqsOmGtGNYBVw5bUzQDoqMbEVJkaZJDmavc4xSNaFNsJFI90OltW+EwF0W7KcoZlnHsRLq99UB+we6LiBdA02znfn2+yVuJj9iDFByQr77w6/zdeP1zu6R92T0+na/7l7/ZeX786/U9Abv8A);lineShape=1;fontSize=14;" vertex="1" parent="1">
                    <mxGeometry x="1841.239833849595" y="399.17801497562755" width="14.148439479567969" height="34.867520602903596" as="geometry"/>
                </mxCell>
                <mxCell id="165" value="" style="shape=stencil(lVjZctswDPwav2JAggTJ5zT9j8zEaTx17YyT9Pj7QvVQFSFrM3mTrQUPLI6FdnL3+vzwst9Ffn27nL/vfx0e35538mUX4+H0vL8c3uxpJ/c7uXs6X/bfLuf30+P198vDhJyefpx/Tiv8vtqVQq1OVpH/XP8JSpL//fP1anA8nJYG9lpHg0i1AYNKNQ4GlQJv42sgSQM+UwwAn/z6kSJYvzHVcX0mRvhC2V2YUgL4RlLc+WsBeCUO4/pCFTmoUW7jhRNphB51HEuhAK5Q7MR5vEKAHBR7Pe6gmRQEhVbS0UkWJqrQwEdRI0Z3iJ6GljuRW3GqY1wY84p4yNRGHozKjJgWCu5IQgXkmp1Y3aUrFbwDjzzUSBl4qao/knHfBIYGjwbaKCKmLVucgcACk5TqmA+5woSzelJ4NBBYAQKVcYM0F8ENPGePryDfmDJ7PCKBezIu8AGcZ65XM15hVBi+eTxigCk5/2ToH6YWPV6hP3Px+ARCKPYAW+JBjMrKP5b5oHqJT3zDF4BPFKL3J4N4SJRW+ATXT9XjUbwlklU8R+gfz5fFJ+BLfMef4h/ET+zsz/gKO6y1p7zCA/9Ys1mfB8QP+15jeIXxH1f5KOA83Nlf8NUwPnk8in/2zdXwSEExFVnFM6gPK8E15QsquKt6mHGB7rsv8eA8n8UL+4KeTeOBgE7NN7FsHkVNLPWGMjexWfFsiQkZY0JLz+otVeqcWhJMykmWjkeqcx7dZplXfcMkVELKV31jmgQJkFCmJpzQNDGM/GrTh0uFxSm3dKC4LRRqKKPObWG3Rtlj8qSM7WYiE+2gN8Qv6t+FV4KFYQGwmUvHiifae/ptIsTPOFbEoQ5s/fViqkPRZPHqmxRU19VKqPMqngKzz4fWib+Nj561EKEutbHRdZGQe5/bMnADhRlUPJjKSLON1hHv4LNB4RRlNKsbHUuvbFsGLN7gA7dK9gZwKAp+ODUDJKYqe7k/GQD1UlftczoSGlma729mgPSj5XtZGcB5ufoKELAi//xXl48N7OH/R56nw/F4/Ua0fO8/Ctlf1w9Kcv8X);lineShape=1;fontSize=14;" vertex="1" parent="1">
                    <mxGeometry x="1914.8737063261965" y="406.8589858211815" width="22.34440842432241" height="38.724621281851796" as="geometry"/>
                </mxCell>
                <mxCell id="166" value="" style="shape=stencil(lVjZctswDPwav2JIgudzmv5HZuI0nqZxxnGvvy9Yl6oAWuvJmyzvSrix1I7v3p8f3va74N7Pp+PX/c/D4/l5x592IRxen/enw1mudny/47un42n/5XT8/vp4+f320JH96tvxR3/CrwsvUXadFNzvyw3O5P3fO58v+JfD6wofKQeNd1TaNp4pJ4UPmZxD+OA1PlBhhC/afl8pA3yiUjQ+UqjbeO+oaQfaeMJ1fKWkDcoUAD4UilUHFNrPlVjj/XjhdX+dxTsY/xyoJosH9VDEXB3QQDlv46un2BS+EIP6qWKPxkvCGDhQCjVjEMMM5ErNlHQkB0xKmSIrQpSeAYToqWpCajCoUjP/YrgEyRODqvDSBtoHiZuPqI2Nz03qHOCZkg5qS5TCNr6NplrwhUICDjQ7J1qGdc3isQ5Rk6wBD5LMEf2G2qiBSpVCStHGNICsicWs31BkuiJCIVctIQIfhFDLREBpWIbhipBAHlobvbIiVPQGGYc6SiXjKEnUqyWgidEJxqQCa7ub5C0hgRnfnQ6WgEpDwppMf9bxiM3EOUtgnGkXJgIuvtAswYORIQ1sNqc4XdEb0pi7K0IELSoEP5UGGjJCCBMhojykkdcVwSGn84jJukXB6BZCnQgR1VIZLb8moLBOC70TkEmyO6YWLbhFrUl5PGKz49gS0DD2bhEV61TjlqtTy8HR10atrcsVEeqVlvNo9H2UUNpQvsuCiNCkFMewXnZWgGKSpw5quINErHntg8QtoSVnX7BK5VXClGixCOlzd2XrwgVk+606WBf9eKCTkNs40lyP6VI2ixgTBQpCJMKBdftEOQQBk3K024HDECtbGpqnQ88tjaujKqI4olItdlC2USjX8X4kaQkSnElyajDLhKEiTvJ8NngkD6OjYCQ33FVyKDUyJo+IbVWRObU1GE+fLd5jbSh/R5OxBDWJnDuN4haJjPStNI4uuu4TmsC20STFaFKIQUboSZAZrB3vbZHKOENH204wfZPhQUwI5jAvBDRchGAGsBCQ0Ounf92ZMj6QDPNT4fEN7WkbTfAFpLnacceLtNzAGx3Zn48mhRV5N+yfTqo9QKAq8lip6wyAFZgmfzMs049+z7qNl4v/H8+eDi8vl29v6//txza5dflQx/d/AA==);lineShape=1;fontSize=14;" vertex="1" parent="1">
                    <mxGeometry x="1962.164042403389" y="402.57816496249643" width="20.920522837205226" height="34.63303480332138" as="geometry"/>
                </mxCell>
                <mxCell id="167" value="" style="shape=stencil(rVfZbhsxDPyafSUo6n5O0/8IEKc26tqB47bJ35fuQluL8k5roG97jEQONTw0+Ye37dPrZhJ+O5+OXzc/d8/n7eQ/TSK7w3Zz2p31afKPk394OZ42X07H74fn+f316YK8PH07/rjs8D6vE0rlskj4Y/4QiP3vD59n+H53uIYXCqHDe3JpHR91/9rhHTlZx6dMhTs8E/M6vgj5YvYPeR1fPZVs+Bbgj+PF/mKAqSILhVi6BUrBOUChksQ+pK4dys0FOZL0FkKkACzESL4/tCSUwSl7br/bguKak7ddItdTqBV6lChWi0cORSrJ4ivEc0/46hxvLggk/h4DniLfQ0Dabv8YIKFYLJ6BToWCCWhpIV7Bp2zxDqhas9zwXRJ1BW8EpPgI/A9DPDN5VFfIy4APSHBuwAcg6GTLkOIz4KvW2caTgT8ajWTxyJ9b+IJqxOCPVhmgh5FvpQT0nFpJu8Ijf8bz0vwC/oRBzxVW3VFv6g/Ir1HPlSLMX5svFfa9W/mYgR7GfC/kYX2w9SRT/Z94rdB9Bc1a4EACR+2KvUKTI48UzS2hli4WyIEQldA6+9InGfbJKo3i0gVwka7aWHsLzsEoVSVtooSnFe2idtpCKkrFUta+DbIgalsyIYJdTKe50qdlIgYR9cTZ0oWiNrNZhj3MUXbGmQrhzvqODle1YuEBUGUSI2fYH3W66AegCMfKYajUAQ7ogC3V2MrXCjyYzIKqYSuCACOjaW0naDQaiqUaoO/33kf+BteHP1efl91+P9+crv/bq5J+mq9Z/vEX);lineShape=1;fontSize=14;" vertex="1" parent="1">
                    <mxGeometry x="2005.4347543995627" y="404.9211616007515" width="19.646243270206014" height="37.53667083547157" as="geometry"/>
                </mxCell>
                <mxCell id="168" value="" style="shape=stencil(lVbbcttACP0avTKw7PU5Tf8jM3FqTV074zi9/H1R1XUMyaLJm7Q6BwGHy05897J/eN5NAV8u59P33a/58bKf+MsUwnzc787zRZ4mvp/47ul03n07n16Pj+v788OCXJ5+nH4uFn6vPISSF1LAP+tBI2jl38nXFX+Yjzd4IqCmCCVC4TEhJEiakAqEOiZwBtSEmF1CLFB1DBwhOYSMEEgRAkMOY4KEGJMiSBpSHhNqBSzaJYhOVluFiAqPgOTiTciCd/xpDUIz+IQuPpuAXQkEX7X9AOwUBaH4iyZBySHID5oOWKrOS2jrn69VB80POGr7GaonQAPUCSpdwZFgGQ3eqzjBU7T2o4MvvQlv/PcEE3Nk8Oj5Lz2LJv8b9knnRzrMK1Cxr+MNveWG/mt9Cdj3pwbbAJ4/FUIy+P9TaYQvZPF+vZG1z369pWjwzfNHGpJNfpo/IFo1etFGP5ohDezbrzre1AMaxqv1zVvzIdj+Cp590cv2b9rQ9zN4WQBZ54fQFaCkPjCvhArNmRCZukBXxcgtuVjtjI5SE06PcbGrPnGv8o9XfbZbKcuUdlyiYKuiUj/5+A8QtUeiO7t4k6OlDj2HrMo3i2pA4Gx/4OUUbZu9bdoBPkeL9/oS3/lTgZ06RTuGZFB6FwPJhkmo9KVTEu/WfEt90Y7wuu2bXL3ceIMe64037Js13wJk1/7nrsfbeHl4u4s/zYfDepW//W7v7nK03vv5/i8=);lineShape=1;fontSize=14;" vertex="1" parent="1">
                    <mxGeometry x="1997.4240379995704" y="417.33019267787427" width="35.41152391717742" height="13.244737087808971" as="geometry"/>
                </mxCell>
                <mxCell id="169" value="" style="shape=stencil(lVjbUhsxDP2avGpsy9dnSv+DGULJlBImQC9/X21TbWxtfBjelnDOriUd3bzjm9fHu5f9LrjXt9Px+/7X4f7tccdfdiEcnh/3p8ObPO34dsc3D8fT/tvp+P58f/775W5BLk8/jj+XN/w+83yg6BZWcH/+/9LI5X+/fD0Tng7PPSFRM4RIleeEECikkeAoFkCoFPNAKBTbHM+ZUhjwkZKb42PemEylzvGpkGsD3pED78+Zgjf4EOf4wpSqOU8C/imNQjP2Rj/H10BltLdSQXgmP55fIhyAwdVrPDsNVWSxHGCMcEgUQQhKJj+awO4jgokBM1UgIjlSiiMhUwV5IF7NPEZBZBEAodo8iEwZxLlFa0Os5BIgVDVRCUm+AIz2blWyMrIjBn5t4pTxTLmoemdWG3GXSBlHLo4EkRcDN2WvcVoJhQIgiNvDGOomGQhCLflrvtAKFeDXYG1ujRqwWSwoGzyKG/lm8RUIw1EOFo+C5qzwBI8KgKjI4NcEn+HZ4hm+P1Tr/woi7KiwxSdQ8URgGzxSUNBE7/AeCejKeZA/WXOww6OsZNuSBY/yPm4SoGp9neC5WHwCeovqvU4/Dvhfzp8sPoJSyhQ3+AL6TbBFa8kviLcN0OGW77UB9x8ABktBcRaPiqLbCLQRAwOc9okuYPg8pg0IPsKC4qvFowA7ra+9QEGApcBtEozBjOm1HPcJCQvuJ/ESHpMxiRwIQPSbEuqhglLTCrV2saiqnU6NY5LJXOjBkeR9zYzVAVbRtlkNZLLNaP5INu9lmkigDsmEY4xOiTyIc3O2MiYHO4cYHc2UJpMhUJ7MgX70UgzEoLZLHNgMjhXmZnE6G3ejaUNHkvY0eik03ZBmR6qjl5aNCB0p23wWwQckvqIbVr8ioJ2laMPolkCPvpDs0pK1Scyc1EYTZMwE78/J9hzWIeN6flaVzepTONLJqG5KdlSDrre0ZnuOVDxgL3vKzjoUlUjxn9liZfWvQHbLFGVEkeFe6oum4uoieQUiZG1KK2Et/DOCqUiXzju7rKibLyBZCMEnS0DLsujerCsLAY0KrLclHQEVSb9ZV5Z5FRFk3NzYgMY7IZj57jJBzwg+WgLszzIxb28IsA2mDHtc8z5/j/UxQR4u12YPh6en861b/397zSY/na/o+PYv);lineShape=1;fontSize=14;" vertex="1" parent="1">
                    <mxGeometry x="1755.5760700158912" y="482.9293710423085" width="23.06011564511664" height="35.5080134011896" as="geometry"/>
                </mxCell>
                <mxCell id="170" value="" style="shape=stencil(lVbRbtswDPwavxKiKInSc9f9R4GmS7AsKdJsa/9+9Aw5odpc0TdHubPJI4/UJHcv24fnzRTDy/l0/Ln5u3s8byf5NsW4O2w3p93Znia5n+Tu6Xja/Dgdfx8el9/PDzNyfvp1/DO/4XXhBRKeSTG8LQctUMr/T74v+P3ucIVPJM3h1U7ibTxXSp6QlWq5TYitv68TkhFQRExNHEEKabtNsABSdQTLKvBtQkuk6ghYo5aplQEfAsArcR3wDBJolSQM+IbwjaLHRxKBePU1M31AyTis+XVCwQk3qr7GSg0Jagl4QS1CVDATyAvKTKHCCkQdCQ1JVLoiKyESK+yhWsYvKCIIVa8pB1KUQ+xNcBEpoq6IlGUoQkIBRUrJO5kyKnIk9RkLZRSPUPLxMG6KRGl0gaKSWbh5dCXSs3S5r/AonrWHL/gCXGNN2sZ8a4ImKMOcw1OoUfM9nUk+wY+mRJPd8MMYbcQ4X33X0AWbsry3DLL9VwllnQqrpJkY9FCyye7XZaowabGe96Lm1n398fqTcSGXCof7PHe87WuAC7ZS9G1kxlCAV1KfwTwsQQbad+mKtysAKgKxHyvWWALwuQt+hYf3g17RS9vhdSzEPH5AwQfiBwExSID78r0SiIHRzCXexzaZ0KAIFIf4zfgQPyxvm8TINYYf4o9wMH71ivk53h4u99mn3X6/XIev/x/vv3a03J3l/h8=);lineShape=1;fontSize=14;" vertex="1" parent="1">
                    <mxGeometry x="1799.3883302445156" y="479.71790594230924" width="14.317032009202649" height="8.89584304547725" as="geometry"/>
                </mxCell>
                <mxCell id="171" value="" style="shape=stencil(lVfZbtswEPwavS5I7vJ6TtP/CBCnNurageP0+PuuKlAxl9YUeZPlGZJ7zCw18cPb/ul1NwX3dr2cv+9+HZ6v+4m/TCEcTvvd5XDVp4kfJ354OV923y7n99Pz8vv1aUbOTz/OP+cVfi88zhTjzAruz/JGKJd/L74u+OPhdIMPgWro8Il8BvhKWTq89yRum8CVau0JkUrcJkQhXzqCnrGkbUIOFHJHYD0S2KFk8q7PUSAHCDVR5o4QmZJsE7xz5PotUiTvwRZah36LHCkEEEQgSR2hJGLeJkgm6Qsxh1W3CYlKX+mqpQR1EKp5wIPWY/LV4jNoPU9pWJ/BeRzFvo9qgVLQkrHFe9DZijfrZ2KQT2ebaM4/qLCn6izeg3iZxOQnwni1v4rFJ9CiqhoZ8KBepcn8Bl+ByryjIDZgQQnyLR83FXBIlp6it4SMCcHsUKC1aAxiilxbm9zXfXOFG3wETaQiHkUJmjS21Vb3/bCmjS7KyW5Q0EAYukIDAEVzVKrNaIWq8dHikc0NxqslTvA8YtZPzYk3VGlst2LbVV83BY4tAxsumpLFo1HzabxrprwSGE58Ha+u95UiFEEHlUFlWcgBYymFXB+DDksBOSrRFjlGOMB1lppbjgisWhqCZk00mq7cZtF6a0ltvt3vi2LHsa9N2/cbL7V71kpQxwfWMttjH4N2NtiAByk4YjS/vb2yqFaB0pgpWjx0omjPv07o+/jhlqYDBbQd63i3+IjW1+uGM/gKhCODdXmoG8WnHq9NiJzCWasOlEG8ipde+Qw1oPGWYPBo1Gg+DV7gfeiznyr/x+vDx3fRy+F4XD6rbv+331H6avkG48e/);lineShape=1;fontSize=14;" vertex="1" parent="1">
                    <mxGeometry x="1802.001832906718" y="489.40407752601936" width="8.81883154669822" height="23.12219569636318" as="geometry"/>
                </mxCell>
                <mxCell id="172" value="" style="shape=stencil(lVfLctswDPwaXTEkwOc5Tf8jM3FqT10747ivvy9UlZEISdvJTZYXJAQsdslBHt6OT6+Hgd3b/Xb9evh5er4fB/k0MJ8ux8PtdNenQR4HeXi53g5fbtfvl+fp9+vTiByfvl1/jCv8muJqJoljFLvf05tAufx98XnCn0+XBT5X4tThExW3j0+Jgu/w3pGT/YAoFPqEfCKp+wHBUahdAEdyIEAcedcFSKSS9gN4lVLIlMEO7CiZIrm2xHZAIFe6gOwpgQBhu0PxrTHbVQoU+28ohRg0Liaq/Q7Vkwug05m82ICU4Q5SbQCDgOAp91yqWlZAVvZU+7JWaUts70DCPb5CdgtJXyPvlN0ggEmy3aCCPnsKyeITaLNbVaiSh3juR6GWNk07eGfwOgmAFDpqpqCptWQHH4PFM8hHCWM4F2E+vMonQnERKxWKhxQlly0+AD6E1v1l/mhmKK3qKUBNU9PaRb+Q+qZVfbDSRaor/kRQf622GUjlJxL31fcq/2G/UrX4iqSdslvhId9ytHhkl46qWLzAeZFg65lBv9yqvwXqj2sSvugvw/WtXiWKQEDdSnDfGbJTz+ItHin6R/GjE/cBansoocBW4YpyFnxxzNa6NSADyqlPmpkvqSW5feSKK9EVYmAaeuayLhChy8RoD4Ea8E8I9pyYV9adAI+42MNBkTZ6241W3veTnxlOvteMe6pG9W4warqD+YaQ4LlRxSv2ZiwCzUBSm933k6mHahGd7YPnJoDbnQ7WL2Mr2zaVit2AofzqtIe+CyogYH1VE18sHnRZ8dUbPOLd6C52fQEFnU8/Mz6DQRjdpR81JTrKRylWDR7N/uJ4ODcA+fdoR4ZCrWK7H9AXSNoJcg/P2eArGJrZjubrIvKz0Y6ywSNCf/Q6+n+8Psx335fT+TxdnZf/27uyvpru2fL4Bw==);lineShape=1;fontSize=14;" vertex="1" parent="1">
                    <mxGeometry x="1833.391950055092" y="486.4363997757223" width="18.173862644268866" height="23.516812209681575" as="geometry"/>
                </mxCell>
                <mxCell id="173" value="" style="shape=stencil(lVjZctswDPwav2JIgOdzmv5HZuLUnrp2xnGvvy9Yl6oISZvJmyxjRQCLY6WdPLwdnl73O3Zvt+vl6/7n8fl22MmnHfPxfNhfjze92snjTh5eLtf9l+vl+/n5/vv1qVm2q2+XH+0Jv+44R6E2ELvf9xucyMnfO5/v9qfjeWafyBt7fYLfthf9OwwA7yi6bUBkiiMgUEAORSrmACrAoVxJRntHDvhTPXE09oG37b2bntcBkSSDAzKl8QAvVMM2oBRiHjmIFIFLOVD1A0AyVcSB5qiMIbju5CogMFUZAElIgEucKeYBoE7mCtKaKI8xFK0L4JJncmkANCbRCULeAAJFANBC8CMPNVItsBfqyHRNPQ3radXazgsAKA1thpCsS//urNeSUBmZrkIJtI9m3RDXAIDpEom9BaAGVUAOlgcPmC46k7wFwBgScbZZ8mDGNIC3gASI0xhMPyhxHvGgNC2ZRoCwUhoF8RDs5FZARQCh6BcnoLnEfajMAAmMGQUEtgBGLvFKx2VEHPdlNgMwdsmbtAbMNC+yFPAJQs7EoP2Aylvsfmgdh3gIdsM1AHIp2o2lAJhW3TfFBu0QcSoqFllC07t13GII1HcAJkuxS5tNlxbDGAkBDToFCwiIB01rsYCMYggr/YD29IcBuh+yKe9CBQDaBjIxVChOdMclq/ewwPJlMe8r1A5+uXd1zqBy7Xt/sne9Q7aUgNlx2uVQzah2GRsoMxStwdl+SKoNQLXG1DXkpIoLCQBkT3lMkkQosLSWjMBi6cSs69ZJKMx0qwPyp7XLGEOEykFZKka2UgLPL852tEDBl3SdVeMP8j9KV3cTy1AUC9t4PZ7D1bYOMyUQwLRoJvsCA5be6jN7pJMmCT+zRwKAKRdrX8HuZKuqNANwUthF2J6PBgX5YO1RRbue7Zl9AP47u2fV3gN/dG6Z/Ofecxv2bmHPoECdFTv6tl7AFHKL+knwXf6j3wret9eL/x8mXo6n0/27xvx/+yFDb90/gsjjHw==);lineShape=1;fontSize=14;" vertex="1" parent="1">
                    <mxGeometry x="1920.4351192234008" y="483.6534092097179" width="24.081837221919614" height="30.730785119259735" as="geometry"/>
                </mxCell>
                <mxCell id="174" value="" style="shape=stencil(lVfLchshEPyavU4BM8Bwdpz/cJXlSBVFcslyHn8fFBXSMphO+bZaNWxP0/Ng4Ye37dPrZgnu7Xw6ft/82j2ftwt/WULYHbab0+5cnxZ+XPjh5XjafDsd3w/P19+vTxfk5enH8edlh9/XdYHYXRYF96e90PzvxdcrfL87rOBeqGiH9xR0jmchTh3ekZQ5XjJpMHgvc3wK5NXgnZvjcybnLR/AXwvFaPSJaY4vSqnnk0gB3rsb35ugQhFEXJhEekZCGXxCA4X+CDiRi0BTbQTaAlHyYb4gVkq9qMlRBC6qrpCeUo6UwLH5SNrLWrCPoo25FBLwAaEULT6jCKh4iy8Q73nAA9/VtCwWrx4I1Cywjhf5zqZ9NS7i48mpxQvk483+t8Se8ckWH1Adall1wyeoT83aYPHIP9yq2grPIGeE3MAH+y1ni08g62P7+kofxwif2eIj4D/mlzbHzvbPFp9RiSAx+hcKIF5pXWiFT8DPQn7AF8CHbX6tCvHEQGlIYAUG8lSGghIhXob9PTgw3yry6gASTEhrUCUHE9IW0Nz6zgSfhoQpkP8n8cEOEppxxXX2BDLDtifFjh5Rm2gf90mxC6SmBRo+lELvOmbKwBRai3IfdDUuOrUiTZP1NAFsUSK5npKSghAqI+PT1DLv45BT2+6mEQUQQBqHFahQnUzMPFc7M6rrQ6OXVpmmg0evT8TzLgVjOlima1tSC4dJU4IRv+Amb+EZpLBrSt/hArg7YjvpImvWOd4bIdEgPYzFEeaia7rdjxW1O2ePqfZv4GLXhtO7yVCzHoYlhp7xrbPd4UjIT97Y/guvD/fL4ctuv7/eLdf/28tkfXW9iPLjXw==);lineShape=1;fontSize=14;" vertex="1" parent="1">
                    <mxGeometry x="1966.4203867575839" y="489.6365671098881" width="20.887645010216602" height="27.54599983643243" as="geometry"/>
                </mxCell>
                <mxCell id="175" value="" style="shape=stencil(lVbLbhsxDPyavRISqec5Tf8jQJx6UdcOHKdt/j5SF7JN2jtBb2t5RhLJGVKTPLxtn143E7u30/Hwc/Nnfj5tJ/k2Mc/77eY4n9rXJI+TPLwcjpsfx8P7/nn5/frUkf3r1+F33+HvwnNUSyex+1gWSiaX/618X/C7eX+F945YFCEV8nWdwJG8V4QoJGmdIJGSU4QQKIZ1QiiUsyKIELt1QgrEOmhfqZR1QmESfUJLQ/brhJqpVEVw5BngC4Vk8C4CfCXnDT6h+1QKJmLKAvFF799qhvevOt5WdaCijtf3yeTxfbKRKVW8f9AqbQWLQBKtADVqgqeITigkOmLP5ICsuyTYnlCRJjJxtQSPTkhUtIjqWFjDR5tUWLREQbsgESORpmHbs5FJUMCJsg6YKeKMepMgnJ9MWTcWN/rAWok5G7zDGipi8IJNLEakJGj/ZgI2+cmgL3aTRZP/CEzm3Tm+S4EDSlDTl05QMwXGRy3Q5kqHI/A3nvmiZEbS3WRIE/9LaKPAdPZeBVDlFIcoz63UD53fH2eVks5qiNBnkkZrOzffNHrN/ZGcyOug2yULaO+ttbF2cm6XBHUQO/P7wALSZkrJ4hN6VIxGdRES9qYf1706oEI83wQQQIacbV1dWEDZjoJOaGtOqFc4W7Ea4fBo2dCtpQY4wG+cX1tJQK9oeBOvgwPZ2VlW6sjACj4afBmSWsHfecYCG3/97G0flzfzy7zbLU/u6//tG7stLe9zefwE);lineShape=1;fontSize=14;" vertex="1" parent="1">
                    <mxGeometry x="1962.4122033183216" y="505.1568128046947" width="28.776663924470995" height="8.430769824435401" as="geometry"/>
                </mxCell>
                <mxCell id="176" value="" style="shape=stencil(rVjZbhsxDPwavxKiqIN6Ttv/CBCnMZrGgZNef19uXTkWtTtBgb7Z66HMYzjkaic3Lw+3z/tdDC+vp+OX/Y/D3evDTj7sYjw8PexPh1f7tJOPO7m5P572n0/Hb0935+/Ptwty+fT1+H054efZLicqYbGK4df5SSFOfx58OuMfD0/X+EKhDfhIsW7jSyQpAz6Q8Da+RgrJ4UPYxmskzQOeSds2vgVSH28WgBdqY7wstHwFBjIGYB5VELFWaqNHEolBSmsl1sEgSU/CVg2KDAY5UwVJSko6xlDMSRCDKIXRpapUCzAQKjwYWBoQ7yR3B7pBs8qDwllOSh0N7AjgkjE7j5VulSKiqlAQb/A3DVuVdr3QUmfXOpci1TGt2nre1g2Y2KXVuITahymN7bNEBVwyIjiXiiUaGBg1ShzJx7DSTGFMktQuCat405MxAim98hv4wB4f4fneH9w8gTJ7vAB/mCR4fADEjlO8CfojlIvHo4JdTrs+H/hjXRU9vgGBLKTRx4sEtVKa8lkg3vHN6htA39v5yeMzaBnzv3p8A3jLz9gwgmUlkU78T0h7vbgveBBvpBQ9/h1+Tv6g/jX+T/2oID/Bjw7DC1DRyz5wxYeG9WHiG6ovr5zPgP881TfBaSzEc/9CPsh0foV8m/tdQX7KVK/ch8h/wadEaRSU1LqErTdkouy2jwgZoepbYNki0VxVr3E2BxX8A4eJdbZIZtA1NomzWz8q3urE63pr1JDuJt+YV15ubmnsfUL7R1TPPdtuE5pNmdTtHzaM0VoXKLnFseLVlPuwuJCj9I1kK01Or+1JBvpY1A+oFGFD26rrghaG3FDxQZuIFPAPi4ErtcAZq5bWka7aX/PWQyh9JF2S1HtwPUep0+ASMnw/MLxbxkt3cPN8JwFw2bcdtDkFoIjxXB0+AxKZAMXg8PCNi/1bsrUeqFduXX7e8Ghtz+rzaecDxuXql9KKtaVMbYlnTvZLV4WKbfjg/UHKtdxSjA1QYL3++VbjXbx9eLtCuT88Pp5vYK5/91cu9uh8XSMffwM=);lineShape=1;fontSize=14;" vertex="1" parent="1">
                    <mxGeometry x="2013.1659577714167" y="484.72986361373273" width="13.13665108366331" height="36.21219555260632" as="geometry"/>
                </mxCell>
                <mxCell id="177" value="" style="shape=stencil(lVhJchsxDHyNriiC4Hp2nH+4ynKsiiK5ZDvL7wNGxbEIjtrRTQt6SADdWGYjd6/PDy/bjXevb6fj9+2v3ePb80a+bLzfHZ63p92bftrI/Ubuno6n7bfT8f3weP7+8tAs26cfx5/tCb/PuFioxoby7s/5FxFy6d8vX8+A/e5wCQgkYQD4SrUAAFOsIyATx+uAUCnzCBCKGQJkPIEL5Qqu5OwJHMgFAPBUZQBUigLsE+UxqpEcuFBiKmNQmRIIUcr2+Y6cu26fhRIb++yBfaGSRlZQAqQonmIZ7AsFwIkSqLgpAcDhkiiODqsHAiJapgg11iEXKvFIIhVCADGqTG70WUpn+jpAnzcmIXgq6ITUdbIAUifuOkDFPNJIxRdAWNktvFkQuVNl/Qj9e1RCCuSBFDRMeQxTZmKgtcK9nCyAQgyulKotMEovQRUpUhqd1uQHkDnJVPIo/whTrfWH/chvhxWqeh99qJU8iJLGUKw9gzQ4mzblSgE11ZGP1h4p2vX6eWHvQNJc/3exzxShPWdr74B2HMUxxSqmBOLvqCZrLzBfka09YrXv9f+/7VO45T7SJXLpL4in1iKZ4gn4I1ZjLV8g/mLrdeMDtJeJP0iSfsqX8hnw01Mw9hXGXxvyjXoUnp4P7u9sVWy1G+pRJn8T5L/lm5YkrF+jFy300J4ne/x8MfrVVgbrVZ70gmq6xt9bewbx1CYz1QcG8bzZPpOfHK6gFUvqE+UCWGrAtUGcR0q0IQlcSYdG02O01UZwpVztlXKERboUOwZqb0bLhI5EyQDw9qF9N4151nkFbR81WCFHgXOgRt2PgFCgEj5mhwUQOtmvjaY81jqplBAg2kxLgGIrYqudDr8FJc7b9q2ED4B8So1qVq4INyKd4cy0zEvLXQfEvnEs5OtOrdtrhTeTLAm4UCrWgwAbTorTpNwPvLbSmREQE1UXcTPRMcML6Y5pKoymQECSdew1vGtrMqow0Q5prS2CCqNaNAXDp9631oPk7dKlizXyQQEpWgBaiVo9GdMmDmpHAZ4tAO3KDWDUyeTxCVbOy/p/zWnTfMR/FlYznSoA6V8BJtO6/KL2qewO3gICOmFq6AqA3cpNVVL6TL9Ovjo5rUMlaG+3v/r6HKAfPt60Pe32+/OLusv/7Zs5/en8Vk/u/wI=);lineShape=1;fontSize=14;" vertex="1" parent="1">
                    <mxGeometry x="1812.8218918986813" y="547.8256434021175" width="28.36163357423993" height="32.621624173429154" as="geometry"/>
                </mxCell>
                <mxCell id="178" value="" style="shape=stencil(lVbZbuMwDPwavxISqfO52/5HgaYbY7NJkabX3y+9hlxTSSbom2NzwmNmKA1y97p9fNkM7F5Px8Ofzcf4dNoO8mtgHvfbzXE86dMg94PcPR+Om9/Hw9v+af798jhFTk9/D+/TP3zOuEjsJhC7r/mFIx//v3iYw3fjfhUuTFVMPGdKAJA8ZTaAUEj4OqBGStVmEIoCAIlq6AEVZSjkvQUkKgkAKrlsADoGB5pWQNe0lFbkRYB3jpzlIWhNHqYotqYYqIAUCpBoAInJVzimaEtKhVwBgEximcueKuohkU8WIMSIiNCIXQBKBMogbYirHjgDAPdi0ikFRLV+thliJI944FbAwnQmj+TKTf6LmCoxMoSQP5MrI6ZDK2Blaoc9yuXMcihD6nuYTO2glnJnat0LiOlC2ZYkuslQhkrRZpCES6pUrYGCzg3xoAAr78ht214tqfP04vJrTRdLXEp4ueZ+StlRuUFcBxA81p8CkutPlNUyvHwG6ZFiEUX3DAK0LbSMtTT9XoxnKpbomCig7d1GuMQLtI9va3R1JDKIdxS6eCYBXnD9+SbqHVD/2dnDuvqBKFy/trUjHN/J2scb82Fbf71Bl+t8SRmqwXV6owgWfGjq/b4gIXH+8D51M1wfvq9uz+NuN9/81t/7q56+mq+Jcv8P);lineShape=1;fontSize=14;" vertex="1" parent="1">
                    <mxGeometry x="1861.3397423961092" y="544.3428728725953" width="14.49195584351446" height="2.2493440607011053" as="geometry"/>
                </mxCell>
                <mxCell id="179" value="" style="shape=stencil(lVfZctswDPwav2JI8H5O0//ITJzaU9fOOE6Pvy9UDVUBktbjN4naFXEsQHAXnj4OL+/7HbuP2/Xyff/r+Ho77MKXHfPxfNhfjzd52oXnXXh6u1z3366Xz/Pr+P7+MiCHpx+Xn8Mffo+8mCi5gcXuz7jiqaV/C19H/Ol4nuOZWtD4SJkBIVLLisCRit8mpEheEwJTAiZlsVi7EApVt00ojlpRBIlCjNuE6roBnZCmPdcJjarXhEoZEFohr3fIYhJw2jtHTntdmGIAWyRq2qbSyDXgRKLSFEFWHLCpeEqsCM2Rx6l22msxEhG4UTGECrURKGktzeK2vsPChdbFsp4Hu4HgS93GOyoLPMqzIw4W70C5LVQxBAjivbd4BzIglRA1vsAEeOJs8R7Ek/vXCZ97w9lIMDuLr6h/EfMj/xc9LvxF9ieqC38TaC2ZwiJfSJ+Z4iJfCeQrk9c1POgHlSTlh/QZqRaLR/oPtlffqS+28bxXwH6RgNZXNvC2YBolWMBh4TAShFhrBCQnAei6a3j/kD3lzv9bs3gGeN/LaYbHDdTiM4z/w/ipP83ODFQByS0UwRTADrlQ0SGtUsOgR8h40HRTqQxFPYwHOskFd90Wek5nh31Fh72nqGWdJazosI99ApoIoixAKIlYRymFPi+shzV1nU1TlygJKDvlHvVprpPegkbNaptpiLB2QiXWWhr6PRonZIbSUZLpN4DEDTtUTaCM8bEYvAdBFbwpH9cnz3V8s+eHowgiFGU+YINnoDvBm+uB9DNQa9H3SX2GB91Frh+5WDw4XmOg2AweKSIu5gOJD5KcnH8WX1B8pAh0vjwceIeLidUPGucevs7dxcvD/7vj2/F0Gq+e8+/2rilL4z01PP8F);lineShape=1;fontSize=14;" vertex="1" parent="1">
                    <mxGeometry x="1853.4618061786678" y="545.4341541944843" width="15.608332949198939" height="31.73556453367837" as="geometry"/>
                </mxCell>
                <mxCell id="180" value="" style="shape=stencil(lVjLbhsxDPwaXwlJpB48p+l/BIjTGE3jwEn6+Ptya8hdUd4JclvbHFMkh+Rod3zz+nj3st+l8Pp2On7f/zrcvz3u+MsupcPz4/50eLOnHd/u+ObheNp/Ox3fn+/Pn1/uFsvl6cfx5/IPv884bVRkQaXw5/wNE+u/L76e7Z8Ozyv7phTLYF8p1G37evm528dEFTgolXIYAZVq3Abk3P+vA5JQ4W2AMMl4JE5UQAwcSPMAkEQBxBCVQhsA2YIGHpR4TGoRkgBipjDmqGaKCSSVwljkJrDKViNOA0AjRdkGpEQyRqBCWkBOM6UxBC3UgAfRyUOhDHhRmIoDMDUQdLUDjEcyssNesBiqT2vIAFApuropVQRIpKMHO6SCLFWh7NozU0bMYIojt6vlDVBPSmfaCiCg3WygBOfBZgIonHEp6gQAWUqROE9ZQh4CleQBBQNcQxsgNjgB3FCyOqAZswCqB6CWXo7EI0Bg4QyQxQMiTmtyAIYtaoVzs37hEsiSAXTyUFEM3NtlfSTQorYKJPmgE2KrUGseAI+U+ypYFQ56yJ39K0BFWZLOnBX5EgbMbIV1sJ3PHqCIGjbunYcPW3TuOEVHCtSmnq4orWFiayEGbLWOa9OobCCGpUXFAxhQwwDqKi1QBlgMPLVoQvQ2ZeLIx6QoS3GaSwzV1acBy35wWkb7Ia9vIOlr/OIh9AWwtafd2q02eIDWWNZu9mkVQD5N02xVyqBwJhTcjmuWBiSLtXfwRZwkODXKNGYUb1HTS17+GH+RIhMvEmMIXWdudlD0Z6qg5Vov0ypoNL2DVz+mr5BcCpMsFjgCpM/dC1XxeaIth5EXOfR1cb17ir85sGJZbFUby2yXDwYAu1i4dlvkEziStZsjUsz4BsdemUTLM1AmC/VHD1gVa+691e1Db/Dr9sVfHQK8jS0XC/X2gNZG4ty8PYjXrtApO3ukq8zeLR4rMYp3uh0GuM2XPh9ZGnH+1ZM09gvy9S4IU59FKLfNgdNUqQv2LfsSnT2aXGYfx/+3Sw06zyffeXxsbw//X7A8HJ6ezu9n1r/7FzL21fllDt/+BQ==);lineShape=1;fontSize=14;" vertex="1" parent="1">
                    <mxGeometry x="1889.0461420045212" y="546.4355676977948" width="19.519303685177874" height="30.82931490810165" as="geometry"/>
                </mxCell>
                <mxCell id="181" value="" style="shape=stencil(rZjLbhsxDEW/xltCJPVcp+l/BIjTGE3jwHFff19ODU0syr5Gge5sj44lirxX1Gz07v354W27kfB+POy/bn/uHo/PG/20Edm9Pm8Pu6N92uj9Ru+e9oftl8P+++vj6fvbwzJy+fRt/2P5h18nTgKlslASfp9+UaGU//7y+QS87F7PAaYsAyCZBAFCsY0Ak1QAxP64A5yoIaBQckCgEq4DylTTANgEDYyvJC4EEr4+PmYKeRgfKID1pEjMfjwIOAfScT1KScF4oap+g3ICAFOJI9BIwQypUBkjkEaMQg4UxxTEQBLBngbiMYa0LvJaVbQwAFkpgCxzoTDOUJQqSHOlOE5QlRQoIXqptXUTLmfBV10zZQgIgInHPW32F2ACK7MyASgCjZSnJbUC0mziH/e0CQWQtZK8+GuCpWordrtaGgy6FdLoAQZpbpVYJgDNUL29GIC2tTUvBgMKWlKjOsZQTR7AMTisDnRG3JjCyacyFKgBKXuggHI1IIyeUeVWIjR4QHGqk3ggAhuzYnK+t8yAgjanTx5A1t3StCQ7UDEgUx4Y2JgBzigrNnsDlD3AaJcSFWeUjTJwgcVVJsmh48QSFyZRM8pDoZonABVf9W3MYhsohvXxGZBQ4tpUS6EX/FXFVQ+gY30BJsUF7DNlqqV0I2j2AOqUbFvTpAf5n0ApxC7oSgUdQUp5zMNS8CBxmiiOM9gi0Tkta5o+2ivc8JmRjcW3nAAg01PPvdgIKKXZ7FvfhCudicymhNYj1JygraUGWZO1k1qbMVyqlgTXacT1QLocwmSseqMuxAva0oL6w5T6/501xUjQKVN09xKTG2qKk5db7uq4HHPtJ/K6SV0cl8dLd92Pew8qCy0k7ijB7aF65TA+bzV49XOG/mILqC5p3O82V28BY1nYnmZwMBjgOla7EDek/tKvvyugMMu2ANdZWVuN6sgArR6AhpT8bcyAgrY19hBXIOElRd9kGIDue2YArndbZkAxSHe4sxgq0PNSCBOADjdhrx7F8jFbdddoyzTqewzIwQOos/r3tzG3Afvw8fLnaffycnp3dP7cvyyyn04vmvT+Dw==);lineShape=1;fontSize=14;" vertex="1" parent="1">
                    <mxGeometry x="1925.8962801928105" y="549.7752859269631" width="21.267635886027165" height="31.214676255317045" as="geometry"/>
                </mxCell>
                <mxCell id="182" value="" style="shape=stencil(lVfLctswDPwaXTEAwec5Tf8jM3FqTV0747ht8velRqUjQtZ6cpPpXYJ4LEAO+vC2f3rdDY7fLufTz93f8fmyH/Tb4Nx43O/O46V+Dfo46MPL6bz7cT79Pj7Pv1+fJuT09ev0Z9rhfeYJqUwkxx/zguO28n3GH8bjEu8plY5QVzJvE1SJuSMU8gDvI0no8AHuH5mS9h6Q6DY+ReLeAW4HvInPmUJ/HqEM9i+RouvwiQTsL8w2QBLJF2Ahke8tuEwFEYRib8FrC8Jtn4VC6ghRiIHTMVLwHSHXtKRtQlCS3FdFIecAwVEKlhADJDi2hIIsrKK0SM0Ww5Z2oQziGph8tISACbzyWjxQTz1Ar+eSoYVKSOZIiUqGhCKWgARdfXB9bVSJ3IlSEksIoCfVPLhiCYoTV9gSHHC6FpPPlvA/lVuEsiJk5IOSehtW6INScJaQkQ+VYJzOzastgg1raeW46bRYQsCi9msBIQvSZsFS1KiWhGTlQ0EWmKJaQkKJY5JkCShxk0STzUPCirMSza17blpY1dKdNiMrTTNoM18mRG0Kvk7FDEuj/u16pwMeEHVOixlytaEDiRaltBqjAmbW1FT6I0mVKMhD8SQmcfDqkKuA+xMFCvgqE/omo+1ydjsJQonN/hk47FOL+Of5A8Dryl9RmLN60VFzmczQQm0wvQHnyQFx1v6SLF6B+qX1hiUe1JCQX+EdwLOdChWPZMNNtle8wmbEbYot8KgX1euFwbvWOrbwbPEKKpSbd1c8vjxzy+YCr/A83sSH2wjawOdo8QHm94uvo7v4+vH5FHsZD4f5Jbf83z7d6tL87NPHfw==);lineShape=1;fontSize=14;" vertex="1" parent="1">
                    <mxGeometry x="1965.434302685081" y="552.0333914010566" width="26.50087078137676" height="26.804970161091433" as="geometry"/>
                </mxCell>
                <mxCell id="183" value="" style="shape=stencil(lVbLctswDPwaXTEgQPBxTtP/yEyc2lPXzjhOH39fqqokE662kxtNLyBggQU46MPb/ul1Nwi/XS/nr7sfh+frftBPg8jhtN9dDtd2GvRx0IeX82X35XJ+Pz1Pv1+fRuR4+nb+Pnr4OdkxsY1Gwr+mi6pU8p+bzxP+eDjd4IVy6PBZKOg2PlSy3BlYoJS2DVTJSmcQW4xx2yAWkj4FSWS8bZCZUuwMQqBYtg1qJk6dAVMQiC/q8IzwxafMpCieStL7DxRAzRreFU1IAUENX/uaKSXD+D5+I8bx574AiSKo8Jhv7z+TVcinK3ChGHC9qsMXjP9b/hWfET+J1PsXlK9RYZevAo01vPOfKKD4jaTvh0gZ9ad5/pUE8W+U+vgDVYRP8whZ+78iftJcnhUviP/sZ1DTI+r/Qhq9f8RnJfbxoxla72ZimBtwU1/B8R+AvgIv+a0FTljwxQuSccKxH7kZN3SZ+VgFgBJo+GAOn5EAPojPy/xbCtAYAAEZU+w3gDZGAUNq88RcKlDgjpG7kKziHCj0ms+tZqDpjKzPYJ0yG3h1+ARFbL7lWlEY7PlIJh5fQb46j4QFv6hoAy/V45F/odTHc6Oif6uMqvkPZBBQmGf4DR5NLfZLoBEUgX/2S6CNPdRx7JfYuKaAiO9mSmsgtGU++rL8P74d1mfsy+F4nF7Bt//7Z2+7mp7M+vgb);lineShape=1;fontSize=14;" vertex="1" parent="1">
                    <mxGeometry x="1968.3979389453111" y="565.9543560487116" width="21.469077285439653" height="11.647192282541255" as="geometry"/>
                </mxCell>
                <mxCell id="184" value="" style="shape=stencil(lVjZkhoxDPwaXlWy5PN5s/mPrVo2UCGwxZLr76MJGYJlpinehqFl62hL7Vnp08fm5X29Ev44HQ9f1z+3r6fNSj+tRLb7zfq4PdnTSp9X+vR2OK6/HA/f96/n3+8vE3J6+nb4Ma3w62yniZgnK+Hf5zeRSvr74vMZv9vur/CxUWodPpDKMj4zaejwTKzL+BIoqMfzMr4aPjp/agH4Slo7fJlf3MQ3IXXxZuIIDJRibyCZcgAGTLl0BlopgR1qotzvkMK9HEmfo6xUMihC9UUutieqWqXSZ3VyEgRdhWpPuxaooLo10tQbJBIQdItUe5daJgU72HqxZ57VPoIsmUt5CBoVrrSBe5kS2CGnuUyXwmWqwCAxhT5LycgHsiTNH58YKYDCBfYxqEAD9mS1BqMgBCbp1xelBtfn5PGozIbv+5HIzN0FfCgeL9Cf5NY3YoMGGXz/nRoqyE+gVD0+ALxVpz2GL8P6CkitJMXj/1V8AZ/F5zOA/Funah5foD/F+WN8AK1L5yN7ha/QH3fCJj4Df2SIN1IGA1aIBzziZ6AYBjzgG1Md/I+Q/5E9nvF5CT6fqMfxwH+hBtfngQ8K+Db0qzsCwfIjHo+mQLixPuoPgdp4HiF/0oAX4I/xc/Af5f9RfDCHnEGDgkiD70CRqQGGJvGUS6apwJHJ1e8w6RusPqSPoSic3CbqpHfJlmjAIPDA60ngIBnYqPZBtDK31iWBE3txcLXp7bALJadwKgk4OyZY3DCwRKDmazLRyQmTRA24VCK1PojpDUhTKXMWL7UWKE3rZVxf6Ndgg7QscZ8ltT3RDs2rNFP8aITYHaT1LoUCe5gl0TXtgG9RlT1fE7zljLcuhTnKQ5dUOKRMl6bi/GEkErKfgpUy6jHJqy67kADaTbdej0dDWaNXCRUOTcO7fFZ4WdFB5RSqKF5rV8nhI6iX4d3dJlND8d7AoyE4+pPmMbcYb3V4OKSin1L48jfVq/ffugoSgQ9+BbmPt4f/n1zetrvd+YvN9f/+E429On/e0ec/);lineShape=1;fontSize=14;" vertex="1" parent="1">
                    <mxGeometry x="2007.3942712207781" y="564.10924162588" width="27.052442590987084" height="28.226462634753716" as="geometry"/>
                </mxCell>
            </root>
        </mxGraphModel>
    </diagram>
</mxfile>